<svg id="svg" version="1.1" xmlns="http://www.w3.org/2000/svg" xmlns:xlink="http://www.w3.org/1999/xlink" width="400" height="400" viewBox="0, 0, 400,400"><g id="svgg"><path id="path0" d="M61.280 90.480 C 61.016 90.744,60.800 91.644,60.800 92.480 L 60.800 94.000 58.100 94.047 C 53.504 94.128,53.058 94.324,52.673 96.433 C 52.356 98.169,52.257 98.277,50.670 98.630 C 48.454 99.121,48.075 100.571,48.032 108.713 C 48.006 113.616,47.887 114.868,47.429 115.044 C 47.115 115.165,46.485 116.057,46.029 117.027 L 45.200 118.791 45.200 200.147 C 45.200 287.632,45.095 283.095,47.167 284.970 C 47.937 285.667,48.001 286.167,48.017 291.562 C 48.043 300.218,48.582 301.955,51.253 301.987 C 52.337 302.000,52.783 302.779,52.795 304.681 C 52.801 305.791,54.736 306.395,58.300 306.398 L 60.800 306.400 60.806 307.700 C 60.809 308.415,60.983 309.270,61.192 309.600 C 61.580 310.215,333.204 310.800,337.479 310.195 C 339.110 309.964,339.165 309.907,339.424 308.179 L 339.691 306.400 341.945 306.398 C 345.935 306.394,347.126 305.847,347.646 303.782 C 348.047 302.189,348.217 302.000,349.247 302.000 C 352.290 302.000,352.000 312.757,352.000 200.009 L 352.000 99.618 351.100 99.057 C 350.605 98.748,349.722 98.385,349.139 98.250 C 348.324 98.061,347.952 97.610,347.539 96.304 C 346.925 94.369,346.344 94.128,342.100 94.047 C 339.731 94.002,339.600 93.949,339.600 93.026 C 339.600 92.490,339.424 91.590,339.210 91.026 L 338.820 90.000 200.290 90.000 C 93.078 90.000,61.651 90.109,61.280 90.480 M292.479 110.696 C 290.939 110.803,290.291 111.029,290.113 111.522 C 289.556 113.059,287.404 114.778,285.718 115.032 C 283.581 115.354,282.748 115.972,282.182 117.655 C 281.786 118.835,281.522 119.028,280.031 119.231 C 278.182 119.483,277.742 119.922,277.361 121.900 C 277.165 122.922,276.912 123.200,276.182 123.200 C 274.880 123.200,273.200 123.893,273.200 124.430 C 273.200 125.456,270.740 127.160,268.881 127.422 C 266.151 127.806,265.200 128.526,265.200 130.209 C 265.200 131.322,265.044 131.600,264.419 131.600 C 262.554 131.600,260.800 133.230,260.800 134.963 C 260.800 135.299,260.042 135.578,258.702 135.737 C 257.549 135.874,256.544 136.169,256.469 136.393 C 256.394 136.617,256.054 136.800,255.713 136.800 C 255.024 136.800,253.201 138.736,253.200 139.468 C 253.200 139.726,252.615 140.058,251.900 140.207 C 249.984 140.607,248.800 141.494,248.800 142.529 C 248.800 143.757,248.076 144.400,246.691 144.400 C 245.206 144.400,244.400 145.234,244.400 146.771 C 244.400 147.934,244.316 148.000,242.833 148.000 C 240.869 148.000,240.000 148.324,240.000 149.056 C 240.000 150.211,237.385 152.299,235.558 152.601 C 233.112 153.007,232.531 153.392,232.018 154.947 C 231.648 156.067,231.326 156.340,230.150 156.531 C 228.233 156.842,227.638 157.419,227.345 159.252 C 227.102 160.771,227.066 160.800,225.376 160.800 C 224.000 160.800,223.602 160.962,223.398 161.607 C 222.863 163.291,220.789 164.709,218.435 165.001 C 215.863 165.319,215.200 165.732,215.200 167.016 C 215.200 168.619,214.767 169.200,213.573 169.200 C 212.155 169.200,210.800 170.580,210.800 172.025 C 210.800 173.026,210.661 173.112,208.717 173.298 C 207.571 173.408,206.566 173.701,206.484 173.949 C 206.401 174.197,206.054 174.400,205.713 174.400 C 205.174 174.400,204.330 175.175,202.773 177.100 C 201.929 178.144,196.800 177.585,196.800 176.450 C 196.800 175.337,193.018 173.200,191.048 173.200 C 189.634 173.200,189.218 172.592,189.205 170.508 C 189.200 169.616,188.716 169.374,186.416 169.112 C 185.623 169.022,185.369 168.693,185.105 167.417 C 184.713 165.519,184.482 165.352,181.770 165.014 C 179.605 164.743,177.860 163.579,176.991 161.827 C 176.679 161.198,176.129 160.971,174.690 160.878 L 172.800 160.756 172.800 159.227 C 172.800 157.402,172.310 156.923,170.080 156.566 C 168.702 156.346,168.400 156.141,168.400 155.424 C 168.400 154.271,166.995 152.801,165.884 152.795 C 164.490 152.786,163.200 152.346,163.200 151.879 C 163.200 151.365,161.597 149.600,161.130 149.600 C 160.949 149.600,160.440 149.240,160.000 148.800 C 159.475 148.275,158.667 148.000,157.651 148.000 C 156.161 148.000,156.093 147.941,155.853 146.444 C 155.596 144.837,155.062 144.400,153.355 144.400 C 152.774 144.400,152.283 144.115,152.150 143.700 C 151.208 140.768,150.360 140.000,148.067 140.000 C 147.275 140.000,146.777 139.668,146.264 138.800 C 145.874 138.140,145.419 137.600,145.253 137.600 C 145.087 137.600,144.544 137.221,144.047 136.758 C 143.550 136.295,142.391 135.818,141.472 135.698 C 139.634 135.458,139.215 135.078,139.206 133.644 C 139.198 132.430,138.151 131.629,136.551 131.613 C 135.405 131.601,135.281 131.468,135.044 129.988 C 134.762 128.221,134.319 127.922,131.221 127.402 C 129.483 127.110,127.200 125.417,127.200 124.421 C 127.200 123.852,125.477 123.200,123.974 123.200 C 122.904 123.200,122.800 123.079,122.800 121.829 C 122.800 120.052,121.910 119.200,120.052 119.200 C 118.703 119.200,118.511 119.062,118.041 117.763 C 117.534 116.359,115.245 114.836,113.600 114.807 C 112.823 114.793,110.531 112.644,110.209 111.627 C 110.011 111.006,109.521 110.810,107.879 110.694 C 106.736 110.614,148.280 110.548,200.200 110.548 C 252.120 110.548,293.646 110.614,292.479 110.696 M116.369 117.231 C 117.046 117.908,117.596 118.673,117.591 118.931 C 117.586 119.189,117.251 118.970,116.847 118.444 C 116.443 117.918,115.682 117.157,115.156 116.753 C 114.630 116.349,114.411 116.014,114.669 116.009 C 114.927 116.004,115.692 116.554,116.369 117.231 M120.148 122.885 C 119.873 123.329,118.895 123.277,118.602 122.803 C 118.460 122.574,118.777 122.440,119.349 122.488 C 119.895 122.533,120.255 122.712,120.148 122.885 M256.531 137.940 C 256.425 138.348,256.635 138.978,256.998 139.340 C 257.360 139.703,257.459 140.000,257.216 140.000 C 256.973 140.000,256.670 139.725,256.541 139.390 C 256.361 138.922,256.179 138.886,255.758 139.235 C 255.456 139.486,255.297 139.833,255.405 140.008 C 255.513 140.183,255.237 140.230,254.792 140.114 C 254.110 139.935,254.063 139.801,254.492 139.257 C 254.923 138.708,256.468 137.255,256.663 137.213 C 256.697 137.206,256.638 137.533,256.531 137.940 M318.901 290.059 C 318.735 290.225,318.690 258.194,318.800 218.880 L 319.000 147.400 319.101 218.579 C 319.157 257.727,319.067 289.893,318.901 290.059 M90.000 153.720 C 90.000 155.822,90.522 156.400,92.423 156.400 C 93.822 156.400,93.902 156.475,94.244 158.100 C 94.595 159.772,94.636 159.806,96.701 160.156 C 98.484 160.459,98.800 160.644,98.800 161.387 C 98.800 163.030,100.417 164.014,103.546 164.277 L 106.400 164.516 106.400 165.858 C 106.400 167.637,107.586 168.800,109.400 168.800 C 110.689 168.800,110.800 168.895,110.800 170.000 C 110.800 171.630,112.053 172.800,113.800 172.800 C 115.072 172.800,115.200 172.904,115.200 173.938 C 115.200 175.830,117.846 177.200,121.501 177.200 C 123.097 177.200,123.111 177.213,123.376 178.979 C 123.636 180.715,123.684 180.764,125.376 181.017 C 127.010 181.262,127.124 181.364,127.351 182.787 C 127.646 184.630,128.291 185.208,130.363 185.486 C 131.675 185.662,132.028 185.904,132.362 186.862 C 132.877 188.340,135.482 189.579,138.100 189.591 L 140.000 189.600 140.000 191.120 C 140.000 193.078,140.564 193.600,142.680 193.600 L 144.400 193.600 144.400 195.151 C 144.400 196.815,144.932 197.222,147.861 197.798 C 148.755 197.974,149.262 198.385,149.604 199.208 C 149.868 199.848,150.606 200.601,151.242 200.883 C 151.879 201.165,152.400 201.531,152.400 201.698 C 152.400 201.864,153.279 202.000,154.353 202.000 L 156.305 202.000 156.752 203.777 C 157.170 205.436,157.324 205.588,159.068 206.081 C 160.580 206.508,161.011 206.837,161.328 207.804 C 161.784 209.195,162.105 209.459,164.000 210.000 C 164.976 210.278,165.582 210.784,166.000 211.669 C 166.804 213.370,168.875 214.400,171.494 214.400 C 173.536 214.400,173.600 214.434,173.600 215.524 C 173.600 217.086,174.399 218.019,176.020 218.349 C 177.139 218.576,177.486 218.892,177.852 220.015 C 178.489 221.967,180.051 222.795,183.100 222.798 L 185.600 222.800 185.600 224.124 C 185.600 226.060,186.368 226.850,188.484 227.088 C 190.112 227.272,190.345 227.423,190.546 228.429 C 190.976 230.581,192.273 230.986,199.182 231.127 C 206.632 231.280,208.178 230.908,209.400 228.669 C 210.072 227.436,210.412 227.202,211.526 227.201 C 213.754 227.199,214.400 226.611,214.400 224.586 L 214.400 222.800 216.700 222.770 C 219.920 222.727,221.662 222.022,222.130 220.572 C 222.675 218.879,223.163 218.401,224.349 218.394 C 225.880 218.385,226.339 217.955,226.706 216.183 L 227.035 214.600 229.490 214.327 C 232.256 214.020,233.606 213.301,234.433 211.697 C 235.138 210.329,235.561 210.014,236.700 210.006 C 237.879 209.998,239.200 208.648,239.200 207.450 C 239.200 206.701,239.471 206.446,240.479 206.244 C 242.660 205.808,243.600 204.949,243.600 203.391 L 243.600 202.000 245.800 202.000 C 247.010 202.000,248.000 201.820,248.000 201.600 C 248.000 201.380,248.303 201.200,248.674 201.200 C 249.580 201.200,251.200 199.633,251.200 198.757 C 251.200 198.046,251.546 197.872,253.903 197.397 C 255.326 197.111,256.000 196.220,256.000 194.626 C 256.000 193.676,256.134 193.600,257.810 193.600 C 259.740 193.600,260.400 192.843,260.400 190.630 C 260.400 189.801,260.628 189.690,262.735 189.499 C 265.648 189.235,267.345 188.382,267.973 186.865 C 268.356 185.940,268.784 185.641,270.001 185.446 C 271.963 185.132,272.800 184.289,272.800 182.624 C 272.800 181.377,272.891 181.293,274.486 181.079 C 276.376 180.826,277.200 179.989,277.200 178.324 C 277.200 177.303,277.330 177.200,278.623 177.200 C 282.340 177.200,284.534 176.123,284.983 174.077 C 285.238 172.914,285.400 172.800,286.783 172.800 C 288.544 172.800,288.994 172.365,289.366 170.300 C 289.589 169.061,289.802 168.800,290.592 168.800 C 292.820 168.800,293.600 168.144,293.600 166.269 L 293.600 164.519 296.817 164.270 C 300.241 164.006,300.840 163.687,301.466 161.793 C 301.799 160.783,302.149 160.543,303.750 160.229 C 305.546 159.877,305.664 159.772,306.103 158.129 C 306.520 156.573,306.688 156.399,307.783 156.394 C 309.585 156.385,310.065 155.899,310.296 153.849 L 310.504 152.000 312.852 152.000 L 315.200 152.000 315.200 221.000 L 315.200 290.000 200.000 290.000 L 84.800 290.000 84.800 221.000 L 84.800 152.000 87.400 152.000 L 90.000 152.000 90.000 153.720 M101.365 160.057 C 101.495 159.847,101.959 159.769,102.396 159.883 C 102.833 159.997,103.085 160.263,102.955 160.473 C 102.825 160.683,102.458 160.754,102.139 160.632 C 101.802 160.503,101.665 160.582,101.813 160.821 C 101.953 161.047,102.457 161.113,102.934 160.967 C 103.410 160.820,103.710 160.774,103.600 160.863 C 102.211 161.995,102.141 161.991,100.968 160.708 C 100.326 160.005,100.099 159.657,100.464 159.935 C 100.864 160.238,101.223 160.287,101.365 160.057 M101.753 163.168 C 101.537 163.401,99.600 161.544,99.600 161.105 C 99.600 160.910,100.119 161.256,100.754 161.875 C 101.389 162.494,101.838 163.076,101.753 163.168 M114.926 169.640 C 115.179 170.607,114.997 170.597,113.985 169.585 C 113.537 169.137,112.970 168.895,112.724 169.047 C 112.473 169.202,112.387 169.144,112.529 168.915 C 112.930 168.266,114.708 168.803,114.926 169.640 M206.522 175.458 C 206.375 175.842,206.535 176.309,206.906 176.581 C 207.339 176.898,207.426 177.230,207.177 177.623 C 206.873 178.103,206.811 178.087,206.806 177.524 C 206.800 176.799,206.096 176.170,205.716 176.550 C 205.590 176.677,205.700 177.039,205.962 177.355 C 206.296 177.756,206.310 178.009,206.010 178.194 C 205.773 178.340,205.630 178.232,205.690 177.953 C 205.751 177.675,205.485 177.379,205.100 177.294 C 204.665 177.199,204.400 177.380,204.400 177.771 C 204.400 178.117,204.199 178.400,203.954 178.400 C 203.386 178.400,204.602 176.442,205.750 175.509 C 206.805 174.651,206.833 174.649,206.522 175.458 M195.210 176.100 C 195.896 176.833,195.940 177.023,195.448 177.125 C 195.116 177.194,194.895 177.464,194.957 177.725 C 195.018 177.986,194.993 178.064,194.900 177.898 C 194.808 177.731,194.522 177.721,194.266 177.874 C 193.963 178.056,193.977 177.935,194.305 177.530 C 194.717 177.021,194.698 176.813,194.205 176.404 C 193.872 176.128,193.600 175.744,193.600 175.551 C 193.600 174.924,194.349 175.179,195.210 176.100 M192.800 176.400 C 192.260 176.749,192.510 176.972,193.300 176.847 C 193.465 176.821,193.600 177.070,193.600 177.400 C 193.600 178.189,192.951 178.171,192.646 177.375 C 192.502 177.000,192.204 176.871,191.903 177.051 C 191.556 177.260,191.570 177.144,191.949 176.677 C 192.251 176.305,192.701 176.003,192.949 176.006 C 193.197 176.009,193.130 176.187,192.800 176.400 M202.702 181.100 C 202.824 181.469,202.204 181.582,200.333 181.533 L 197.800 181.466 200.200 181.218 C 201.875 181.046,202.298 180.903,201.600 180.747 L 200.600 180.523 201.569 180.561 C 202.102 180.583,202.612 180.825,202.702 181.100 M151.641 197.966 C 151.188 198.253,151.237 198.416,151.901 198.831 C 152.352 199.112,152.632 199.573,152.524 199.854 C 152.386 200.214,152.014 200.072,151.264 199.373 C 150.218 198.397,150.457 197.612,151.800 197.612 C 152.020 197.612,151.949 197.771,151.641 197.966 M236.239 206.368 C 237.058 205.688,236.926 206.162,236.084 206.924 C 235.417 207.528,235.365 207.511,235.325 206.686 C 235.301 206.199,235.371 206.033,235.480 206.317 C 235.632 206.714,235.808 206.725,236.239 206.368 M56.245 303.123 C 56.270 303.594,56.132 303.881,55.938 303.762 C 55.745 303.642,55.703 303.357,55.845 303.128 C 55.986 302.898,55.854 302.537,55.551 302.325 C 55.098 302.008,55.107 301.968,55.600 302.103 C 55.930 302.193,56.220 302.652,56.245 303.123 " stroke="none" fill="#444444" fill-rule="evenodd"></path><path id="path1" d="M115.156 116.753 C 115.682 117.157,116.443 117.918,116.847 118.444 C 117.251 118.970,117.586 119.189,117.591 118.931 C 117.596 118.673,117.046 117.908,116.369 117.231 C 115.692 116.554,114.927 116.004,114.669 116.009 C 114.411 116.014,114.630 116.349,115.156 116.753 M118.602 122.803 C 118.895 123.277,119.873 123.329,120.148 122.885 C 120.255 122.712,119.895 122.533,119.349 122.488 C 118.777 122.440,118.460 122.574,118.602 122.803 M255.800 137.919 C 254.154 139.343,253.906 139.882,254.792 140.114 C 255.237 140.230,255.513 140.183,255.405 140.008 C 255.297 139.833,255.456 139.486,255.758 139.235 C 256.179 138.886,256.361 138.922,256.541 139.390 C 256.670 139.725,256.973 140.000,257.216 140.000 C 257.459 140.000,257.360 139.703,256.998 139.340 C 256.635 138.978,256.425 138.348,256.531 137.940 C 256.638 137.533,256.697 137.206,256.663 137.213 C 256.628 137.221,256.240 137.538,255.800 137.919 M318.800 218.880 C 318.690 258.194,318.735 290.225,318.901 290.059 C 319.067 289.893,319.157 257.727,319.101 218.579 L 319.000 147.400 318.800 218.880 M100.968 160.708 C 102.141 161.991,102.211 161.995,103.600 160.863 C 103.710 160.774,103.410 160.820,102.934 160.967 C 102.457 161.113,101.953 161.047,101.813 160.821 C 101.665 160.582,101.802 160.503,102.139 160.632 C 102.458 160.754,102.825 160.683,102.955 160.473 C 103.085 160.263,102.833 159.997,102.396 159.883 C 101.959 159.769,101.495 159.847,101.365 160.057 C 101.223 160.287,100.864 160.238,100.464 159.935 C 100.099 159.657,100.326 160.005,100.968 160.708 M99.600 161.105 C 99.600 161.544,101.537 163.401,101.753 163.168 C 101.838 163.076,101.389 162.494,100.754 161.875 C 100.119 161.256,99.600 160.910,99.600 161.105 M112.529 168.915 C 112.387 169.144,112.473 169.202,112.724 169.047 C 112.970 168.895,113.537 169.137,113.985 169.585 C 114.997 170.597,115.179 170.607,114.926 169.640 C 114.708 168.803,112.930 168.266,112.529 168.915 M205.750 175.509 C 204.602 176.442,203.386 178.400,203.954 178.400 C 204.199 178.400,204.400 178.117,204.400 177.771 C 204.400 177.380,204.665 177.199,205.100 177.294 C 205.485 177.379,205.751 177.675,205.690 177.953 C 205.630 178.232,205.773 178.340,206.010 178.194 C 206.310 178.009,206.296 177.756,205.962 177.355 C 205.700 177.039,205.590 176.677,205.716 176.550 C 206.096 176.170,206.800 176.799,206.806 177.524 C 206.811 178.087,206.873 178.103,207.177 177.623 C 207.426 177.230,207.339 176.898,206.906 176.581 C 206.535 176.309,206.375 175.842,206.522 175.458 C 206.833 174.649,206.805 174.651,205.750 175.509 M193.600 175.551 C 193.600 175.744,193.872 176.128,194.205 176.404 C 194.698 176.813,194.717 177.021,194.305 177.530 C 193.977 177.935,193.963 178.056,194.266 177.874 C 194.522 177.721,194.808 177.731,194.900 177.898 C 194.993 178.064,195.018 177.986,194.957 177.725 C 194.895 177.464,195.116 177.194,195.448 177.125 C 195.940 177.023,195.896 176.833,195.210 176.100 C 194.349 175.179,193.600 174.924,193.600 175.551 M191.949 176.677 C 191.570 177.144,191.556 177.260,191.903 177.051 C 192.204 176.871,192.502 177.000,192.646 177.375 C 192.951 178.171,193.600 178.189,193.600 177.400 C 193.600 177.070,193.465 176.821,193.300 176.847 C 192.510 176.972,192.260 176.749,192.800 176.400 C 193.130 176.187,193.197 176.009,192.949 176.006 C 192.701 176.003,192.251 176.305,191.949 176.677 M201.600 180.747 C 202.298 180.903,201.875 181.046,200.200 181.218 L 197.800 181.466 200.333 181.533 C 202.204 181.582,202.824 181.469,202.702 181.100 C 202.612 180.825,202.102 180.583,201.569 180.561 L 200.600 180.523 201.600 180.747 M150.800 197.996 C 150.293 198.320,150.365 198.534,151.264 199.373 C 152.014 200.072,152.386 200.214,152.524 199.854 C 152.632 199.573,152.352 199.112,151.901 198.831 C 151.237 198.416,151.188 198.253,151.641 197.966 C 151.949 197.771,152.020 197.612,151.800 197.612 C 151.580 197.612,151.130 197.785,150.800 197.996 M235.325 206.686 C 235.365 207.511,235.417 207.528,236.084 206.924 C 236.926 206.162,237.058 205.688,236.239 206.368 C 235.808 206.725,235.632 206.714,235.480 206.317 C 235.371 206.033,235.301 206.199,235.325 206.686 M55.551 302.325 C 55.854 302.537,55.986 302.898,55.845 303.128 C 55.703 303.357,55.745 303.642,55.938 303.762 C 56.132 303.881,56.270 303.594,56.245 303.123 C 56.220 302.652,55.930 302.193,55.600 302.103 C 55.107 301.968,55.098 302.008,55.551 302.325 " stroke="none" fill="#484444" fill-rule="evenodd"></path><path id="path2" d="M115.156 116.753 C 115.682 117.157,116.443 117.918,116.847 118.444 C 117.251 118.970,117.586 119.189,117.591 118.931 C 117.596 118.673,117.046 117.908,116.369 117.231 C 115.692 116.554,114.927 116.004,114.669 116.009 C 114.411 116.014,114.630 116.349,115.156 116.753 M118.602 122.803 C 118.895 123.277,119.873 123.329,120.148 122.885 C 120.255 122.712,119.895 122.533,119.349 122.488 C 118.777 122.440,118.460 122.574,118.602 122.803 M255.800 137.919 C 254.154 139.343,253.906 139.882,254.792 140.114 C 255.237 140.230,255.513 140.183,255.405 140.008 C 255.297 139.833,255.456 139.486,255.758 139.235 C 256.179 138.886,256.361 138.922,256.541 139.390 C 256.670 139.725,256.973 140.000,257.216 140.000 C 257.459 140.000,257.360 139.703,256.998 139.340 C 256.635 138.978,256.425 138.348,256.531 137.940 C 256.638 137.533,256.697 137.206,256.663 137.213 C 256.628 137.221,256.240 137.538,255.800 137.919 M318.800 218.880 C 318.690 258.194,318.735 290.225,318.901 290.059 C 319.067 289.893,319.157 257.727,319.101 218.579 L 319.000 147.400 318.800 218.880 M100.968 160.708 C 102.141 161.991,102.211 161.995,103.600 160.863 C 103.710 160.774,103.410 160.820,102.934 160.967 C 102.457 161.113,101.953 161.047,101.813 160.821 C 101.665 160.582,101.802 160.503,102.139 160.632 C 102.458 160.754,102.825 160.683,102.955 160.473 C 103.085 160.263,102.833 159.997,102.396 159.883 C 101.959 159.769,101.495 159.847,101.365 160.057 C 101.223 160.287,100.864 160.238,100.464 159.935 C 100.099 159.657,100.326 160.005,100.968 160.708 M99.600 161.105 C 99.600 161.544,101.537 163.401,101.753 163.168 C 101.838 163.076,101.389 162.494,100.754 161.875 C 100.119 161.256,99.600 160.910,99.600 161.105 M112.529 168.915 C 112.387 169.144,112.473 169.202,112.724 169.047 C 112.970 168.895,113.537 169.137,113.985 169.585 C 114.997 170.597,115.179 170.607,114.926 169.640 C 114.708 168.803,112.930 168.266,112.529 168.915 M205.750 175.509 C 204.602 176.442,203.386 178.400,203.954 178.400 C 204.199 178.400,204.400 178.117,204.400 177.771 C 204.400 177.380,204.665 177.199,205.100 177.294 C 205.485 177.379,205.751 177.675,205.690 177.953 C 205.630 178.232,205.773 178.340,206.010 178.194 C 206.310 178.009,206.296 177.756,205.962 177.355 C 205.700 177.039,205.590 176.677,205.716 176.550 C 206.096 176.170,206.800 176.799,206.806 177.524 C 206.811 178.087,206.873 178.103,207.177 177.623 C 207.426 177.230,207.339 176.898,206.906 176.581 C 206.535 176.309,206.375 175.842,206.522 175.458 C 206.833 174.649,206.805 174.651,205.750 175.509 M193.600 175.551 C 193.600 175.744,193.872 176.128,194.205 176.404 C 194.698 176.813,194.717 177.021,194.305 177.530 C 193.977 177.935,193.963 178.056,194.266 177.874 C 194.522 177.721,194.808 177.731,194.900 177.898 C 194.993 178.064,195.018 177.986,194.957 177.725 C 194.895 177.464,195.116 177.194,195.448 177.125 C 195.940 177.023,195.896 176.833,195.210 176.100 C 194.349 175.179,193.600 174.924,193.600 175.551 M191.949 176.677 C 191.570 177.144,191.556 177.260,191.903 177.051 C 192.204 176.871,192.502 177.000,192.646 177.375 C 192.951 178.171,193.600 178.189,193.600 177.400 C 193.600 177.070,193.465 176.821,193.300 176.847 C 192.510 176.972,192.260 176.749,192.800 176.400 C 193.130 176.187,193.197 176.009,192.949 176.006 C 192.701 176.003,192.251 176.305,191.949 176.677 M201.600 180.747 C 202.298 180.903,201.875 181.046,200.200 181.218 L 197.800 181.466 200.333 181.533 C 202.204 181.582,202.824 181.469,202.702 181.100 C 202.612 180.825,202.102 180.583,201.569 180.561 L 200.600 180.523 201.600 180.747 M150.800 197.996 C 150.293 198.320,150.365 198.534,151.264 199.373 C 152.014 200.072,152.386 200.214,152.524 199.854 C 152.632 199.573,152.352 199.112,151.901 198.831 C 151.237 198.416,151.188 198.253,151.641 197.966 C 151.949 197.771,152.020 197.612,151.800 197.612 C 151.580 197.612,151.130 197.785,150.800 197.996 M235.325 206.686 C 235.365 207.511,235.417 207.528,236.084 206.924 C 236.926 206.162,237.058 205.688,236.239 206.368 C 235.808 206.725,235.632 206.714,235.480 206.317 C 235.371 206.033,235.301 206.199,235.325 206.686 M55.551 302.325 C 55.854 302.537,55.986 302.898,55.845 303.128 C 55.703 303.357,55.745 303.642,55.938 303.762 C 56.132 303.881,56.270 303.594,56.245 303.123 C 56.220 302.652,55.930 302.193,55.600 302.103 C 55.107 301.968,55.098 302.008,55.551 302.325 " stroke="none" fill="#484444" fill-rule="evenodd"></path><path id="path3" d="M115.156 116.753 C 115.682 117.157,116.443 117.918,116.847 118.444 C 117.251 118.970,117.586 119.189,117.591 118.931 C 117.596 118.673,117.046 117.908,116.369 117.231 C 115.692 116.554,114.927 116.004,114.669 116.009 C 114.411 116.014,114.630 116.349,115.156 116.753 M118.602 122.803 C 118.895 123.277,119.873 123.329,120.148 122.885 C 120.255 122.712,119.895 122.533,119.349 122.488 C 118.777 122.440,118.460 122.574,118.602 122.803 M255.800 137.919 C 254.154 139.343,253.906 139.882,254.792 140.114 C 255.237 140.230,255.513 140.183,255.405 140.008 C 255.297 139.833,255.456 139.486,255.758 139.235 C 256.179 138.886,256.361 138.922,256.541 139.390 C 256.670 139.725,256.973 140.000,257.216 140.000 C 257.459 140.000,257.360 139.703,256.998 139.340 C 256.635 138.978,256.425 138.348,256.531 137.940 C 256.638 137.533,256.697 137.206,256.663 137.213 C 256.628 137.221,256.240 137.538,255.800 137.919 M318.800 218.880 C 318.690 258.194,318.735 290.225,318.901 290.059 C 319.067 289.893,319.157 257.727,319.101 218.579 L 319.000 147.400 318.800 218.880 M100.968 160.708 C 102.141 161.991,102.211 161.995,103.600 160.863 C 103.710 160.774,103.410 160.820,102.934 160.967 C 102.457 161.113,101.953 161.047,101.813 160.821 C 101.665 160.582,101.802 160.503,102.139 160.632 C 102.458 160.754,102.825 160.683,102.955 160.473 C 103.085 160.263,102.833 159.997,102.396 159.883 C 101.959 159.769,101.495 159.847,101.365 160.057 C 101.223 160.287,100.864 160.238,100.464 159.935 C 100.099 159.657,100.326 160.005,100.968 160.708 M99.600 161.105 C 99.600 161.544,101.537 163.401,101.753 163.168 C 101.838 163.076,101.389 162.494,100.754 161.875 C 100.119 161.256,99.600 160.910,99.600 161.105 M112.529 168.915 C 112.387 169.144,112.473 169.202,112.724 169.047 C 112.970 168.895,113.537 169.137,113.985 169.585 C 114.997 170.597,115.179 170.607,114.926 169.640 C 114.708 168.803,112.930 168.266,112.529 168.915 M205.750 175.509 C 204.602 176.442,203.386 178.400,203.954 178.400 C 204.199 178.400,204.400 178.117,204.400 177.771 C 204.400 177.380,204.665 177.199,205.100 177.294 C 205.485 177.379,205.751 177.675,205.690 177.953 C 205.630 178.232,205.773 178.340,206.010 178.194 C 206.310 178.009,206.296 177.756,205.962 177.355 C 205.700 177.039,205.590 176.677,205.716 176.550 C 206.096 176.170,206.800 176.799,206.806 177.524 C 206.811 178.087,206.873 178.103,207.177 177.623 C 207.426 177.230,207.339 176.898,206.906 176.581 C 206.535 176.309,206.375 175.842,206.522 175.458 C 206.833 174.649,206.805 174.651,205.750 175.509 M193.600 175.551 C 193.600 175.744,193.872 176.128,194.205 176.404 C 194.698 176.813,194.717 177.021,194.305 177.530 C 193.977 177.935,193.963 178.056,194.266 177.874 C 194.522 177.721,194.808 177.731,194.900 177.898 C 194.993 178.064,195.018 177.986,194.957 177.725 C 194.895 177.464,195.116 177.194,195.448 177.125 C 195.940 177.023,195.896 176.833,195.210 176.100 C 194.349 175.179,193.600 174.924,193.600 175.551 M191.949 176.677 C 191.570 177.144,191.556 177.260,191.903 177.051 C 192.204 176.871,192.502 177.000,192.646 177.375 C 192.951 178.171,193.600 178.189,193.600 177.400 C 193.600 177.070,193.465 176.821,193.300 176.847 C 192.510 176.972,192.260 176.749,192.800 176.400 C 193.130 176.187,193.197 176.009,192.949 176.006 C 192.701 176.003,192.251 176.305,191.949 176.677 M201.600 180.747 C 202.298 180.903,201.875 181.046,200.200 181.218 L 197.800 181.466 200.333 181.533 C 202.204 181.582,202.824 181.469,202.702 181.100 C 202.612 180.825,202.102 180.583,201.569 180.561 L 200.600 180.523 201.600 180.747 M150.800 197.996 C 150.293 198.320,150.365 198.534,151.264 199.373 C 152.014 200.072,152.386 200.214,152.524 199.854 C 152.632 199.573,152.352 199.112,151.901 198.831 C 151.237 198.416,151.188 198.253,151.641 197.966 C 151.949 197.771,152.020 197.612,151.800 197.612 C 151.580 197.612,151.130 197.785,150.800 197.996 M235.325 206.686 C 235.365 207.511,235.417 207.528,236.084 206.924 C 236.926 206.162,237.058 205.688,236.239 206.368 C 235.808 206.725,235.632 206.714,235.480 206.317 C 235.371 206.033,235.301 206.199,235.325 206.686 M55.551 302.325 C 55.854 302.537,55.986 302.898,55.845 303.128 C 55.703 303.357,55.745 303.642,55.938 303.762 C 56.132 303.881,56.270 303.594,56.245 303.123 C 56.220 302.652,55.930 302.193,55.600 302.103 C 55.107 301.968,55.098 302.008,55.551 302.325 " stroke="none" fill="#484444" fill-rule="evenodd"></path><path id="path4" d="M115.156 116.753 C 115.682 117.157,116.443 117.918,116.847 118.444 C 117.251 118.970,117.586 119.189,117.591 118.931 C 117.596 118.673,117.046 117.908,116.369 117.231 C 115.692 116.554,114.927 116.004,114.669 116.009 C 114.411 116.014,114.630 116.349,115.156 116.753 M118.602 122.803 C 118.895 123.277,119.873 123.329,120.148 122.885 C 120.255 122.712,119.895 122.533,119.349 122.488 C 118.777 122.440,118.460 122.574,118.602 122.803 M255.800 137.919 C 254.154 139.343,253.906 139.882,254.792 140.114 C 255.237 140.230,255.513 140.183,255.405 140.008 C 255.297 139.833,255.456 139.486,255.758 139.235 C 256.179 138.886,256.361 138.922,256.541 139.390 C 256.670 139.725,256.973 140.000,257.216 140.000 C 257.459 140.000,257.360 139.703,256.998 139.340 C 256.635 138.978,256.425 138.348,256.531 137.940 C 256.638 137.533,256.697 137.206,256.663 137.213 C 256.628 137.221,256.240 137.538,255.800 137.919 M318.800 218.880 C 318.690 258.194,318.735 290.225,318.901 290.059 C 319.067 289.893,319.157 257.727,319.101 218.579 L 319.000 147.400 318.800 218.880 M100.968 160.708 C 102.141 161.991,102.211 161.995,103.600 160.863 C 103.710 160.774,103.410 160.820,102.934 160.967 C 102.457 161.113,101.953 161.047,101.813 160.821 C 101.665 160.582,101.802 160.503,102.139 160.632 C 102.458 160.754,102.825 160.683,102.955 160.473 C 103.085 160.263,102.833 159.997,102.396 159.883 C 101.959 159.769,101.495 159.847,101.365 160.057 C 101.223 160.287,100.864 160.238,100.464 159.935 C 100.099 159.657,100.326 160.005,100.968 160.708 M99.600 161.105 C 99.600 161.544,101.537 163.401,101.753 163.168 C 101.838 163.076,101.389 162.494,100.754 161.875 C 100.119 161.256,99.600 160.910,99.600 161.105 M112.529 168.915 C 112.387 169.144,112.473 169.202,112.724 169.047 C 112.970 168.895,113.537 169.137,113.985 169.585 C 114.997 170.597,115.179 170.607,114.926 169.640 C 114.708 168.803,112.930 168.266,112.529 168.915 M205.750 175.509 C 204.602 176.442,203.386 178.400,203.954 178.400 C 204.199 178.400,204.400 178.117,204.400 177.771 C 204.400 177.380,204.665 177.199,205.100 177.294 C 205.485 177.379,205.751 177.675,205.690 177.953 C 205.630 178.232,205.773 178.340,206.010 178.194 C 206.310 178.009,206.296 177.756,205.962 177.355 C 205.700 177.039,205.590 176.677,205.716 176.550 C 206.096 176.170,206.800 176.799,206.806 177.524 C 206.811 178.087,206.873 178.103,207.177 177.623 C 207.426 177.230,207.339 176.898,206.906 176.581 C 206.535 176.309,206.375 175.842,206.522 175.458 C 206.833 174.649,206.805 174.651,205.750 175.509 M193.600 175.551 C 193.600 175.744,193.872 176.128,194.205 176.404 C 194.698 176.813,194.717 177.021,194.305 177.530 C 193.977 177.935,193.963 178.056,194.266 177.874 C 194.522 177.721,194.808 177.731,194.900 177.898 C 194.993 178.064,195.018 177.986,194.957 177.725 C 194.895 177.464,195.116 177.194,195.448 177.125 C 195.940 177.023,195.896 176.833,195.210 176.100 C 194.349 175.179,193.600 174.924,193.600 175.551 M191.949 176.677 C 191.570 177.144,191.556 177.260,191.903 177.051 C 192.204 176.871,192.502 177.000,192.646 177.375 C 192.951 178.171,193.600 178.189,193.600 177.400 C 193.600 177.070,193.465 176.821,193.300 176.847 C 192.510 176.972,192.260 176.749,192.800 176.400 C 193.130 176.187,193.197 176.009,192.949 176.006 C 192.701 176.003,192.251 176.305,191.949 176.677 M201.600 180.747 C 202.298 180.903,201.875 181.046,200.200 181.218 L 197.800 181.466 200.333 181.533 C 202.204 181.582,202.824 181.469,202.702 181.100 C 202.612 180.825,202.102 180.583,201.569 180.561 L 200.600 180.523 201.600 180.747 M150.800 197.996 C 150.293 198.320,150.365 198.534,151.264 199.373 C 152.014 200.072,152.386 200.214,152.524 199.854 C 152.632 199.573,152.352 199.112,151.901 198.831 C 151.237 198.416,151.188 198.253,151.641 197.966 C 151.949 197.771,152.020 197.612,151.800 197.612 C 151.580 197.612,151.130 197.785,150.800 197.996 M235.325 206.686 C 235.365 207.511,235.417 207.528,236.084 206.924 C 236.926 206.162,237.058 205.688,236.239 206.368 C 235.808 206.725,235.632 206.714,235.480 206.317 C 235.371 206.033,235.301 206.199,235.325 206.686 M55.551 302.325 C 55.854 302.537,55.986 302.898,55.845 303.128 C 55.703 303.357,55.745 303.642,55.938 303.762 C 56.132 303.881,56.270 303.594,56.245 303.123 C 56.220 302.652,55.930 302.193,55.600 302.103 C 55.107 301.968,55.098 302.008,55.551 302.325 " stroke="none" fill="#484444" fill-rule="evenodd"></path></g></svg>