<svg id="svg" version="1.1" xmlns="http://www.w3.org/2000/svg" xmlns:xlink="http://www.w3.org/1999/xlink" width="400" height="400" viewBox="0, 0, 400,400"><g id="svgg"><path id="path0" d="M187.200 8.000 C 187.200 8.243,185.400 8.400,182.600 8.400 C 179.800 8.400,178.000 8.557,178.000 8.800 C 178.000 9.033,176.667 9.200,174.800 9.200 C 173.040 9.200,171.600 9.354,171.600 9.543 C 171.600 9.732,169.579 10.014,167.108 10.170 C 164.638 10.327,162.433 10.603,162.208 10.784 C 161.984 10.966,160.990 11.218,160.000 11.344 C 155.991 11.857,154.785 12.101,154.574 12.442 C 154.452 12.639,153.654 12.800,152.800 12.800 C 151.946 12.800,151.136 12.980,151.000 13.200 C 150.864 13.420,150.144 13.600,149.400 13.600 C 148.656 13.600,147.936 13.780,147.800 14.000 C 147.664 14.220,147.034 14.400,146.400 14.400 C 145.766 14.400,145.136 14.580,145.000 14.800 C 144.864 15.020,144.133 15.200,143.376 15.200 C 142.619 15.200,142.000 15.380,142.000 15.600 C 142.000 15.820,141.460 16.000,140.800 16.000 C 140.140 16.000,139.600 16.180,139.600 16.400 C 139.600 16.620,139.071 16.800,138.424 16.800 C 137.777 16.800,137.136 16.980,137.000 17.200 C 136.864 17.420,136.234 17.600,135.600 17.600 C 134.966 17.600,134.336 17.780,134.200 18.000 C 134.064 18.220,133.601 18.400,133.171 18.400 C 132.741 18.400,132.077 18.559,131.695 18.753 C 131.313 18.948,130.460 19.329,129.800 19.600 C 129.140 19.871,128.287 20.252,127.905 20.447 C 127.523 20.641,126.848 20.800,126.405 20.800 C 125.962 20.800,125.600 20.980,125.600 21.200 C 125.600 21.420,125.161 21.600,124.624 21.600 C 124.087 21.600,123.536 21.780,123.400 22.000 C 123.264 22.220,122.803 22.400,122.376 22.400 C 121.949 22.400,121.600 22.580,121.600 22.800 C 121.600 23.020,121.251 23.200,120.824 23.200 C 120.397 23.200,119.936 23.380,119.800 23.600 C 119.664 23.820,119.113 24.000,118.576 24.000 C 118.039 24.000,117.600 24.180,117.600 24.400 C 117.600 24.620,117.240 24.800,116.800 24.800 C 116.360 24.800,116.000 24.980,116.000 25.200 C 116.000 25.420,115.651 25.600,115.224 25.600 C 114.797 25.600,114.336 25.780,114.200 26.000 C 114.064 26.220,113.603 26.400,113.176 26.400 C 112.749 26.400,112.400 26.564,112.400 26.765 C 112.400 26.966,111.680 27.251,110.800 27.400 C 109.920 27.549,109.199 27.789,109.197 27.935 C 109.193 28.267,107.219 29.200,106.520 29.200 C 106.234 29.200,106.000 29.380,106.000 29.600 C 106.000 29.820,105.655 30.000,105.233 30.000 C 104.812 30.000,104.407 30.136,104.333 30.302 C 104.260 30.468,102.985 31.215,101.500 31.962 C 100.015 32.709,98.800 33.473,98.800 33.660 C 98.800 33.847,98.440 34.000,98.000 34.000 C 97.560 34.000,97.200 34.146,97.200 34.325 C 97.200 34.504,96.570 34.898,95.800 35.200 C 95.030 35.502,94.400 35.874,94.400 36.026 C 94.400 36.178,93.860 36.527,93.200 36.800 C 92.540 37.073,92.000 37.455,92.000 37.649 C 92.000 37.842,91.680 38.000,91.288 38.000 C 90.897 38.000,90.317 38.360,90.000 38.800 C 89.683 39.240,89.103 39.600,88.712 39.600 C 88.320 39.600,88.000 39.780,88.000 40.000 C 88.000 40.220,87.764 40.400,87.475 40.400 C 87.187 40.400,86.564 40.760,86.092 41.200 C 85.620 41.640,85.022 42.000,84.764 42.000 C 84.505 42.000,84.003 42.319,83.647 42.709 C 83.291 43.099,82.550 43.617,82.000 43.859 C 80.827 44.375,76.090 47.854,75.153 48.887 C 74.797 49.279,74.284 49.600,74.014 49.600 C 73.743 49.600,73.017 50.140,72.400 50.800 C 71.783 51.460,71.067 52.000,70.808 52.000 C 70.549 52.000,69.646 52.720,68.800 53.600 C 67.954 54.480,67.087 55.200,66.872 55.200 C 66.657 55.200,65.602 56.055,64.527 57.100 C 63.453 58.145,61.892 59.514,61.059 60.142 C 59.235 61.517,46.449 74.285,45.600 75.580 C 45.270 76.084,44.366 77.149,43.592 77.948 C 42.818 78.746,41.745 80.030,41.207 80.800 C 40.670 81.570,39.729 82.677,39.115 83.260 C 38.502 83.844,38.000 84.492,38.000 84.701 C 38.000 84.910,37.460 85.646,36.800 86.337 C 36.140 87.028,35.600 87.748,35.600 87.937 C 35.600 88.126,35.060 88.846,34.400 89.537 C 33.740 90.228,33.200 91.025,33.200 91.308 C 33.200 91.591,32.840 92.083,32.400 92.400 C 31.960 92.717,31.600 93.207,31.600 93.488 C 31.600 93.770,31.450 94.000,31.268 94.000 C 31.085 94.000,30.680 94.495,30.368 95.100 C 30.055 95.705,29.485 96.549,29.100 96.975 C 28.715 97.402,28.400 97.987,28.400 98.275 C 28.400 98.564,28.223 98.800,28.008 98.800 C 27.792 98.800,27.493 99.289,27.343 99.887 C 27.193 100.484,26.739 101.328,26.335 101.762 C 25.931 102.196,25.600 102.787,25.600 103.075 C 25.600 103.364,25.420 103.600,25.200 103.600 C 24.980 103.600,24.800 103.960,24.800 104.400 C 24.800 104.840,24.620 105.200,24.400 105.200 C 24.180 105.200,24.000 105.436,24.000 105.725 C 24.000 106.013,23.640 106.636,23.200 107.108 C 22.760 107.580,22.400 108.244,22.400 108.583 C 22.400 108.922,22.265 109.201,22.100 109.201 C 21.935 109.202,21.350 110.192,20.800 111.400 C 20.250 112.608,19.665 113.598,19.500 113.599 C 19.335 113.599,19.200 113.960,19.200 114.400 C 19.200 114.840,19.020 115.200,18.800 115.200 C 18.580 115.200,18.400 115.560,18.400 116.000 C 18.400 116.440,18.220 116.800,18.000 116.800 C 17.780 116.800,17.600 117.160,17.600 117.600 C 17.600 118.040,17.420 118.400,17.200 118.400 C 16.980 118.400,16.800 118.760,16.800 119.200 C 16.800 119.640,16.620 120.000,16.400 120.000 C 16.180 120.000,16.000 120.349,16.000 120.776 C 16.000 121.203,15.820 121.664,15.600 121.800 C 15.380 121.936,15.200 122.487,15.200 123.024 C 15.200 123.561,15.020 124.000,14.800 124.000 C 14.580 124.000,14.400 124.360,14.400 124.800 C 14.400 125.240,14.220 125.600,14.000 125.600 C 13.780 125.600,13.600 125.872,13.600 126.205 C 13.600 126.538,13.441 127.123,13.247 127.505 C 13.052 127.887,12.716 128.650,12.500 129.200 C 11.832 130.901,11.122 132.570,10.772 133.265 C 10.588 133.631,10.315 134.846,10.167 135.965 C 10.018 137.084,9.740 138.000,9.548 138.000 C 9.357 138.000,9.200 138.540,9.200 139.200 C 9.200 139.860,9.020 140.400,8.800 140.400 C 8.580 140.400,8.400 140.940,8.400 141.600 C 8.400 142.260,8.220 142.800,8.000 142.800 C 7.780 142.800,7.600 143.340,7.600 144.000 C 7.600 144.660,7.420 145.200,7.200 145.200 C 6.980 145.200,6.800 145.830,6.800 146.600 C 6.800 147.370,6.620 148.000,6.400 148.000 C 6.180 148.000,6.000 148.720,6.000 149.600 C 6.000 150.480,5.820 151.200,5.600 151.200 C 5.380 151.200,5.200 151.819,5.200 152.576 C 5.200 153.333,5.020 154.064,4.800 154.200 C 4.580 154.336,4.400 155.157,4.400 156.024 C 4.400 156.891,4.220 157.600,4.000 157.600 C 3.780 157.600,3.600 158.399,3.600 159.376 C 3.600 160.353,3.420 161.264,3.200 161.400 C 2.980 161.536,2.800 162.447,2.800 163.424 C 2.800 164.401,2.620 165.200,2.400 165.200 C 2.178 165.200,2.000 166.267,2.000 167.600 C 2.000 168.933,1.822 170.000,1.600 170.000 C 1.373 170.000,1.200 171.173,1.200 172.720 C 1.200 174.363,1.002 175.638,0.700 175.940 C -0.031 176.671,-0.031 225.657,0.700 225.900 C 1.030 226.010,1.200 226.931,1.200 228.610 C 1.200 230.008,1.380 231.264,1.600 231.400 C 1.820 231.536,2.000 232.717,2.000 234.024 C 2.000 235.341,2.178 236.400,2.400 236.400 C 2.620 236.400,2.800 237.199,2.800 238.176 C 2.800 239.153,2.980 240.064,3.200 240.200 C 3.420 240.336,3.600 241.247,3.600 242.224 C 3.600 243.201,3.780 244.000,4.000 244.000 C 4.220 244.000,4.400 244.799,4.400 245.776 C 4.400 246.753,4.580 247.664,4.800 247.800 C 5.020 247.936,5.200 248.757,5.200 249.624 C 5.200 250.491,5.380 251.200,5.600 251.200 C 5.820 251.200,6.000 251.830,6.000 252.600 C 6.000 253.370,6.180 254.000,6.400 254.000 C 6.620 254.000,6.800 254.529,6.800 255.176 C 6.800 255.823,6.980 256.464,7.200 256.600 C 7.420 256.736,7.600 257.467,7.600 258.224 C 7.600 258.981,7.780 259.600,8.000 259.600 C 8.220 259.600,8.400 260.140,8.400 260.800 C 8.400 261.460,8.580 262.000,8.800 262.000 C 9.020 262.000,9.200 262.540,9.200 263.200 C 9.200 263.860,9.356 264.400,9.546 264.400 C 9.736 264.400,10.002 265.206,10.137 266.191 C 10.272 267.176,10.545 268.301,10.744 268.691 C 10.944 269.081,11.329 269.940,11.600 270.600 C 11.871 271.260,12.252 272.113,12.447 272.495 C 12.641 272.877,12.800 273.541,12.800 273.971 C 12.800 274.401,12.980 274.864,13.200 275.000 C 13.420 275.136,13.600 275.597,13.600 276.024 C 13.600 276.451,13.780 276.800,14.000 276.800 C 14.220 276.800,14.400 277.160,14.400 277.600 C 14.400 278.040,14.547 278.400,14.728 278.400 C 14.908 278.400,15.300 279.300,15.600 280.400 C 15.900 281.500,16.292 282.400,16.472 282.400 C 16.653 282.400,16.800 282.760,16.800 283.200 C 16.800 283.640,16.980 284.000,17.200 284.000 C 17.420 284.000,17.600 284.360,17.600 284.800 C 17.600 285.240,17.780 285.600,18.000 285.600 C 18.220 285.600,18.400 285.960,18.400 286.400 C 18.400 286.840,18.580 287.200,18.800 287.200 C 19.020 287.200,19.200 287.560,19.200 288.000 C 19.200 288.440,19.346 288.800,19.525 288.800 C 19.704 288.800,20.098 289.430,20.400 290.200 C 20.702 290.970,21.096 291.600,21.275 291.600 C 21.454 291.600,21.600 291.960,21.600 292.400 C 21.600 292.840,21.780 293.200,22.000 293.200 C 22.220 293.200,22.400 293.478,22.400 293.817 C 22.400 294.156,22.760 294.820,23.200 295.292 C 23.640 295.764,24.000 296.387,24.000 296.675 C 24.000 296.964,24.180 297.200,24.400 297.200 C 24.620 297.200,24.800 297.560,24.800 298.000 C 24.800 298.440,24.980 298.800,25.200 298.800 C 25.420 298.800,25.600 299.036,25.600 299.325 C 25.600 299.613,25.960 300.236,26.400 300.708 C 26.840 301.180,27.200 301.831,27.200 302.155 C 27.200 302.478,27.425 302.981,27.700 303.271 C 27.975 303.562,28.455 304.295,28.768 304.900 C 29.080 305.505,29.485 306.000,29.668 306.000 C 29.850 306.000,30.000 306.242,30.000 306.538 C 30.000 306.834,30.360 307.402,30.800 307.800 C 31.240 308.198,31.600 308.726,31.600 308.974 C 31.600 309.221,31.960 309.683,32.400 310.000 C 32.840 310.317,33.200 310.809,33.200 311.092 C 33.200 311.375,33.740 312.172,34.400 312.863 C 35.060 313.554,35.600 314.290,35.600 314.499 C 35.600 314.708,36.140 315.383,36.800 316.000 C 37.460 316.617,38.000 317.337,38.000 317.600 C 38.000 317.863,38.502 318.556,39.115 319.140 C 39.729 319.723,40.665 320.830,41.196 321.600 C 41.728 322.370,42.447 323.270,42.795 323.600 C 43.143 323.930,44.142 325.095,45.014 326.188 C 47.555 329.373,61.551 343.200,62.234 343.200 C 62.360 343.200,63.124 343.881,63.931 344.713 C 64.739 345.545,66.030 346.663,66.800 347.197 C 67.570 347.732,68.677 348.671,69.260 349.285 C 69.844 349.898,70.537 350.400,70.800 350.400 C 71.063 350.400,71.783 350.940,72.400 351.600 C 73.017 352.260,73.743 352.800,74.014 352.800 C 74.284 352.800,74.797 353.128,75.153 353.529 C 75.509 353.930,77.330 355.278,79.200 356.525 C 81.070 357.772,82.817 358.974,83.083 359.196 C 83.349 359.418,83.761 359.600,84.000 359.600 C 84.238 359.600,84.820 359.960,85.292 360.400 C 85.764 360.840,86.387 361.200,86.675 361.200 C 86.964 361.200,87.200 361.380,87.200 361.600 C 87.200 361.820,87.520 362.000,87.912 362.000 C 88.303 362.000,88.883 362.360,89.200 362.800 C 89.517 363.240,90.097 363.600,90.488 363.600 C 90.880 363.600,91.200 363.780,91.200 364.000 C 91.200 364.220,91.560 364.400,92.000 364.400 C 92.440 364.400,92.800 364.580,92.800 364.800 C 92.800 365.020,93.070 365.200,93.400 365.200 C 93.730 365.200,94.000 365.380,94.000 365.600 C 94.000 365.820,94.255 366.000,94.567 366.000 C 94.878 366.000,95.193 366.136,95.267 366.302 C 95.340 366.468,96.660 367.232,98.200 368.000 C 99.740 368.768,101.060 369.532,101.133 369.698 C 101.207 369.864,101.612 370.000,102.033 370.000 C 102.455 370.000,102.800 370.180,102.800 370.400 C 102.800 370.620,103.160 370.800,103.600 370.800 C 104.040 370.800,104.400 370.980,104.400 371.200 C 104.400 371.420,104.672 371.600,105.005 371.600 C 105.338 371.600,105.923 371.774,106.305 371.988 C 108.449 373.184,113.239 375.200,113.938 375.200 C 114.386 375.200,114.864 375.380,115.000 375.600 C 115.136 375.820,115.597 376.000,116.024 376.000 C 116.451 376.000,116.800 376.180,116.800 376.400 C 116.800 376.620,117.250 376.800,117.800 376.800 C 118.350 376.800,118.800 376.980,118.800 377.200 C 118.800 377.420,119.250 377.600,119.800 377.600 C 120.350 377.600,120.800 377.780,120.800 378.000 C 120.800 378.220,121.340 378.400,122.000 378.400 C 122.660 378.400,123.200 378.580,123.200 378.800 C 123.200 379.020,123.639 379.200,124.176 379.200 C 124.713 379.200,125.264 379.380,125.400 379.600 C 125.536 379.820,125.997 380.000,126.424 380.000 C 126.851 380.000,127.200 380.180,127.200 380.400 C 127.200 380.620,127.639 380.800,128.176 380.800 C 128.713 380.800,129.264 380.980,129.400 381.200 C 129.536 381.420,130.166 381.600,130.800 381.600 C 131.434 381.600,132.064 381.780,132.200 382.000 C 132.336 382.220,132.977 382.400,133.624 382.400 C 134.271 382.400,134.800 382.580,134.800 382.800 C 134.800 383.020,135.340 383.200,136.000 383.200 C 136.660 383.200,137.200 383.380,137.200 383.600 C 137.200 383.820,137.819 384.000,138.576 384.000 C 139.333 384.000,140.064 384.180,140.200 384.400 C 140.336 384.620,140.977 384.800,141.624 384.800 C 142.271 384.800,142.800 384.980,142.800 385.200 C 142.800 385.420,143.520 385.600,144.400 385.600 C 145.280 385.600,146.000 385.780,146.000 386.000 C 146.000 386.220,146.709 386.400,147.576 386.400 C 148.443 386.400,149.264 386.580,149.400 386.800 C 149.536 387.020,150.346 387.200,151.200 387.200 C 152.054 387.200,152.864 387.380,153.000 387.600 C 153.136 387.820,154.047 388.000,155.024 388.000 C 156.001 388.000,156.800 388.180,156.800 388.400 C 156.800 388.620,157.664 388.800,158.720 388.800 C 159.776 388.800,160.811 388.963,161.020 389.163 C 161.229 389.363,162.300 389.628,163.400 389.752 C 164.500 389.876,166.750 390.168,168.400 390.400 C 173.289 391.088,178.729 391.517,183.100 391.560 C 185.540 391.584,187.200 391.762,187.200 392.000 C 187.200 392.259,192.133 392.400,201.200 392.400 C 208.900 392.400,215.200 392.248,215.200 392.062 C 215.200 391.876,218.393 391.599,222.295 391.447 C 226.197 391.295,229.563 390.997,229.775 390.785 C 229.987 390.573,231.193 390.400,232.456 390.400 C 233.719 390.400,234.864 390.220,235.000 390.000 C 235.136 389.780,236.126 389.600,237.200 389.600 C 238.274 389.600,239.252 389.439,239.374 389.242 C 239.495 389.045,240.361 388.771,241.297 388.633 C 245.455 388.018,246.018 387.895,246.226 387.558 C 246.348 387.361,246.966 387.200,247.600 387.200 C 248.234 387.200,248.864 387.020,249.000 386.800 C 249.136 386.580,249.766 386.400,250.400 386.400 C 251.034 386.400,251.664 386.220,251.800 386.000 C 251.936 385.780,252.476 385.600,253.000 385.600 C 253.524 385.600,254.064 385.420,254.200 385.200 C 254.336 384.980,254.887 384.800,255.424 384.800 C 255.961 384.800,256.400 384.620,256.400 384.400 C 256.400 384.180,256.749 384.000,257.176 384.000 C 257.603 384.000,258.064 383.820,258.200 383.600 C 258.336 383.380,258.887 383.200,259.424 383.200 C 259.961 383.200,260.400 383.020,260.400 382.800 C 260.400 382.580,260.760 382.400,261.200 382.400 C 261.640 382.400,262.000 382.220,262.000 382.000 C 262.000 381.780,262.360 381.600,262.800 381.600 C 263.240 381.600,263.600 381.420,263.600 381.200 C 263.600 380.980,263.836 380.800,264.125 380.800 C 264.413 380.800,265.036 380.440,265.508 380.000 C 265.980 379.560,266.527 379.200,266.722 379.200 C 268.017 379.200,274.676 371.519,275.064 369.578 C 275.194 368.930,275.457 368.400,275.650 368.400 C 275.843 368.400,276.000 367.860,276.000 367.200 C 276.000 366.540,276.180 366.000,276.400 366.000 C 276.620 366.000,276.800 365.280,276.800 364.400 C 276.800 363.520,276.980 362.800,277.200 362.800 C 277.439 362.800,277.600 361.267,277.600 359.000 C 277.600 356.733,277.439 355.200,277.200 355.200 C 276.980 355.200,276.800 354.390,276.800 353.400 C 276.800 352.410,276.620 351.600,276.400 351.600 C 276.180 351.600,276.000 351.150,276.000 350.600 C 276.000 350.050,275.820 349.600,275.600 349.600 C 275.380 349.600,275.200 349.254,275.200 348.831 C 275.200 348.074,272.622 344.337,271.906 344.057 C 271.705 343.978,270.930 343.303,270.183 342.557 C 269.437 341.811,268.551 341.200,268.213 341.200 C 267.876 341.200,267.600 341.020,267.600 340.800 C 267.600 340.580,267.240 340.400,266.800 340.400 C 266.360 340.400,266.000 340.220,266.000 340.000 C 266.000 339.780,265.460 339.600,264.800 339.600 C 264.140 339.600,263.600 339.420,263.600 339.200 C 263.600 338.976,262.493 338.800,261.080 338.800 C 259.625 338.800,258.353 338.593,258.070 338.310 C 257.683 337.923,257.415 337.923,256.795 338.310 C 256.364 338.580,254.939 338.800,253.629 338.800 C 252.319 338.800,251.136 338.980,251.000 339.200 C 250.864 339.420,250.133 339.600,249.376 339.600 C 248.619 339.600,248.000 339.780,248.000 340.000 C 248.000 340.220,247.550 340.400,247.000 340.400 C 246.450 340.400,246.000 340.580,246.000 340.800 C 246.000 341.020,245.550 341.200,245.000 341.200 C 244.450 341.200,244.000 341.380,244.000 341.600 C 244.000 341.820,243.550 342.000,243.000 342.000 C 242.450 342.000,242.000 342.180,242.000 342.400 C 242.000 342.620,241.460 342.800,240.800 342.800 C 240.140 342.800,239.600 342.950,239.600 343.134 C 239.600 343.428,238.574 343.661,232.896 344.659 C 232.179 344.785,231.494 345.049,231.373 345.244 C 231.252 345.440,230.544 345.600,229.800 345.600 C 229.056 345.600,228.336 345.780,228.200 346.000 C 228.064 346.220,227.063 346.400,225.976 346.400 C 224.889 346.400,224.000 346.580,224.000 346.800 C 224.000 347.022,222.933 347.200,221.600 347.200 C 220.267 347.200,219.200 347.378,219.200 347.600 C 219.200 347.835,217.800 348.000,215.800 348.000 C 213.800 348.000,212.400 348.165,212.400 348.400 C 212.400 348.948,184.939 348.948,184.600 348.400 C 184.464 348.180,182.844 348.000,181.000 348.000 C 179.156 348.000,177.536 347.820,177.400 347.600 C 177.264 347.380,176.209 347.200,175.056 347.200 C 173.903 347.200,172.789 347.037,172.580 346.837 C 172.371 346.637,171.300 346.379,170.200 346.263 C 168.003 346.032,165.177 345.499,162.400 344.792 C 161.410 344.540,159.385 344.135,157.900 343.893 C 156.415 343.651,155.200 343.306,155.200 343.126 C 155.200 342.947,154.581 342.800,153.824 342.800 C 153.067 342.800,152.336 342.620,152.200 342.400 C 152.064 342.180,151.423 342.000,150.776 342.000 C 150.129 342.000,149.600 341.820,149.600 341.600 C 149.600 341.380,149.060 341.200,148.400 341.200 C 147.740 341.200,147.200 341.020,147.200 340.800 C 147.200 340.580,146.660 340.400,146.000 340.400 C 145.340 340.400,144.800 340.220,144.800 340.000 C 144.800 339.780,144.260 339.600,143.600 339.600 C 142.940 339.600,142.400 339.420,142.400 339.200 C 142.400 338.980,142.128 338.800,141.795 338.800 C 141.207 338.800,140.782 338.633,138.905 337.662 C 138.413 337.408,137.648 337.200,137.205 337.200 C 136.762 337.200,136.400 337.020,136.400 336.800 C 136.400 336.580,136.040 336.400,135.600 336.400 C 135.160 336.400,134.800 336.220,134.800 336.000 C 134.800 335.780,134.451 335.600,134.024 335.600 C 133.597 335.600,133.136 335.420,133.000 335.200 C 132.864 334.980,132.313 334.800,131.776 334.800 C 131.239 334.800,130.800 334.620,130.800 334.400 C 130.800 334.180,130.440 334.000,130.000 334.000 C 129.560 334.000,129.200 333.820,129.200 333.600 C 129.200 333.380,128.840 333.200,128.400 333.200 C 127.960 333.200,127.600 333.020,127.600 332.800 C 127.600 332.580,127.255 332.400,126.833 332.400 C 126.412 332.400,126.007 332.263,125.933 332.096 C 125.860 331.929,124.180 330.987,122.200 330.002 C 120.220 329.017,118.362 327.984,118.071 327.706 C 117.781 327.428,117.196 327.200,116.771 327.200 C 116.347 327.200,116.000 327.020,116.000 326.800 C 116.000 326.580,115.680 326.400,115.288 326.400 C 114.897 326.400,114.317 326.040,114.000 325.600 C 113.683 325.160,113.103 324.800,112.712 324.800 C 112.320 324.800,112.000 324.620,112.000 324.400 C 112.000 324.180,111.680 324.000,111.288 324.000 C 110.897 324.000,110.317 323.640,110.000 323.200 C 109.683 322.760,109.193 322.400,108.912 322.400 C 108.630 322.400,108.400 322.250,108.400 322.068 C 108.400 321.885,107.905 321.481,107.300 321.170 C 106.695 320.860,105.909 320.289,105.553 319.903 C 105.197 319.516,104.702 319.200,104.453 319.200 C 104.204 319.200,104.000 319.020,104.000 318.800 C 104.000 318.580,103.770 318.400,103.488 318.400 C 103.207 318.400,102.717 318.040,102.400 317.600 C 102.083 317.160,101.631 316.800,101.396 316.800 C 101.160 316.800,100.172 316.080,99.200 315.200 C 98.228 314.320,97.284 313.600,97.103 313.600 C 96.922 313.600,96.185 313.015,95.466 312.300 C 94.747 311.585,93.463 310.460,92.614 309.800 C 90.923 308.487,80.800 298.553,80.800 298.207 C 80.800 297.905,78.841 295.678,77.300 294.228 C 76.585 293.556,76.000 292.862,76.000 292.686 C 76.000 292.510,75.817 292.149,75.593 291.883 C 74.018 290.017,73.451 289.267,72.879 288.300 C 72.520 287.695,72.086 287.200,71.914 287.200 C 71.741 287.200,71.600 286.975,71.599 286.700 C 71.599 286.425,71.059 285.570,70.400 284.800 C 69.741 284.030,69.201 283.257,69.201 283.083 C 69.200 282.909,68.840 282.380,68.400 281.908 C 67.960 281.436,67.600 280.813,67.600 280.525 C 67.600 280.236,67.420 280.000,67.200 280.000 C 66.980 280.000,66.800 279.764,66.800 279.475 C 66.800 279.187,66.440 278.564,66.000 278.092 C 65.560 277.620,65.200 277.046,65.200 276.817 C 65.200 276.588,65.020 276.400,64.800 276.400 C 64.580 276.400,64.400 276.040,64.400 275.600 C 64.400 275.160,64.220 274.800,64.000 274.800 C 63.780 274.800,63.600 274.522,63.600 274.183 C 63.600 273.844,63.240 273.180,62.800 272.708 C 62.360 272.236,62.000 271.613,62.000 271.325 C 62.000 271.036,61.820 270.800,61.600 270.800 C 61.380 270.800,61.200 270.440,61.200 270.000 C 61.200 269.560,61.020 269.200,60.800 269.200 C 60.580 269.200,60.400 268.840,60.400 268.400 C 60.400 267.960,60.220 267.600,60.000 267.600 C 59.780 267.600,59.600 267.240,59.600 266.800 C 59.600 266.360,59.440 266.000,59.245 266.000 C 59.049 266.000,58.768 265.356,58.621 264.570 C 58.473 263.783,58.003 262.518,57.576 261.758 C 57.149 260.998,56.800 260.111,56.800 259.788 C 56.800 259.465,56.620 259.200,56.400 259.200 C 56.180 259.200,56.000 258.761,56.000 258.224 C 56.000 257.687,55.820 257.136,55.600 257.000 C 55.380 256.864,55.200 256.403,55.200 255.976 C 55.200 255.549,55.020 255.200,54.800 255.200 C 54.580 255.200,54.400 254.660,54.400 254.000 C 54.400 253.340,54.220 252.800,54.000 252.800 C 53.780 252.800,53.600 252.260,53.600 251.600 C 53.600 250.940,53.420 250.400,53.200 250.400 C 52.980 250.400,52.800 249.961,52.800 249.424 C 52.800 248.887,52.620 248.336,52.400 248.200 C 52.180 248.064,52.000 247.601,52.000 247.171 C 52.000 246.741,51.842 246.077,51.649 245.695 C 51.060 244.528,50.400 242.192,50.400 241.272 C 50.400 240.792,50.220 240.400,50.000 240.400 C 49.780 240.400,49.600 239.680,49.600 238.800 C 49.600 237.920,49.420 237.200,49.200 237.200 C 48.980 237.200,48.800 236.480,48.800 235.600 C 48.800 234.720,48.620 234.000,48.400 234.000 C 48.180 234.000,48.000 233.100,48.000 232.000 C 48.000 230.900,47.820 230.000,47.600 230.000 C 47.380 230.000,47.200 229.010,47.200 227.800 C 47.200 226.590,47.020 225.600,46.800 225.600 C 46.571 225.600,46.400 224.400,46.400 222.800 C 46.400 221.200,46.229 220.000,46.000 220.000 C 45.758 220.000,45.600 218.275,45.600 215.624 C 45.600 213.137,45.427 211.140,45.200 211.000 C 44.656 210.664,44.656 194.000,45.200 194.000 C 45.441 194.000,45.600 192.333,45.600 189.800 C 45.600 187.267,45.759 185.600,46.000 185.600 C 46.229 185.600,46.400 184.400,46.400 182.800 C 46.400 181.200,46.571 180.000,46.800 180.000 C 47.022 180.000,47.200 178.933,47.200 177.600 C 47.200 176.267,47.378 175.200,47.600 175.200 C 47.820 175.200,48.000 174.401,48.000 173.424 C 48.000 172.447,48.180 171.536,48.400 171.400 C 48.620 171.264,48.800 170.454,48.800 169.600 C 48.800 168.746,48.960 167.948,49.156 167.827 C 49.351 167.706,49.621 166.976,49.756 166.204 C 49.890 165.432,50.110 164.170,50.244 163.400 C 50.378 162.630,50.648 162.000,50.844 162.000 C 51.040 162.000,51.200 161.381,51.200 160.624 C 51.200 159.867,51.380 159.136,51.600 159.000 C 51.820 158.864,52.000 158.324,52.000 157.800 C 52.000 157.276,52.180 156.736,52.400 156.600 C 52.620 156.464,52.800 155.924,52.800 155.400 C 52.800 154.876,52.980 154.336,53.200 154.200 C 53.420 154.064,53.600 153.513,53.600 152.976 C 53.600 152.439,53.780 152.000,54.000 152.000 C 54.220 152.000,54.400 151.460,54.400 150.800 C 54.400 150.140,54.580 149.600,54.800 149.600 C 55.020 149.600,55.200 149.251,55.200 148.824 C 55.200 148.397,55.380 147.936,55.600 147.800 C 55.820 147.664,56.000 147.113,56.000 146.576 C 56.000 146.039,56.180 145.600,56.400 145.600 C 56.620 145.600,56.800 145.335,56.800 145.012 C 56.800 144.688,57.250 143.440,57.800 142.237 C 58.350 141.035,58.800 139.770,58.800 139.426 C 58.800 139.082,58.980 138.800,59.200 138.800 C 59.420 138.800,59.600 138.440,59.600 138.000 C 59.600 137.560,59.780 137.200,60.000 137.200 C 60.220 137.200,60.400 136.840,60.400 136.400 C 60.400 135.960,60.580 135.600,60.800 135.600 C 61.020 135.600,61.200 135.240,61.200 134.800 C 61.200 134.360,61.380 134.000,61.600 134.000 C 61.820 134.000,62.000 133.640,62.000 133.200 C 62.000 132.760,62.180 132.400,62.400 132.400 C 62.620 132.400,62.800 132.040,62.800 131.600 C 62.800 131.160,62.980 130.800,63.200 130.800 C 63.420 130.800,63.600 130.440,63.600 130.000 C 63.600 129.560,63.780 129.200,64.000 129.200 C 64.220 129.200,64.400 128.840,64.400 128.400 C 64.400 127.960,64.580 127.600,64.800 127.600 C 65.020 127.600,65.200 127.306,65.200 126.947 C 65.200 126.588,65.529 126.003,65.930 125.647 C 66.332 125.291,66.916 124.415,67.228 123.700 C 67.540 122.985,67.931 122.400,68.098 122.400 C 68.264 122.400,68.400 122.164,68.400 121.875 C 68.400 121.587,68.715 120.993,69.100 120.555 C 69.757 119.808,70.059 119.335,71.300 117.100 C 71.575 116.605,71.899 116.110,72.019 116.000 C 72.140 115.890,72.674 115.170,73.206 114.400 C 73.738 113.630,74.405 112.762,74.687 112.471 C 74.969 112.181,75.200 111.668,75.200 111.332 C 75.200 110.996,75.740 110.217,76.400 109.600 C 77.060 108.983,77.600 108.371,77.600 108.240 C 77.600 108.108,78.320 107.259,79.200 106.352 C 80.080 105.445,80.800 104.550,80.800 104.362 C 80.800 104.174,81.970 102.821,83.400 101.355 C 84.830 99.889,86.000 98.544,86.000 98.365 C 86.000 98.186,87.242 96.780,88.760 95.241 C 90.277 93.702,91.582 92.298,91.660 92.121 C 91.737 91.945,92.530 91.305,93.423 90.699 C 94.315 90.094,96.166 88.519,97.536 87.199 C 98.905 85.880,100.165 84.800,100.335 84.800 C 100.505 84.800,101.341 84.161,102.194 83.380 C 103.047 82.599,104.252 81.660,104.872 81.294 C 105.492 80.927,106.000 80.486,106.000 80.314 C 106.000 80.141,106.270 80.000,106.600 80.000 C 106.930 80.000,107.200 79.820,107.200 79.600 C 107.200 79.380,107.458 79.200,107.773 79.200 C 108.088 79.200,108.460 78.840,108.600 78.400 C 108.740 77.960,109.119 77.600,109.444 77.600 C 109.768 77.600,110.420 77.240,110.892 76.800 C 111.364 76.360,111.987 76.000,112.275 76.000 C 112.564 76.000,112.800 75.834,112.800 75.632 C 112.800 75.429,113.340 75.145,114.000 75.000 C 114.660 74.855,115.203 74.616,115.206 74.468 C 115.210 74.321,116.110 73.760,117.206 73.221 C 118.303 72.683,119.200 72.098,119.200 71.921 C 119.200 71.745,119.560 71.600,120.000 71.600 C 120.440 71.600,120.800 71.420,120.800 71.200 C 120.800 70.980,121.160 70.800,121.600 70.800 C 122.040 70.800,122.400 70.654,122.400 70.475 C 122.400 70.296,123.030 69.902,123.800 69.600 C 124.570 69.298,125.200 68.904,125.200 68.725 C 125.200 68.546,125.560 68.400,126.000 68.400 C 126.440 68.400,126.800 68.220,126.800 68.000 C 126.800 67.780,127.160 67.600,127.600 67.600 C 128.040 67.600,128.400 67.420,128.400 67.200 C 128.400 66.980,128.940 66.800,129.600 66.800 C 130.260 66.800,130.800 66.620,130.800 66.400 C 130.800 66.180,131.160 66.000,131.600 66.000 C 132.040 66.000,132.400 65.820,132.400 65.600 C 132.400 65.380,132.760 65.200,133.200 65.200 C 133.640 65.200,134.000 65.020,134.000 64.800 C 134.000 64.580,134.540 64.400,135.200 64.400 C 135.860 64.400,136.400 64.220,136.400 64.000 C 136.400 63.780,136.760 63.600,137.200 63.600 C 137.640 63.600,138.000 63.420,138.000 63.200 C 138.000 62.980,138.439 62.800,138.976 62.800 C 139.513 62.800,140.064 62.620,140.200 62.400 C 140.336 62.180,140.887 62.000,141.424 62.000 C 141.961 62.000,142.400 61.820,142.400 61.600 C 142.400 61.380,142.940 61.200,143.600 61.200 C 144.260 61.200,144.800 61.020,144.800 60.800 C 144.800 60.580,145.340 60.400,146.000 60.400 C 146.660 60.400,147.200 60.220,147.200 60.000 C 147.200 59.780,147.740 59.600,148.400 59.600 C 149.060 59.600,149.600 59.453,149.600 59.274 C 149.600 59.094,150.815 58.749,152.300 58.507 C 155.782 57.938,157.211 57.620,158.200 57.197 C 159.100 56.812,160.937 56.450,163.600 56.135 C 164.590 56.018,165.571 55.760,165.780 55.561 C 165.989 55.363,166.923 55.200,167.856 55.200 C 168.789 55.200,169.664 55.020,169.800 54.800 C 169.936 54.580,171.106 54.400,172.400 54.400 C 173.694 54.400,174.864 54.220,175.000 54.000 C 175.136 53.780,176.666 53.600,178.400 53.600 C 180.134 53.600,181.664 53.420,181.800 53.200 C 181.947 52.962,184.463 52.800,188.000 52.800 C 191.537 52.800,194.053 52.638,194.200 52.400 C 194.341 52.171,196.396 52.000,199.000 52.000 C 201.604 52.000,203.659 52.171,203.800 52.400 C 203.947 52.638,206.463 52.800,210.000 52.800 C 213.537 52.800,216.053 52.962,216.200 53.200 C 216.336 53.420,217.751 53.600,219.344 53.600 C 220.937 53.600,222.411 53.764,222.620 53.965 C 222.829 54.165,223.990 54.430,225.200 54.552 C 229.714 55.007,231.410 55.287,231.780 55.639 C 231.989 55.837,232.923 56.000,233.856 56.000 C 234.789 56.000,235.652 56.161,235.774 56.358 C 235.895 56.555,236.671 56.810,237.497 56.925 C 238.324 57.040,239.810 57.343,240.800 57.596 C 241.790 57.850,243.725 58.255,245.100 58.495 C 246.475 58.735,247.600 59.082,247.600 59.266 C 247.600 59.450,248.230 59.600,249.000 59.600 C 249.770 59.600,250.400 59.780,250.400 60.000 C 250.400 60.220,250.940 60.400,251.600 60.400 C 252.260 60.400,252.800 60.580,252.800 60.800 C 252.800 61.020,253.340 61.200,254.000 61.200 C 254.660 61.200,255.200 61.380,255.200 61.600 C 255.200 61.820,255.639 62.000,256.176 62.000 C 256.713 62.000,257.264 62.180,257.400 62.400 C 257.536 62.620,257.997 62.800,258.424 62.800 C 258.851 62.800,259.200 62.980,259.200 63.200 C 259.200 63.420,259.639 63.600,260.176 63.600 C 260.713 63.600,261.264 63.780,261.400 64.000 C 261.536 64.220,261.997 64.400,262.424 64.400 C 262.851 64.400,263.200 64.580,263.200 64.800 C 263.200 65.020,263.650 65.200,264.200 65.200 C 264.750 65.200,265.200 65.380,265.200 65.600 C 265.200 65.820,265.560 66.000,266.000 66.000 C 266.440 66.000,266.800 66.180,266.800 66.400 C 266.800 66.620,267.072 66.800,267.405 66.800 C 267.993 66.800,268.418 66.967,270.295 67.938 C 270.787 68.192,271.462 68.400,271.795 68.400 C 272.128 68.400,272.400 68.580,272.400 68.800 C 272.400 69.020,272.760 69.200,273.200 69.200 C 273.640 69.200,274.000 69.380,274.000 69.600 C 274.000 69.820,274.360 70.000,274.800 70.000 C 275.240 70.000,275.600 70.180,275.600 70.400 C 275.600 70.620,275.960 70.800,276.400 70.800 C 276.840 70.800,277.200 70.959,277.200 71.153 C 277.200 71.348,277.515 71.610,277.900 71.736 C 278.285 71.862,279.410 72.451,280.400 73.046 C 283.227 74.743,284.154 75.195,284.812 75.198 C 285.148 75.199,285.683 75.560,286.000 76.000 C 286.317 76.440,286.857 76.800,287.200 76.800 C 287.543 76.800,288.083 77.160,288.400 77.600 C 288.717 78.040,289.297 78.400,289.688 78.400 C 290.080 78.400,290.400 78.580,290.400 78.800 C 290.400 79.020,290.720 79.200,291.112 79.200 C 291.503 79.200,292.083 79.560,292.400 80.000 C 292.717 80.440,293.207 80.800,293.488 80.800 C 293.770 80.800,294.000 80.941,294.000 81.114 C 294.000 81.286,294.495 81.721,295.100 82.079 C 295.705 82.437,296.740 83.196,297.400 83.765 C 298.060 84.334,298.737 84.799,298.904 84.800 C 299.071 84.800,299.772 85.340,300.463 86.000 C 301.154 86.660,301.880 87.200,302.078 87.200 C 302.275 87.200,302.890 87.654,303.444 88.208 C 303.998 88.762,304.935 89.526,305.526 89.905 C 306.993 90.846,307.430 91.196,309.008 92.700 C 309.759 93.415,310.473 94.000,310.596 94.000 C 310.816 94.000,321.653 104.897,325.300 108.786 C 326.345 109.901,327.203 111.035,327.208 111.306 C 327.212 111.578,327.842 112.518,328.608 113.396 C 329.373 114.273,330.000 115.152,330.000 115.349 C 330.000 115.545,330.316 115.997,330.703 116.353 C 331.089 116.709,331.660 117.495,331.970 118.100 C 332.281 118.705,332.685 119.200,332.868 119.200 C 333.050 119.200,333.200 119.436,333.200 119.725 C 333.200 120.013,333.515 120.598,333.900 121.025 C 334.285 121.451,334.854 122.292,335.164 122.893 C 335.474 123.495,336.059 124.342,336.464 124.777 C 336.869 125.211,337.200 125.844,337.200 126.183 C 337.200 126.522,337.380 126.800,337.600 126.800 C 337.820 126.800,338.000 127.160,338.000 127.600 C 338.000 128.040,338.136 128.400,338.302 128.400 C 338.469 128.400,338.859 128.985,339.170 129.700 C 339.481 130.415,339.843 131.090,339.973 131.200 C 340.194 131.386,340.826 132.665,342.787 136.900 C 343.221 137.835,343.690 139.097,343.832 139.704 C 343.973 140.311,344.249 140.906,344.444 141.027 C 344.640 141.148,344.800 141.687,344.800 142.224 C 344.800 142.761,344.947 143.200,345.128 143.200 C 345.308 143.200,345.700 144.100,346.000 145.200 C 346.300 146.300,346.692 147.200,346.872 147.200 C 347.053 147.200,347.200 147.740,347.200 148.400 C 347.200 149.060,347.380 149.600,347.600 149.600 C 347.820 149.600,348.000 150.140,348.000 150.800 C 348.000 151.460,348.180 152.000,348.400 152.000 C 348.620 152.000,348.800 152.529,348.800 153.176 C 348.800 153.823,348.980 154.464,349.200 154.600 C 349.420 154.736,349.600 155.366,349.600 156.000 C 349.600 156.634,349.780 157.264,350.000 157.400 C 350.220 157.536,350.400 158.267,350.400 159.024 C 350.400 159.781,350.580 160.400,350.800 160.400 C 351.020 160.400,351.200 161.120,351.200 162.000 C 351.200 162.880,351.380 163.600,351.600 163.600 C 351.820 163.600,352.000 164.500,352.000 165.600 C 352.000 166.700,352.180 167.600,352.400 167.600 C 352.620 167.600,352.800 168.579,352.800 169.776 C 352.800 170.973,352.980 172.064,353.200 172.200 C 353.420 172.336,353.600 173.506,353.600 174.800 C 353.600 176.094,353.780 177.264,354.000 177.400 C 354.221 177.536,354.400 179.330,354.400 181.400 C 354.400 183.470,354.579 185.264,354.800 185.400 C 355.052 185.556,355.200 190.004,355.200 197.424 C 355.200 205.008,355.058 209.200,354.800 209.200 C 354.559 209.200,354.400 210.867,354.400 213.400 C 354.400 215.933,354.241 217.600,354.000 217.600 C 353.772 217.600,353.600 218.792,353.600 220.376 C 353.600 221.903,353.420 223.264,353.200 223.400 C 352.980 223.536,352.800 224.616,352.800 225.800 C 352.800 226.984,352.620 228.064,352.400 228.200 C 352.180 228.336,352.000 229.337,352.000 230.424 C 352.000 231.511,351.820 232.400,351.600 232.400 C 351.380 232.400,351.200 233.109,351.200 233.976 C 351.200 234.843,351.020 235.664,350.800 235.800 C 350.580 235.936,350.400 236.847,350.400 237.824 C 350.400 238.801,350.220 239.600,350.000 239.600 C 349.780 239.600,349.600 240.320,349.600 241.200 C 349.600 242.080,349.420 242.800,349.200 242.800 C 348.980 242.800,348.800 243.329,348.800 243.976 C 348.800 244.623,348.620 245.264,348.400 245.400 C 348.180 245.536,348.000 246.166,348.000 246.800 C 348.000 247.434,347.820 248.064,347.600 248.200 C 347.380 248.336,347.200 248.799,347.200 249.229 C 347.200 249.659,347.038 250.323,346.841 250.705 C 346.644 251.087,346.070 252.750,345.567 254.400 C 345.063 256.050,344.525 257.580,344.371 257.800 C 344.217 258.020,343.964 258.965,343.810 259.900 C 343.656 260.835,343.366 261.600,343.165 261.600 C 342.964 261.600,342.800 262.050,342.800 262.600 C 342.800 263.150,342.620 263.600,342.400 263.600 C 342.180 263.600,342.000 263.960,342.000 264.400 C 342.000 264.840,341.820 265.200,341.600 265.200 C 341.380 265.200,341.200 265.549,341.200 265.976 C 341.200 266.403,341.020 266.864,340.800 267.000 C 340.580 267.136,340.400 267.597,340.400 268.024 C 340.400 268.451,340.220 268.800,340.000 268.800 C 339.780 268.800,339.600 269.250,339.600 269.800 C 339.600 270.350,339.420 270.800,339.200 270.800 C 338.980 270.800,338.800 271.160,338.800 271.600 C 338.800 272.040,338.620 272.400,338.400 272.400 C 338.180 272.400,338.000 272.678,338.000 273.017 C 338.000 273.356,337.640 274.020,337.200 274.492 C 336.760 274.964,336.400 275.587,336.400 275.875 C 336.400 276.164,336.264 276.400,336.098 276.400 C 335.931 276.400,335.536 276.985,335.220 277.700 C 334.903 278.415,334.320 279.349,333.922 279.775 C 333.525 280.202,333.200 280.787,333.200 281.075 C 333.200 281.364,333.050 281.600,332.868 281.600 C 332.685 281.600,332.280 282.095,331.968 282.700 C 331.655 283.305,330.995 284.213,330.500 284.718 C 330.005 285.223,329.600 285.789,329.600 285.976 C 329.600 286.163,329.105 286.868,328.500 287.543 C 327.895 288.219,326.950 289.313,326.400 289.974 C 325.850 290.635,325.085 291.181,324.700 291.188 C 324.315 291.195,324.000 291.380,324.000 291.600 C 324.000 291.820,323.460 292.000,322.800 292.000 C 322.140 292.000,321.600 292.180,321.600 292.400 C 321.600 292.620,321.060 292.800,320.400 292.800 C 319.740 292.800,319.200 292.620,319.200 292.400 C 319.200 292.180,318.660 292.000,318.000 292.000 C 317.340 292.000,316.800 291.820,316.800 291.600 C 316.800 291.380,316.512 291.200,316.160 291.200 C 315.404 291.200,312.000 287.712,312.000 286.936 C 312.000 286.641,311.820 286.400,311.600 286.400 C 311.380 286.400,311.200 285.680,311.200 284.800 C 311.200 283.920,311.020 283.200,310.800 283.200 C 310.535 283.200,310.400 255.408,310.400 200.624 C 310.400 146.004,310.265 117.964,310.000 117.800 C 309.780 117.664,309.600 117.023,309.600 116.376 C 309.600 115.729,309.443 115.200,309.250 115.200 C 309.058 115.200,308.791 114.653,308.657 113.985 C 308.268 112.041,303.793 106.800,302.522 106.800 C 302.235 106.800,302.000 106.620,302.000 106.400 C 302.000 106.180,301.640 106.000,301.200 106.000 C 300.760 106.000,300.400 105.820,300.400 105.600 C 300.400 105.380,299.860 105.200,299.200 105.200 C 298.540 105.200,298.000 105.020,298.000 104.800 C 298.000 104.549,295.400 104.400,291.000 104.400 C 286.600 104.400,284.000 104.549,284.000 104.800 C 284.000 105.020,283.640 105.200,283.200 105.200 C 282.760 105.200,282.400 105.380,282.400 105.600 C 282.400 105.820,282.040 106.000,281.600 106.000 C 281.160 106.000,280.800 106.180,280.800 106.400 C 280.800 106.620,280.622 106.800,280.405 106.800 C 279.534 106.800,276.400 109.917,276.400 110.783 C 276.400 111.012,276.265 111.201,276.100 111.203 C 275.741 111.207,274.800 113.144,274.800 113.880 C 274.800 114.166,274.620 114.400,274.400 114.400 C 274.180 114.400,274.000 114.839,274.000 115.376 C 274.000 115.913,273.820 116.464,273.600 116.600 C 273.380 116.736,273.200 117.744,273.200 118.840 L 273.200 120.832 271.535 119.316 C 270.619 118.482,269.134 117.078,268.235 116.195 C 267.336 115.312,265.970 114.144,265.200 113.599 C 264.430 113.054,263.278 112.112,262.641 111.504 C 262.003 110.897,261.246 110.400,260.959 110.400 C 260.671 110.400,259.986 109.950,259.436 109.400 C 258.886 108.850,258.248 108.400,258.018 108.400 C 257.788 108.400,257.600 108.250,257.600 108.068 C 257.600 107.885,257.105 107.480,256.500 107.168 C 255.895 106.855,255.051 106.285,254.625 105.900 C 254.198 105.515,253.653 105.200,253.413 105.200 C 253.173 105.200,252.717 104.840,252.400 104.400 C 252.083 103.960,251.503 103.600,251.112 103.600 C 250.720 103.600,250.400 103.420,250.400 103.200 C 250.400 102.980,250.122 102.800,249.783 102.800 C 249.444 102.800,248.780 102.440,248.308 102.000 C 247.836 101.560,247.213 101.200,246.925 101.200 C 246.636 101.200,246.400 101.020,246.400 100.800 C 246.400 100.580,246.040 100.400,245.600 100.400 C 245.160 100.400,244.800 100.220,244.800 100.000 C 244.800 99.780,244.440 99.600,244.000 99.600 C 243.560 99.600,243.200 99.420,243.200 99.200 C 243.200 98.980,242.840 98.800,242.400 98.800 C 241.960 98.800,241.600 98.620,241.600 98.400 C 241.600 98.180,241.240 98.000,240.800 98.000 C 240.360 98.000,240.000 97.864,240.000 97.698 C 240.000 97.531,239.415 97.156,238.700 96.864 C 237.985 96.572,237.040 96.186,236.600 96.006 C 236.160 95.827,234.937 95.297,233.883 94.830 C 232.829 94.363,231.164 93.870,230.183 93.736 C 229.202 93.601,228.400 93.336,228.400 93.146 C 228.400 92.956,227.860 92.800,227.200 92.800 C 226.540 92.800,226.000 92.620,226.000 92.400 C 226.000 92.180,225.561 92.000,225.024 92.000 C 224.487 92.000,223.936 91.820,223.800 91.600 C 223.664 91.380,222.933 91.200,222.176 91.200 C 221.419 91.200,220.800 91.020,220.800 90.800 C 220.800 90.580,220.080 90.400,219.200 90.400 C 218.320 90.400,217.600 90.220,217.600 90.000 C 217.600 89.780,216.891 89.600,216.024 89.600 C 215.157 89.600,214.336 89.420,214.200 89.200 C 214.064 88.980,212.973 88.800,211.776 88.800 C 210.579 88.800,209.600 88.620,209.600 88.400 C 209.600 88.169,208.341 88.000,206.624 88.000 C 204.987 88.000,203.536 87.820,203.400 87.600 C 203.063 87.054,183.200 87.054,183.200 87.600 C 183.200 87.831,181.941 88.000,180.224 88.000 C 178.587 88.000,177.136 88.180,177.000 88.400 C 176.864 88.620,175.773 88.800,174.576 88.800 C 173.379 88.800,172.400 88.980,172.400 89.200 C 172.400 89.420,171.601 89.600,170.624 89.600 C 169.647 89.600,168.736 89.780,168.600 90.000 C 168.464 90.220,167.744 90.400,167.000 90.400 C 166.256 90.400,165.536 90.580,165.400 90.800 C 165.264 91.020,164.623 91.200,163.976 91.200 C 163.329 91.200,162.800 91.380,162.800 91.600 C 162.800 91.820,162.271 92.000,161.624 92.000 C 160.977 92.000,160.336 92.180,160.200 92.400 C 160.064 92.620,159.603 92.800,159.176 92.800 C 158.749 92.800,158.400 92.956,158.400 93.146 C 158.400 93.336,157.598 93.601,156.617 93.736 C 155.636 93.870,153.971 94.363,152.917 94.830 C 151.863 95.297,150.640 95.820,150.200 95.991 C 148.356 96.708,143.790 99.020,143.667 99.298 C 143.593 99.464,143.188 99.600,142.767 99.600 C 142.345 99.600,142.000 99.780,142.000 100.000 C 142.000 100.220,141.640 100.400,141.200 100.400 C 140.760 100.400,140.400 100.580,140.400 100.800 C 140.400 101.020,140.164 101.200,139.875 101.200 C 139.587 101.200,138.964 101.560,138.492 102.000 C 138.020 102.440,137.356 102.800,137.017 102.800 C 136.678 102.800,136.400 102.980,136.400 103.200 C 136.400 103.420,136.164 103.600,135.875 103.600 C 135.587 103.600,134.964 103.960,134.492 104.400 C 134.020 104.840,133.422 105.200,133.164 105.200 C 132.905 105.200,132.403 105.516,132.047 105.903 C 131.691 106.289,130.905 106.860,130.300 107.170 C 129.695 107.481,129.200 107.885,129.200 108.068 C 129.200 108.250,128.996 108.400,128.747 108.400 C 128.498 108.400,128.003 108.733,127.647 109.141 C 127.291 109.548,126.460 110.164,125.800 110.508 C 125.140 110.853,123.902 111.779,123.050 112.567 C 122.197 113.355,121.355 114.000,121.179 114.000 C 120.808 114.000,111.149 123.673,108.200 126.999 C 107.100 128.239,105.615 129.866,104.900 130.614 C 104.185 131.361,103.600 132.133,103.600 132.327 C 103.600 132.522,103.060 133.246,102.400 133.937 C 101.740 134.628,101.200 135.348,101.200 135.537 C 101.200 135.726,100.660 136.446,100.000 137.137 C 99.340 137.828,98.800 138.664,98.800 138.996 C 98.800 139.328,98.650 139.600,98.468 139.600 C 98.285 139.600,97.880 140.095,97.568 140.700 C 97.256 141.305,96.911 141.890,96.801 142.000 C 96.315 142.485,94.918 144.733,94.192 146.200 C 93.756 147.080,93.265 147.860,93.100 147.933 C 92.935 148.007,92.800 148.412,92.800 148.833 C 92.800 149.255,92.620 149.600,92.400 149.600 C 92.180 149.600,92.000 149.960,92.000 150.400 C 92.000 150.840,91.820 151.200,91.600 151.200 C 91.380 151.200,91.200 151.560,91.200 152.000 C 91.200 152.440,91.020 152.800,90.800 152.800 C 90.580 152.800,90.400 153.160,90.400 153.600 C 90.400 154.040,90.220 154.400,90.000 154.400 C 89.780 154.400,89.600 154.760,89.600 155.200 C 89.600 155.640,89.420 156.000,89.200 156.000 C 88.980 156.000,88.800 156.360,88.800 156.800 C 88.800 157.240,88.620 157.600,88.400 157.600 C 88.180 157.600,88.000 158.140,88.000 158.800 C 88.000 159.460,87.864 160.000,87.698 160.000 C 87.531 160.000,87.156 160.585,86.864 161.300 C 85.741 164.050,85.496 164.622,85.153 165.295 C 84.959 165.677,84.800 166.341,84.800 166.771 C 84.800 167.201,84.620 167.664,84.400 167.800 C 84.180 167.936,84.000 168.476,84.000 169.000 C 84.000 169.524,83.820 170.064,83.600 170.200 C 83.380 170.336,83.200 171.067,83.200 171.824 C 83.200 172.581,83.040 173.200,82.844 173.200 C 82.509 173.200,82.283 174.122,81.742 177.703 C 81.618 178.529,81.355 179.305,81.158 179.426 C 80.961 179.548,80.800 180.411,80.800 181.344 C 80.800 182.277,80.636 183.211,80.435 183.420 C 80.235 183.629,79.963 184.880,79.832 186.200 C 79.700 187.520,79.390 190.580,79.143 193.000 C 78.426 200.021,78.751 215.664,79.634 216.580 C 79.835 216.789,80.000 217.878,80.000 219.000 C 80.000 220.122,80.163 221.211,80.361 221.420 C 80.560 221.629,80.824 222.610,80.949 223.600 C 81.444 227.544,81.700 228.815,82.042 229.026 C 82.239 229.148,82.400 229.777,82.400 230.424 C 82.400 231.071,82.580 231.600,82.800 231.600 C 83.020 231.600,83.200 232.219,83.200 232.976 C 83.200 233.733,83.380 234.464,83.600 234.600 C 83.820 234.736,84.000 235.276,84.000 235.800 C 84.000 236.324,84.180 236.864,84.400 237.000 C 84.620 237.136,84.800 237.687,84.800 238.224 C 84.800 238.761,84.980 239.200,85.200 239.200 C 85.420 239.200,85.600 239.639,85.600 240.176 C 85.600 240.713,85.780 241.264,86.000 241.400 C 86.220 241.536,86.400 241.997,86.400 242.424 C 86.400 242.851,86.580 243.200,86.800 243.200 C 87.020 243.200,87.200 243.560,87.200 244.000 C 87.200 244.440,87.380 244.800,87.600 244.800 C 87.820 244.800,88.000 245.340,88.000 246.000 C 88.000 246.660,88.180 247.200,88.400 247.200 C 88.620 247.200,88.800 247.560,88.800 248.000 C 88.800 248.440,88.980 248.800,89.200 248.800 C 89.420 248.800,89.600 249.160,89.600 249.600 C 89.600 250.040,89.780 250.400,90.000 250.400 C 90.220 250.400,90.400 250.760,90.400 251.200 C 90.400 251.640,90.580 252.000,90.800 252.000 C 91.020 252.000,91.200 252.360,91.200 252.800 C 91.200 253.240,91.380 253.600,91.600 253.600 C 91.820 253.600,92.000 253.960,92.000 254.400 C 92.000 254.840,92.180 255.200,92.400 255.200 C 92.620 255.200,92.800 255.470,92.800 255.800 C 92.800 256.130,92.966 256.400,93.168 256.400 C 93.371 256.400,93.655 256.940,93.800 257.600 C 93.945 258.260,94.207 258.800,94.383 258.800 C 94.559 258.800,94.927 259.340,95.200 260.000 C 95.473 260.660,95.855 261.200,96.049 261.200 C 96.242 261.200,96.400 261.520,96.400 261.912 C 96.400 262.303,96.760 262.883,97.200 263.200 C 97.640 263.517,98.000 264.057,98.000 264.400 C 98.000 264.743,98.360 265.283,98.800 265.600 C 99.240 265.917,99.600 266.362,99.601 266.588 C 99.601 266.815,100.141 267.630,100.800 268.400 C 101.459 269.170,101.999 269.953,101.999 270.140 C 102.000 270.326,102.540 270.983,103.200 271.600 C 103.860 272.217,104.400 272.843,104.400 272.992 C 104.400 273.142,105.480 274.344,106.800 275.664 C 108.120 276.984,109.200 278.242,109.200 278.459 C 109.200 279.339,120.579 290.043,122.692 291.149 C 123.301 291.469,124.277 292.241,124.860 292.865 C 125.444 293.489,126.111 294.000,126.342 294.000 C 126.574 294.000,127.190 294.405,127.712 294.900 C 129.244 296.354,130.381 297.200,130.805 297.200 C 131.022 297.200,131.200 297.380,131.200 297.600 C 131.200 297.820,131.470 298.000,131.800 298.000 C 132.130 298.000,132.400 298.180,132.400 298.400 C 132.400 298.620,132.636 298.800,132.925 298.800 C 133.213 298.800,133.836 299.160,134.308 299.600 C 134.780 300.040,135.362 300.400,135.600 300.400 C 135.838 300.400,136.420 300.760,136.892 301.200 C 137.364 301.640,137.987 302.000,138.275 302.000 C 138.564 302.000,138.800 302.180,138.800 302.400 C 138.800 302.620,139.160 302.800,139.600 302.800 C 140.040 302.800,140.400 302.980,140.400 303.200 C 140.400 303.420,140.760 303.600,141.200 303.600 C 141.640 303.600,142.000 303.780,142.000 304.000 C 142.000 304.220,142.345 304.400,142.767 304.400 C 143.188 304.400,143.593 304.544,143.667 304.719 C 143.893 305.262,150.514 308.317,152.100 308.611 C 152.925 308.764,153.600 309.049,153.600 309.245 C 153.600 309.440,154.140 309.600,154.800 309.600 C 155.460 309.600,156.000 309.780,156.000 310.000 C 156.000 310.220,156.349 310.400,156.776 310.400 C 157.203 310.400,157.664 310.580,157.800 310.800 C 157.936 311.020,158.476 311.200,159.000 311.200 C 159.524 311.200,160.064 311.380,160.200 311.600 C 160.336 311.820,160.977 312.000,161.624 312.000 C 162.271 312.000,162.800 312.180,162.800 312.400 C 162.800 312.620,163.329 312.800,163.976 312.800 C 164.623 312.800,165.264 312.980,165.400 313.200 C 165.536 313.420,166.256 313.600,167.000 313.600 C 167.744 313.600,168.464 313.780,168.600 314.000 C 168.736 314.220,169.647 314.400,170.624 314.400 C 171.601 314.400,172.400 314.580,172.400 314.800 C 172.400 315.022,173.467 315.200,174.800 315.200 C 176.133 315.200,177.200 315.378,177.200 315.600 C 177.200 315.831,178.459 316.000,180.176 316.000 C 181.813 316.000,183.264 316.180,183.400 316.400 C 183.736 316.943,203.064 316.943,203.400 316.400 C 203.536 316.180,205.066 316.000,206.800 316.000 C 208.534 316.000,210.064 315.820,210.200 315.600 C 210.336 315.380,211.326 315.200,212.400 315.200 C 213.474 315.200,214.464 315.020,214.600 314.800 C 214.736 314.580,215.647 314.400,216.624 314.400 C 217.601 314.400,218.400 314.220,218.400 314.000 C 218.400 313.780,219.109 313.600,219.976 313.600 C 220.843 313.600,221.664 313.420,221.800 313.200 C 221.936 312.980,222.566 312.800,223.200 312.800 C 223.834 312.800,224.464 312.620,224.600 312.400 C 224.736 312.180,225.287 312.000,225.824 312.000 C 226.361 312.000,226.800 311.820,226.800 311.600 C 226.800 311.380,227.340 311.200,228.000 311.200 C 228.660 311.200,229.200 311.020,229.200 310.800 C 229.200 310.580,229.740 310.400,230.400 310.400 C 231.060 310.400,231.600 310.220,231.600 310.000 C 231.600 309.780,232.140 309.600,232.800 309.600 C 233.460 309.600,234.000 309.440,234.000 309.245 C 234.000 309.049,234.675 308.772,235.500 308.628 C 237.033 308.362,242.092 306.047,242.333 305.502 C 242.407 305.336,242.812 305.200,243.233 305.200 C 243.655 305.200,244.000 305.020,244.000 304.800 C 244.000 304.580,244.360 304.400,244.800 304.400 C 245.240 304.400,245.600 304.220,245.600 304.000 C 245.600 303.780,245.960 303.600,246.400 303.600 C 246.840 303.600,247.200 303.420,247.200 303.200 C 247.200 302.980,247.545 302.800,247.967 302.800 C 248.388 302.800,248.793 302.665,248.867 302.500 C 249.034 302.124,251.164 300.825,252.100 300.529 C 252.485 300.407,252.800 300.148,252.800 299.953 C 252.800 299.759,253.036 299.600,253.325 299.600 C 253.613 299.600,254.198 299.285,254.625 298.900 C 255.051 298.515,255.895 297.945,256.500 297.632 C 257.105 297.320,257.600 296.915,257.600 296.732 C 257.600 296.550,257.798 296.400,258.040 296.400 C 258.281 296.400,258.983 295.860,259.600 295.200 C 260.217 294.540,260.937 294.000,261.200 294.000 C 261.463 294.000,262.160 293.485,262.748 292.856 C 263.335 292.227,264.177 291.598,264.618 291.458 C 265.059 291.318,266.613 290.078,268.071 288.702 C 269.529 287.326,271.099 285.887,271.561 285.504 L 272.400 284.808 272.400 292.204 C 272.400 296.868,272.548 299.600,272.800 299.600 C 273.022 299.600,273.200 300.667,273.200 302.000 C 273.200 303.333,273.378 304.400,273.600 304.400 C 273.820 304.400,274.000 304.929,274.000 305.576 C 274.000 306.223,274.180 306.864,274.400 307.000 C 274.620 307.136,274.800 307.597,274.800 308.024 C 274.800 308.451,274.980 308.800,275.200 308.800 C 275.420 308.800,275.600 309.340,275.600 310.000 C 275.600 310.660,275.780 311.200,276.000 311.200 C 276.220 311.200,276.400 311.560,276.400 312.000 C 276.400 312.440,276.580 312.800,276.800 312.800 C 277.020 312.800,277.205 313.115,277.210 313.500 C 277.240 315.545,286.370 326.800,287.998 326.800 C 288.263 326.800,288.983 327.340,289.600 328.000 C 290.217 328.660,290.969 329.200,291.272 329.200 C 291.575 329.200,292.083 329.560,292.400 330.000 C 292.717 330.440,293.207 330.800,293.488 330.800 C 293.770 330.800,294.000 330.980,294.000 331.200 C 294.000 331.420,294.255 331.600,294.567 331.600 C 294.878 331.600,295.193 331.735,295.267 331.900 C 295.340 332.065,296.300 332.625,297.400 333.144 C 298.500 333.663,299.713 334.248,300.095 334.444 C 300.477 334.640,301.062 334.800,301.395 334.800 C 301.728 334.800,302.000 334.980,302.000 335.200 C 302.000 335.420,302.540 335.600,303.200 335.600 C 303.860 335.600,304.400 335.780,304.400 336.000 C 304.400 336.220,304.940 336.400,305.600 336.400 C 306.260 336.400,306.800 336.580,306.800 336.800 C 306.800 337.020,307.520 337.200,308.400 337.200 C 309.280 337.200,310.000 337.380,310.000 337.600 C 310.000 337.824,311.107 338.000,312.520 338.000 C 313.906 338.000,315.232 338.192,315.466 338.426 C 316.150 339.110,330.000 338.290,330.000 337.566 C 330.000 337.365,330.720 337.200,331.600 337.200 C 332.480 337.200,333.200 337.020,333.200 336.800 C 333.200 336.580,333.740 336.400,334.400 336.400 C 335.060 336.400,335.600 336.220,335.600 336.000 C 335.600 335.780,336.039 335.600,336.576 335.600 C 337.113 335.600,337.664 335.420,337.800 335.200 C 337.936 334.980,338.397 334.800,338.824 334.800 C 339.251 334.800,339.600 334.654,339.600 334.475 C 339.600 334.296,340.230 333.902,341.000 333.600 C 341.770 333.298,342.400 332.904,342.400 332.725 C 342.400 332.546,342.760 332.400,343.200 332.400 C 343.640 332.400,344.000 332.232,344.000 332.027 C 344.000 331.822,344.366 331.538,344.813 331.396 C 345.260 331.254,346.062 330.702,346.595 330.169 C 347.128 329.636,347.770 329.200,348.021 329.200 C 348.273 329.200,348.956 328.695,349.540 328.079 C 350.123 327.462,351.410 326.392,352.400 325.702 C 353.390 325.012,355.138 323.492,356.284 322.324 C 362.488 316.003,365.200 313.085,365.200 312.732 C 365.200 312.515,365.920 311.646,366.800 310.800 C 367.680 309.954,368.400 309.161,368.400 309.036 C 368.400 308.810,369.347 307.588,370.300 306.584 C 370.575 306.294,370.800 305.879,370.800 305.662 C 370.800 305.445,370.950 305.207,371.134 305.133 C 371.642 304.931,375.200 299.480,375.200 298.904 C 375.200 298.627,375.380 298.400,375.600 298.400 C 375.820 298.400,376.000 298.130,376.000 297.800 C 376.000 297.470,376.180 297.200,376.400 297.200 C 376.620 297.200,376.800 296.922,376.800 296.583 C 376.800 296.244,377.160 295.580,377.600 295.108 C 378.040 294.636,378.400 294.013,378.400 293.725 C 378.400 293.436,378.580 293.200,378.800 293.200 C 379.020 293.200,379.200 292.840,379.200 292.400 C 379.200 291.960,379.380 291.600,379.600 291.600 C 379.820 291.600,380.000 291.330,380.000 291.000 C 380.000 290.670,380.180 290.400,380.400 290.400 C 380.620 290.400,380.800 290.040,380.800 289.600 C 380.800 289.160,380.980 288.800,381.200 288.800 C 381.420 288.800,381.600 288.440,381.600 288.000 C 381.600 287.560,381.780 287.200,382.000 287.200 C 382.220 287.200,382.400 286.840,382.400 286.400 C 382.400 285.960,382.580 285.600,382.800 285.600 C 383.020 285.600,383.200 285.240,383.200 284.800 C 383.200 284.360,383.380 284.000,383.600 284.000 C 383.820 284.000,384.000 283.640,384.000 283.200 C 384.000 282.760,384.180 282.400,384.400 282.400 C 384.620 282.400,384.800 282.040,384.800 281.600 C 384.800 281.160,384.980 280.800,385.200 280.800 C 385.420 280.800,385.600 280.451,385.600 280.024 C 385.600 279.597,385.780 279.136,386.000 279.000 C 386.220 278.864,386.400 278.313,386.400 277.776 C 386.400 277.239,386.580 276.800,386.800 276.800 C 387.020 276.800,387.200 276.440,387.200 276.000 C 387.200 275.560,387.380 275.200,387.600 275.200 C 387.820 275.200,388.000 274.838,388.000 274.395 C 388.000 273.952,388.159 273.277,388.353 272.895 C 388.548 272.513,388.929 271.660,389.200 271.000 C 389.471 270.340,389.852 269.487,390.047 269.105 C 390.241 268.723,390.400 268.059,390.400 267.629 C 390.400 267.199,390.567 266.744,390.772 266.617 C 390.977 266.491,391.267 265.400,391.418 264.194 C 391.569 262.987,391.851 262.000,392.046 262.000 C 392.241 262.000,392.400 261.460,392.400 260.800 C 392.400 260.140,392.580 259.600,392.800 259.600 C 393.020 259.600,393.200 258.981,393.200 258.224 C 393.200 257.467,393.380 256.736,393.600 256.600 C 393.820 256.464,394.000 255.834,394.000 255.200 C 394.000 254.566,394.180 253.936,394.400 253.800 C 394.620 253.664,394.800 252.944,394.800 252.200 C 394.800 251.456,394.980 250.736,395.200 250.600 C 395.420 250.464,395.600 249.643,395.600 248.776 C 395.600 247.909,395.780 247.200,396.000 247.200 C 396.220 247.200,396.400 246.491,396.400 245.624 C 396.400 244.757,396.580 243.936,396.800 243.800 C 397.020 243.664,397.200 242.674,397.200 241.600 C 397.200 240.526,397.380 239.536,397.600 239.400 C 397.820 239.264,398.000 238.173,398.000 236.976 C 398.000 235.779,398.166 234.800,398.368 234.800 C 398.571 234.800,398.832 233.495,398.949 231.900 C 399.066 230.305,399.363 226.480,399.610 223.400 C 400.224 215.727,399.947 177.516,399.275 177.292 C 398.970 177.190,398.800 176.151,398.800 174.390 C 398.800 172.882,398.620 171.536,398.400 171.400 C 398.180 171.264,398.000 170.083,398.000 168.776 C 398.000 167.459,397.822 166.400,397.600 166.400 C 397.380 166.400,397.200 165.511,397.200 164.424 C 397.200 163.337,397.020 162.336,396.800 162.200 C 396.580 162.064,396.400 161.153,396.400 160.176 C 396.400 159.199,396.220 158.400,396.000 158.400 C 395.780 158.400,395.600 157.601,395.600 156.624 C 395.600 155.647,395.420 154.736,395.200 154.600 C 394.980 154.464,394.800 153.643,394.800 152.776 C 394.800 151.909,394.620 151.200,394.400 151.200 C 394.180 151.200,394.000 150.581,394.000 149.824 C 394.000 149.067,393.820 148.336,393.600 148.200 C 393.380 148.064,393.200 147.423,393.200 146.776 C 393.200 146.129,393.020 145.600,392.800 145.600 C 392.580 145.600,392.400 144.970,392.400 144.200 C 392.400 143.430,392.238 142.800,392.039 142.800 C 391.841 142.800,391.553 141.720,391.400 140.400 C 391.247 139.080,390.959 138.000,390.761 138.000 C 390.562 138.000,390.400 137.460,390.400 136.800 C 390.400 136.140,390.220 135.600,390.000 135.600 C 389.780 135.600,389.600 135.148,389.600 134.595 C 389.600 134.042,389.441 133.277,389.247 132.895 C 389.052 132.513,388.692 131.705,388.447 131.100 C 388.201 130.495,387.799 129.505,387.553 128.900 C 387.308 128.295,386.948 127.487,386.753 127.105 C 386.559 126.723,386.400 126.048,386.400 125.605 C 386.400 125.162,386.220 124.800,386.000 124.800 C 385.780 124.800,385.600 124.451,385.600 124.024 C 385.600 123.597,385.420 123.136,385.200 123.000 C 384.980 122.864,384.800 122.313,384.800 121.776 C 384.800 121.239,384.620 120.800,384.400 120.800 C 384.180 120.800,384.000 120.440,384.000 120.000 C 384.000 119.560,383.820 119.200,383.600 119.200 C 383.380 119.200,383.200 118.840,383.200 118.400 C 383.200 117.960,383.020 117.600,382.800 117.600 C 382.580 117.600,382.401 117.285,382.403 116.900 C 382.407 116.125,379.186 109.478,378.704 109.267 C 378.537 109.193,378.400 108.788,378.400 108.367 C 378.400 107.945,378.220 107.600,378.000 107.600 C 377.780 107.600,377.600 107.240,377.600 106.800 C 377.600 106.360,377.420 106.000,377.200 106.000 C 376.980 106.000,376.800 105.764,376.800 105.475 C 376.800 105.187,376.440 104.564,376.000 104.092 C 375.560 103.620,375.200 102.990,375.200 102.693 C 375.200 102.396,374.615 101.170,373.900 99.968 C 373.185 98.766,372.345 97.292,372.032 96.692 C 371.720 96.091,371.315 95.600,371.132 95.600 C 370.950 95.600,370.800 95.413,370.800 95.184 C 370.800 94.710,369.155 92.269,368.700 92.067 C 368.535 91.993,368.400 91.723,368.399 91.467 C 368.399 91.210,367.859 90.370,367.200 89.600 C 366.541 88.830,366.001 88.015,366.001 87.788 C 366.000 87.562,365.640 87.117,365.200 86.800 C 364.760 86.483,364.400 86.020,364.400 85.771 C 364.400 85.522,363.860 84.754,363.200 84.063 C 362.540 83.372,362.000 82.647,362.000 82.452 C 362.000 82.256,361.280 81.355,360.400 80.448 C 359.520 79.541,358.800 78.647,358.800 78.462 C 358.800 78.276,357.855 77.144,356.700 75.945 C 355.545 74.747,354.073 73.069,353.429 72.217 C 352.061 70.407,344.678 63.042,342.819 61.632 C 342.116 61.099,340.697 59.837,339.665 58.826 C 338.633 57.816,337.162 56.547,336.395 56.007 C 335.628 55.468,334.339 54.345,333.531 53.513 C 332.724 52.681,331.851 52.000,331.592 52.000 C 331.333 52.000,330.617 51.460,330.000 50.800 C 329.383 50.140,328.708 49.600,328.499 49.600 C 328.290 49.600,327.597 49.104,326.959 48.497 C 325.441 47.052,320.484 43.600,319.928 43.600 C 319.689 43.600,319.203 43.284,318.847 42.897 C 318.491 42.511,317.705 41.940,317.100 41.630 C 316.495 41.319,316.000 40.915,316.000 40.732 C 316.000 40.550,315.680 40.400,315.288 40.400 C 314.897 40.400,314.317 40.040,314.000 39.600 C 313.683 39.160,313.103 38.800,312.712 38.800 C 312.320 38.800,312.000 38.642,312.000 38.449 C 312.000 38.255,311.460 37.873,310.800 37.600 C 310.140 37.327,309.600 36.978,309.600 36.826 C 309.600 36.674,308.970 36.302,308.200 36.000 C 307.430 35.698,306.800 35.304,306.800 35.125 C 306.800 34.946,306.530 34.800,306.200 34.800 C 305.870 34.800,305.600 34.654,305.600 34.475 C 305.600 34.296,304.970 33.902,304.200 33.600 C 303.430 33.298,302.800 32.904,302.800 32.725 C 302.800 32.546,302.440 32.400,302.000 32.400 C 301.560 32.400,301.200 32.220,301.200 32.000 C 301.200 31.780,300.840 31.600,300.400 31.600 C 299.960 31.600,299.600 31.420,299.600 31.200 C 299.600 30.980,299.240 30.800,298.800 30.800 C 298.360 30.800,298.000 30.620,298.000 30.400 C 298.000 30.180,297.640 30.000,297.200 30.000 C 296.760 30.000,296.399 29.865,296.397 29.700 C 296.393 29.341,294.456 28.400,293.720 28.400 C 293.434 28.400,293.200 28.240,293.200 28.045 C 293.200 27.849,292.570 27.571,291.800 27.426 C 291.030 27.282,290.400 26.992,290.400 26.782 C 290.400 26.572,290.040 26.400,289.600 26.400 C 289.160 26.400,288.800 26.220,288.800 26.000 C 288.800 25.780,288.451 25.600,288.024 25.600 C 287.597 25.600,287.136 25.420,287.000 25.200 C 286.864 24.980,286.313 24.800,285.776 24.800 C 285.239 24.800,284.800 24.620,284.800 24.400 C 284.800 24.180,284.440 24.000,284.000 24.000 C 283.560 24.000,283.200 23.820,283.200 23.600 C 283.200 23.380,282.761 23.200,282.224 23.200 C 281.687 23.200,281.136 23.020,281.000 22.800 C 280.864 22.580,280.403 22.400,279.976 22.400 C 279.549 22.400,279.200 22.220,279.200 22.000 C 279.200 21.780,278.660 21.600,278.000 21.600 C 277.340 21.600,276.800 21.420,276.800 21.200 C 276.800 20.980,276.451 20.800,276.024 20.800 C 275.597 20.800,275.136 20.620,275.000 20.400 C 274.864 20.180,274.313 20.000,273.776 20.000 C 273.239 20.000,272.800 19.820,272.800 19.600 C 272.800 19.380,272.350 19.200,271.800 19.200 C 271.250 19.200,270.800 19.020,270.800 18.800 C 270.800 18.580,270.260 18.400,269.600 18.400 C 268.940 18.400,268.400 18.220,268.400 18.000 C 268.400 17.780,267.860 17.600,267.200 17.600 C 266.540 17.600,266.000 17.420,266.000 17.200 C 266.000 16.980,265.471 16.800,264.824 16.800 C 264.177 16.800,263.536 16.620,263.400 16.400 C 263.264 16.180,262.533 16.000,261.776 16.000 C 261.019 16.000,260.400 15.820,260.400 15.600 C 260.400 15.380,259.871 15.200,259.224 15.200 C 258.577 15.200,257.936 15.020,257.800 14.800 C 257.664 14.580,257.034 14.400,256.400 14.400 C 255.766 14.400,255.136 14.220,255.000 14.000 C 254.864 13.780,254.144 13.600,253.400 13.600 C 252.656 13.600,251.936 13.420,251.800 13.200 C 251.664 12.980,250.879 12.800,250.056 12.800 C 249.233 12.800,248.389 12.638,248.180 12.441 C 247.971 12.244,247.080 11.983,246.200 11.861 C 245.320 11.740,243.610 11.444,242.400 11.205 C 238.260 10.384,235.799 10.067,233.300 10.034 C 231.923 10.015,230.800 9.820,230.800 9.600 C 230.800 9.367,229.467 9.200,227.600 9.200 C 225.733 9.200,224.400 9.033,224.400 8.800 C 224.400 8.557,222.600 8.400,219.800 8.400 C 217.000 8.400,215.200 8.243,215.200 8.000 C 215.200 7.741,210.267 7.600,201.200 7.600 C 192.133 7.600,187.200 7.741,187.200 8.000 M195.200 128.000 C 195.200 128.245,197.125 128.400,200.176 128.400 C 203.063 128.400,205.257 128.568,205.400 128.800 C 205.536 129.020,206.627 129.200,207.824 129.200 C 209.021 129.200,210.000 129.380,210.000 129.600 C 210.000 129.820,210.810 130.000,211.800 130.000 C 212.790 130.000,213.600 130.180,213.600 130.400 C 213.600 130.620,214.320 130.800,215.200 130.800 C 216.080 130.800,216.800 130.980,216.800 131.200 C 216.800 131.420,217.340 131.600,218.000 131.600 C 218.660 131.600,219.200 131.780,219.200 132.000 C 219.200 132.220,219.740 132.400,220.400 132.400 C 221.060 132.400,221.600 132.580,221.600 132.800 C 221.600 133.020,221.949 133.200,222.376 133.200 C 222.803 133.200,223.264 133.380,223.400 133.600 C 223.536 133.820,224.087 134.000,224.624 134.000 C 225.161 134.000,225.600 134.180,225.600 134.400 C 225.600 134.620,225.960 134.800,226.400 134.800 C 226.840 134.800,227.200 134.980,227.200 135.200 C 227.200 135.420,227.560 135.600,228.000 135.600 C 228.440 135.600,228.801 135.735,228.801 135.900 C 228.802 136.065,229.792 136.650,231.000 137.200 C 232.208 137.750,233.198 138.335,233.199 138.500 C 233.199 138.665,233.560 138.800,234.000 138.800 C 234.440 138.800,234.800 138.950,234.800 139.132 C 234.800 139.315,235.295 139.720,235.900 140.032 C 236.505 140.345,237.238 140.825,237.529 141.100 C 237.819 141.375,238.332 141.600,238.668 141.600 C 239.004 141.600,239.756 142.095,240.340 142.700 C 240.923 143.305,241.895 144.055,242.500 144.368 C 243.105 144.680,243.600 145.073,243.600 145.241 C 243.600 145.409,245.446 147.404,247.702 149.673 C 249.958 151.943,252.244 154.430,252.783 155.200 C 253.321 155.970,254.086 156.891,254.481 157.247 C 254.876 157.603,255.200 158.058,255.200 158.259 C 255.200 158.459,255.560 158.883,256.000 159.200 C 256.440 159.517,256.800 160.097,256.800 160.488 C 256.800 160.880,256.980 161.200,257.200 161.200 C 257.420 161.200,257.600 161.520,257.600 161.912 C 257.600 162.303,257.960 162.883,258.400 163.200 C 258.840 163.517,259.200 164.097,259.200 164.488 C 259.200 164.880,259.380 165.200,259.600 165.200 C 259.820 165.200,260.000 165.497,260.000 165.860 C 260.000 166.223,260.469 167.528,261.042 168.760 C 261.615 169.992,262.266 171.450,262.489 172.000 C 262.711 172.550,263.052 173.313,263.247 173.695 C 263.441 174.077,263.600 174.752,263.600 175.195 C 263.600 175.638,263.780 176.000,264.000 176.000 C 264.220 176.000,264.400 176.540,264.400 177.200 C 264.400 177.860,264.580 178.400,264.800 178.400 C 265.020 178.400,265.200 179.019,265.200 179.776 C 265.200 180.533,265.380 181.264,265.600 181.400 C 265.820 181.536,266.000 182.256,266.000 183.000 C 266.000 183.744,266.180 184.464,266.400 184.600 C 266.620 184.736,266.800 185.636,266.800 186.600 C 266.800 187.564,266.980 188.464,267.200 188.600 C 267.420 188.736,267.600 190.007,267.600 191.424 C 267.600 192.875,267.775 194.000,268.000 194.000 C 268.255 194.000,268.400 197.192,268.400 202.776 C 268.400 208.196,268.247 211.647,268.000 211.800 C 267.780 211.936,267.600 213.117,267.600 214.424 C 267.600 215.741,267.422 216.800,267.200 216.800 C 266.980 216.800,266.800 217.700,266.800 218.800 C 266.800 219.900,266.620 220.800,266.400 220.800 C 266.180 220.800,266.000 221.520,266.000 222.400 C 266.000 223.280,265.820 224.000,265.600 224.000 C 265.380 224.000,265.200 224.540,265.200 225.200 C 265.200 225.860,265.020 226.400,264.800 226.400 C 264.580 226.400,264.400 226.839,264.400 227.376 C 264.400 227.913,264.220 228.464,264.000 228.600 C 263.780 228.736,263.600 229.163,263.600 229.548 C 263.600 229.934,263.240 230.995,262.800 231.906 C 262.360 232.816,262.000 233.840,262.000 234.181 C 262.000 234.521,261.820 234.800,261.600 234.800 C 261.380 234.800,261.200 235.160,261.200 235.600 C 261.200 236.040,261.036 236.400,260.835 236.400 C 260.634 236.400,260.354 237.088,260.212 237.928 C 260.070 238.769,259.604 239.709,259.177 240.017 C 258.750 240.325,258.400 240.897,258.400 241.288 C 258.400 241.680,258.220 242.000,258.000 242.000 C 257.780 242.000,257.600 242.320,257.600 242.712 C 257.600 243.103,257.240 243.683,256.800 244.000 C 256.360 244.317,256.000 244.807,256.000 245.088 C 256.000 245.370,255.820 245.600,255.600 245.600 C 255.380 245.600,255.200 245.870,255.200 246.200 C 255.200 246.530,255.020 246.800,254.800 246.800 C 254.580 246.800,254.400 246.982,254.400 247.204 C 254.400 247.426,253.860 248.172,253.200 248.863 C 252.540 249.554,252.000 250.276,252.000 250.468 C 252.000 250.660,251.055 251.784,249.900 252.964 C 241.553 261.498,241.377 261.665,239.962 262.415 C 239.433 262.696,238.709 263.257,238.353 263.663 C 237.997 264.068,237.452 264.400,237.141 264.400 C 236.831 264.400,236.317 264.760,236.000 265.200 C 235.683 265.640,235.186 266.000,234.895 266.000 C 234.604 266.000,233.980 266.360,233.508 266.800 C 233.036 267.240,232.413 267.600,232.125 267.600 C 231.836 267.600,231.600 267.780,231.600 268.000 C 231.600 268.220,231.240 268.400,230.800 268.400 C 230.360 268.400,230.000 268.580,230.000 268.800 C 230.000 269.020,229.730 269.200,229.400 269.200 C 229.070 269.200,228.800 269.380,228.800 269.600 C 228.800 269.820,228.440 270.000,228.000 270.000 C 227.560 270.000,227.200 270.180,227.200 270.400 C 227.200 270.620,226.840 270.800,226.400 270.800 C 225.960 270.800,225.600 270.980,225.600 271.200 C 225.600 271.420,225.240 271.600,224.800 271.600 C 224.360 271.600,224.000 271.780,224.000 272.000 C 224.000 272.220,223.460 272.400,222.800 272.400 C 222.140 272.400,221.600 272.580,221.600 272.800 C 221.600 273.020,221.240 273.200,220.800 273.200 C 220.360 273.200,220.000 273.380,220.000 273.600 C 220.000 273.820,219.460 274.000,218.800 274.000 C 218.140 274.000,217.600 274.180,217.600 274.400 C 217.600 274.620,216.981 274.800,216.224 274.800 C 215.467 274.800,214.736 274.980,214.600 275.200 C 214.464 275.420,213.834 275.600,213.200 275.600 C 212.566 275.600,211.936 275.780,211.800 276.000 C 211.664 276.220,210.858 276.400,210.010 276.400 C 209.131 276.400,208.395 276.615,208.300 276.900 C 208.171 277.288,204.751 277.400,193.000 277.400 C 181.249 277.400,177.829 277.288,177.700 276.900 C 177.604 276.613,176.864 276.400,175.967 276.400 C 175.105 276.400,174.400 276.220,174.400 276.000 C 174.400 275.780,173.770 275.600,173.000 275.600 C 172.230 275.600,171.600 275.420,171.600 275.200 C 171.600 274.980,171.060 274.800,170.400 274.800 C 169.740 274.800,169.200 274.620,169.200 274.400 C 169.200 274.180,168.660 274.000,168.000 274.000 C 167.340 274.000,166.800 273.820,166.800 273.600 C 166.800 273.380,166.361 273.200,165.824 273.200 C 165.287 273.200,164.736 273.020,164.600 272.800 C 164.464 272.580,164.003 272.400,163.576 272.400 C 163.149 272.400,162.800 272.220,162.800 272.000 C 162.800 271.780,162.440 271.600,162.000 271.600 C 161.560 271.600,161.200 271.420,161.200 271.200 C 161.200 270.980,160.840 270.800,160.400 270.800 C 159.960 270.800,159.600 270.654,159.600 270.475 C 159.600 270.296,158.970 269.902,158.200 269.600 C 157.430 269.298,156.800 268.904,156.800 268.725 C 156.800 268.546,156.564 268.400,156.275 268.400 C 155.987 268.400,155.364 268.040,154.892 267.600 C 154.420 267.160,153.838 266.800,153.599 266.800 C 153.359 266.800,152.714 266.350,152.164 265.800 C 151.614 265.250,151.011 264.800,150.824 264.800 C 150.637 264.800,149.945 264.305,149.287 263.700 C 148.628 263.095,147.695 262.330,147.214 262.000 C 144.147 259.895,141.586 257.346,139.905 254.726 C 139.526 254.135,138.762 253.198,138.208 252.644 C 137.654 252.090,137.200 251.493,137.199 251.318 C 137.199 251.143,136.659 250.370,136.000 249.600 C 135.341 248.830,134.801 247.975,134.801 247.700 C 134.800 247.425,134.620 247.200,134.400 247.200 C 134.180 247.200,134.000 246.930,134.000 246.600 C 134.000 246.270,133.820 246.000,133.600 246.000 C 133.380 246.000,133.200 245.730,133.200 245.400 C 133.200 245.070,133.020 244.800,132.800 244.800 C 132.580 244.800,132.400 244.530,132.400 244.200 C 132.400 243.870,132.220 243.600,132.000 243.600 C 131.780 243.600,131.600 243.240,131.600 242.800 C 131.600 242.360,131.420 242.000,131.200 242.000 C 130.980 242.000,130.800 241.640,130.800 241.200 C 130.800 240.760,130.620 240.400,130.400 240.400 C 130.180 240.400,130.000 240.040,130.000 239.600 C 130.000 239.160,129.820 238.800,129.600 238.800 C 129.380 238.800,129.200 238.440,129.200 238.000 C 129.200 237.560,129.020 237.200,128.800 237.200 C 128.580 237.200,128.400 236.660,128.400 236.000 C 128.400 235.340,128.220 234.800,128.000 234.800 C 127.780 234.800,127.600 234.451,127.600 234.024 C 127.600 233.597,127.420 233.136,127.200 233.000 C 126.980 232.864,126.800 232.313,126.800 231.776 C 126.800 231.239,126.620 230.800,126.400 230.800 C 126.180 230.800,126.000 230.170,126.000 229.400 C 126.000 228.630,125.838 228.000,125.641 228.000 C 125.443 228.000,125.153 226.695,124.996 225.100 C 124.839 223.505,124.570 222.020,124.397 221.800 C 124.077 221.394,123.901 220.140,123.158 213.000 C 122.407 205.771,122.733 196.124,123.969 189.000 C 124.198 187.680,124.601 185.115,124.865 183.300 C 125.128 181.485,125.491 180.000,125.672 180.000 C 125.852 180.000,126.000 179.460,126.000 178.800 C 126.000 178.140,126.180 177.600,126.400 177.600 C 126.620 177.600,126.800 177.060,126.800 176.400 C 126.800 175.740,126.980 175.200,127.200 175.200 C 127.420 175.200,127.600 174.761,127.600 174.224 C 127.600 173.687,127.780 173.136,128.000 173.000 C 128.220 172.864,128.400 172.313,128.400 171.776 C 128.400 171.239,128.580 170.800,128.800 170.800 C 129.020 170.800,129.200 170.440,129.200 170.000 C 129.200 169.560,129.380 169.200,129.600 169.200 C 129.820 169.200,130.000 168.840,130.000 168.400 C 130.000 167.960,130.180 167.600,130.400 167.600 C 130.620 167.600,130.800 167.240,130.800 166.800 C 130.800 166.360,130.980 166.000,131.200 166.000 C 131.420 166.000,131.600 165.640,131.600 165.200 C 131.600 164.760,131.780 164.400,132.000 164.400 C 132.220 164.400,132.400 164.040,132.400 163.600 C 132.400 163.160,132.580 162.800,132.800 162.800 C 133.020 162.800,133.200 162.440,133.200 162.000 C 133.200 161.560,133.358 161.200,133.551 161.200 C 133.745 161.200,134.127 160.660,134.400 160.000 C 134.673 159.340,135.055 158.800,135.249 158.800 C 135.442 158.800,135.600 158.530,135.600 158.200 C 135.600 157.870,135.741 157.600,135.914 157.600 C 136.086 157.600,136.537 157.077,136.915 156.437 C 137.293 155.797,138.186 154.560,138.901 153.689 C 139.615 152.817,140.470 151.695,140.800 151.195 C 141.774 149.719,148.328 143.200,148.838 143.200 C 149.095 143.200,149.597 142.877,149.953 142.483 C 150.309 142.088,151.455 141.233,152.499 140.583 C 153.544 139.932,154.399 139.265,154.399 139.100 C 154.400 138.935,154.593 138.800,154.828 138.800 C 155.063 138.800,156.041 138.260,157.000 137.600 C 157.959 136.940,158.937 136.400,159.172 136.400 C 159.407 136.400,159.600 136.220,159.600 136.000 C 159.600 135.780,159.960 135.600,160.400 135.600 C 160.840 135.600,161.200 135.420,161.200 135.200 C 161.200 134.980,161.560 134.800,162.000 134.800 C 162.440 134.800,162.800 134.620,162.800 134.400 C 162.800 134.180,163.239 134.000,163.776 134.000 C 164.313 134.000,164.864 133.820,165.000 133.600 C 165.136 133.380,165.597 133.200,166.024 133.200 C 166.451 133.200,166.800 133.020,166.800 132.800 C 166.800 132.580,167.340 132.400,168.000 132.400 C 168.660 132.400,169.200 132.220,169.200 132.000 C 169.200 131.780,169.639 131.600,170.176 131.600 C 170.713 131.600,171.264 131.420,171.400 131.200 C 171.536 130.980,172.177 130.800,172.824 130.800 C 173.471 130.800,174.000 130.620,174.000 130.400 C 174.000 130.180,174.810 130.000,175.800 130.000 C 176.790 130.000,177.600 129.820,177.600 129.600 C 177.600 129.380,178.579 129.200,179.776 129.200 C 180.973 129.200,182.064 129.020,182.200 128.800 C 182.343 128.568,184.537 128.400,187.424 128.400 C 190.475 128.400,192.400 128.245,192.400 128.000 C 192.400 127.780,193.030 127.600,193.800 127.600 C 194.570 127.600,195.200 127.780,195.200 128.000 " stroke="none" fill="#040404" fill-rule="evenodd"></path><path id="path1" d="" stroke="none" fill="#080404" fill-rule="evenodd"></path><path id="path2" d="" stroke="none" fill="#080404" fill-rule="evenodd"></path><path id="path3" d="" stroke="none" fill="#080404" fill-rule="evenodd"></path><path id="path4" d="" stroke="none" fill="#080404" fill-rule="evenodd"></path></g></svg>