<svg id="svg" version="1.1" xmlns="http://www.w3.org/2000/svg" xmlns:xlink="http://www.w3.org/1999/xlink" width="400" height="165" viewBox="0, 0, 400,165"><g id="svgg"><path id="path0" d="M48.500 0.310 C 48.500 0.569,48.331 0.636,47.488 0.712 C 46.415 0.809,45.833 1.154,45.833 1.692 C 45.833 1.940,45.704 2.000,45.167 2.000 C 44.516 2.000,44.500 2.014,44.500 2.583 L 44.500 3.167 43.514 3.167 C 42.177 3.167,42.000 3.256,42.000 3.934 L 42.000 4.500 41.159 4.500 C 40.328 4.500,39.500 4.995,39.500 5.492 C 39.500 5.588,39.290 5.667,39.033 5.667 C 38.441 5.667,38.167 5.941,38.167 6.533 C 38.167 6.979,38.131 7.000,37.370 7.000 C 36.476 7.000,35.833 7.352,35.833 7.843 C 35.833 8.059,35.719 8.167,35.489 8.167 C 34.875 8.167,34.500 8.481,34.500 8.996 C 34.500 9.435,34.442 9.485,33.875 9.532 C 33.304 9.579,33.245 9.630,33.198 10.125 C 33.150 10.621,33.097 10.667,32.573 10.667 C 32.196 10.667,32.000 10.746,32.000 10.897 C 32.000 11.024,31.844 11.168,31.654 11.218 C 31.464 11.268,31.271 11.452,31.225 11.628 C 31.173 11.827,30.912 12.004,30.531 12.099 C 30.113 12.202,29.851 12.394,29.702 12.706 C 29.566 12.991,29.288 13.212,28.959 13.297 C 28.559 13.401,28.401 13.558,28.298 13.956 C 28.186 14.389,28.070 14.488,27.623 14.531 C 27.149 14.577,27.077 14.649,27.031 15.125 C 26.988 15.569,26.908 15.667,26.585 15.667 C 26.080 15.667,25.667 16.080,25.667 16.585 C 25.667 16.908,25.569 16.988,25.125 17.031 C 24.649 17.077,24.577 17.149,24.531 17.625 C 24.488 18.069,24.408 18.167,24.085 18.167 C 23.576 18.167,23.167 18.581,23.167 19.095 C 23.167 19.384,23.074 19.500,22.845 19.500 C 22.403 19.500,22.000 19.942,22.000 20.429 C 22.000 20.711,21.907 20.833,21.692 20.833 C 21.297 20.833,20.910 21.283,20.760 21.917 C 20.627 22.479,20.056 23.167,19.721 23.167 C 19.575 23.167,19.500 23.389,19.500 23.823 C 19.500 24.462,19.483 24.481,18.875 24.532 C 18.313 24.578,18.245 24.635,18.200 25.093 C 18.160 25.504,18.047 25.633,17.617 25.759 C 17.158 25.895,17.076 26.002,17.033 26.526 C 16.992 27.012,16.900 27.156,16.575 27.237 C 16.119 27.352,15.667 28.240,15.667 29.020 C 15.667 29.457,15.615 29.500,15.083 29.500 C 14.513 29.500,14.500 29.515,14.500 30.171 C 14.500 30.725,14.431 30.868,14.101 30.993 C 13.642 31.168,13.167 32.015,13.167 32.658 C 13.167 33.010,13.059 33.129,12.625 33.257 C 12.090 33.415,12.083 33.431,12.034 34.542 C 11.986 35.646,11.976 35.667,11.526 35.667 C 10.838 35.667,10.667 35.954,10.667 37.106 L 10.667 38.146 10.125 38.198 C 9.605 38.248,9.581 38.282,9.532 39.049 C 9.489 39.720,9.416 39.874,9.074 40.004 C 8.850 40.089,8.667 40.265,8.667 40.395 C 8.667 40.525,8.554 40.674,8.417 40.727 C 8.227 40.800,8.167 41.107,8.167 41.995 C 8.167 43.039,8.132 43.167,7.847 43.167 C 7.095 43.167,7.000 43.318,7.000 44.518 C 7.000 45.556,6.968 45.667,6.667 45.667 C 5.911 45.667,5.667 46.214,5.667 47.906 L 5.667 49.479 5.125 49.531 L 4.583 49.583 4.536 51.357 L 4.489 53.132 3.930 53.237 C 3.233 53.367,3.172 53.572,3.169 55.777 L 3.167 57.470 2.625 57.926 L 2.083 58.381 2.000 61.399 L 1.917 64.417 1.500 64.470 C 0.639 64.581,0.667 64.098,0.667 78.782 C 0.667 93.921,0.614 93.167,1.663 93.167 C 1.978 93.167,1.995 93.305,2.038 96.208 L 2.083 99.250 2.625 99.302 L 3.167 99.354 3.169 101.386 C 3.172 103.678,3.335 104.220,4.046 104.303 L 4.500 104.355 4.503 105.969 C 4.505 107.768,4.558 107.924,5.210 108.088 C 5.649 108.198,5.667 108.245,5.676 109.310 C 5.688 110.766,5.959 111.541,6.500 111.667 C 6.888 111.757,6.922 111.848,7.000 113.007 L 7.083 114.250 7.618 114.302 L 8.152 114.353 8.201 115.552 L 8.250 116.750 8.868 116.801 L 9.486 116.853 9.535 118.051 L 9.583 119.250 10.125 119.302 L 10.667 119.354 10.667 120.330 C 10.667 121.656,10.757 121.833,11.434 121.833 L 12.000 121.833 12.000 122.883 C 12.000 124.009,12.173 124.333,12.773 124.333 C 13.084 124.333,13.155 124.438,13.198 124.958 C 13.247 125.549,13.284 125.586,13.875 125.635 L 14.500 125.687 14.500 126.826 C 14.500 128.011,14.597 128.167,15.336 128.167 C 15.563 128.167,15.659 128.311,15.698 128.708 C 15.745 129.203,15.804 129.255,16.375 129.302 L 17.000 129.353 17.000 130.331 C 17.000 131.378,17.256 131.833,17.845 131.833 C 18.074 131.833,18.167 131.949,18.167 132.238 C 18.167 132.756,18.577 133.167,19.095 133.167 C 19.447 133.167,19.500 133.243,19.500 133.750 C 19.500 134.306,19.528 134.333,20.083 134.333 C 20.640 134.333,20.667 134.360,20.667 134.922 C 20.667 135.309,20.758 135.546,20.935 135.613 C 21.446 135.809,22.000 136.457,22.000 136.857 C 22.000 137.402,22.421 137.966,22.876 138.030 C 23.129 138.066,23.269 138.218,23.308 138.500 C 23.386 139.069,23.635 139.333,24.093 139.333 C 24.389 139.333,24.490 139.439,24.531 139.792 C 24.568 140.119,24.732 140.315,25.104 140.479 C 25.401 140.610,25.723 140.932,25.854 141.229 C 26.011 141.587,26.217 141.766,26.509 141.800 C 26.826 141.837,26.976 141.986,27.093 142.383 C 27.214 142.794,27.356 142.929,27.711 142.970 C 28.053 143.009,28.232 143.167,28.407 143.585 C 28.595 144.035,28.764 144.170,29.259 144.263 C 29.654 144.337,29.905 144.488,29.956 144.684 C 30.000 144.852,30.171 145.032,30.336 145.084 C 30.501 145.137,30.678 145.289,30.729 145.423 C 30.787 145.573,31.049 145.667,31.411 145.667 C 31.973 145.667,32.000 145.693,32.000 146.250 C 32.000 146.806,32.028 146.833,32.583 146.833 C 33.111 146.833,33.167 146.878,33.167 147.300 C 33.167 147.892,33.441 148.167,34.033 148.167 C 34.383 148.167,34.500 148.247,34.500 148.488 C 34.500 149.077,34.955 149.333,36.002 149.333 L 36.980 149.333 37.032 149.958 C 37.078 150.520,37.135 150.588,37.593 150.633 C 38.004 150.673,38.133 150.786,38.259 151.216 C 38.414 151.741,38.436 151.751,39.532 151.799 L 40.647 151.848 40.699 152.466 C 40.747 153.048,40.785 153.086,41.375 153.135 C 41.856 153.175,42.000 153.259,42.000 153.498 C 42.000 154.079,42.460 154.333,43.512 154.333 L 44.500 154.333 44.500 154.899 C 44.500 155.577,44.677 155.667,46.014 155.667 L 47.000 155.667 47.000 156.250 L 47.000 156.833 48.240 156.833 L 49.480 156.833 49.532 157.458 L 49.583 158.083 50.782 158.132 L 51.980 158.181 52.032 158.715 L 52.083 159.250 53.292 159.299 C 54.433 159.345,54.500 159.370,54.500 159.737 C 54.500 160.385,54.917 160.564,56.601 160.638 C 57.972 160.698,58.167 160.744,58.167 161.006 C 58.167 161.789,58.274 161.833,60.184 161.833 L 62.000 161.833 62.000 162.327 C 62.000 163.034,62.382 163.167,64.417 163.167 L 66.189 163.167 66.739 163.750 L 67.289 164.333 70.228 164.333 C 73.056 164.333,73.167 164.346,73.167 164.667 C 73.167 164.998,73.278 165.000,88.167 165.000 C 103.056 165.000,103.167 164.998,103.167 164.667 C 103.167 164.344,103.278 164.333,106.571 164.333 C 110.200 164.333,110.500 164.269,110.500 163.488 C 110.500 163.183,110.648 163.167,113.458 163.166 C 116.895 163.165,117.623 163.026,117.889 162.320 L 118.073 161.833 121.245 161.831 C 124.613 161.828,125.107 161.734,125.415 161.039 C 125.577 160.670,125.615 160.667,129.165 160.666 C 133.053 160.666,133.718 160.537,134.081 159.708 C 134.245 159.334,134.257 159.333,138.252 159.333 C 142.530 159.333,143.000 159.250,143.000 158.491 C 143.000 158.179,143.156 158.166,147.125 158.154 C 151.629 158.140,152.438 158.022,152.783 157.329 L 152.988 156.917 158.227 156.833 C 163.775 156.745,164.167 156.683,164.167 155.891 C 164.167 155.707,165.236 155.667,170.072 155.667 C 176.402 155.667,176.778 155.623,176.863 154.884 L 176.917 154.417 185.500 154.333 L 194.083 154.250 194.625 153.864 C 194.923 153.651,195.167 153.407,195.167 153.322 C 195.167 153.226,209.796 153.167,233.167 153.167 C 263.455 153.167,271.167 153.209,271.168 153.375 C 271.173 154.254,271.934 154.333,280.408 154.333 L 288.333 154.333 288.333 154.730 C 288.333 155.555,288.493 155.580,294.275 155.635 C 299.353 155.685,299.667 155.705,299.667 155.990 C 299.667 156.697,299.989 156.747,304.827 156.801 L 309.436 156.852 309.593 157.384 C 309.803 158.095,309.983 158.123,314.542 158.147 L 318.333 158.167 318.333 158.563 C 318.333 159.270,318.597 159.324,322.263 159.372 C 325.702 159.416,325.751 159.422,325.802 159.780 C 325.907 160.519,326.191 160.580,329.775 160.637 C 333.154 160.691,333.167 160.693,333.167 161.062 C 333.167 161.779,333.403 161.833,336.533 161.833 L 339.500 161.833 339.500 162.327 C 339.500 163.079,339.855 163.167,342.906 163.167 C 345.516 163.167,345.667 163.184,345.667 163.486 C 345.667 164.317,345.717 164.333,348.268 164.333 C 350.556 164.333,350.667 164.349,350.667 164.667 C 350.667 164.990,350.778 165.000,354.250 165.000 L 357.833 165.000 357.831 164.542 C 357.826 163.665,356.882 163.167,355.229 163.167 C 354.544 163.167,354.333 163.108,354.333 162.917 C 354.333 162.227,353.741 162.000,351.943 162.000 C 350.267 162.000,350.215 161.989,350.030 161.583 C 349.926 161.354,349.734 161.167,349.605 161.167 C 349.475 161.167,349.326 161.054,349.273 160.917 C 349.196 160.717,348.832 160.667,347.456 160.667 L 345.736 160.667 345.576 160.125 L 345.417 159.583 343.452 159.536 C 341.546 159.491,341.482 159.477,341.301 159.078 C 341.197 158.852,341.045 158.667,340.961 158.667 C 340.878 158.667,340.697 158.554,340.560 158.417 C 340.369 158.226,339.894 158.167,338.567 158.167 C 336.859 158.167,336.822 158.159,336.666 157.747 C 336.435 157.141,335.883 157.000,333.739 157.000 C 331.844 157.000,331.833 156.998,331.833 156.604 C 331.833 155.875,331.453 155.754,328.975 155.692 C 326.894 155.640,326.667 155.606,326.667 155.338 C 326.667 154.694,326.228 154.586,323.391 154.527 C 320.838 154.475,320.667 154.451,320.667 154.152 C 320.667 153.295,320.212 153.167,317.177 153.167 L 314.354 153.167 314.302 152.625 L 314.250 152.083 311.208 152.038 C 308.305 151.995,308.167 151.978,308.167 151.663 C 308.167 150.791,307.725 150.667,304.623 150.667 C 301.806 150.667,301.742 150.659,301.581 150.295 C 301.266 149.582,300.809 149.505,296.875 149.502 L 293.167 149.500 293.164 149.125 C 293.158 148.253,293.160 148.254,288.590 148.200 L 284.333 148.151 284.333 147.762 C 284.333 147.039,284.126 147.007,279.069 146.961 C 274.366 146.918,274.249 146.909,274.201 146.577 C 274.088 145.783,273.846 145.753,266.969 145.699 L 260.521 145.649 260.469 145.287 C 260.353 144.483,261.103 144.507,235.417 144.464 C 221.899 144.441,214.579 144.385,218.805 144.337 C 226.948 144.243,226.833 144.257,226.833 143.385 C 226.833 143.206,230.597 143.167,247.583 143.167 L 268.333 143.167 268.333 143.550 C 268.333 144.348,268.149 144.333,278.499 144.333 L 288.264 144.333 288.424 144.874 C 288.645 145.624,288.854 145.646,295.958 145.657 C 300.044 145.664,302.000 145.723,302.000 145.841 C 302.000 145.937,302.184 146.199,302.409 146.424 L 302.818 146.833 307.997 146.833 L 313.175 146.833 313.276 147.337 C 313.425 148.084,313.378 148.077,318.498 148.167 C 323.081 148.247,323.248 148.262,323.308 148.583 C 323.444 149.323,323.509 149.333,327.854 149.333 L 332.000 149.333 332.003 149.708 C 332.008 150.578,332.015 150.580,336.494 150.636 L 340.667 150.688 340.667 151.061 C 340.667 151.794,340.870 151.833,344.617 151.833 L 348.167 151.833 348.167 152.238 C 348.167 153.114,348.394 153.167,352.179 153.167 L 355.667 153.167 355.667 153.550 C 355.667 154.273,355.906 154.333,358.796 154.333 L 361.526 154.333 362.013 153.846 C 362.950 152.909,362.171 152.000,360.429 152.000 C 359.386 152.000,359.333 151.981,359.333 151.604 C 359.333 150.881,358.948 150.754,356.567 150.692 L 354.352 150.634 354.301 150.109 L 354.250 149.583 351.792 149.537 L 349.333 149.491 349.333 149.001 C 349.333 148.300,348.948 148.167,346.916 148.167 L 345.144 148.167 344.594 147.583 L 344.044 147.000 341.689 147.000 L 339.333 147.000 339.333 146.496 C 339.333 145.785,338.896 145.667,336.259 145.667 C 334.234 145.667,334.032 145.639,333.958 145.356 C 333.783 144.690,332.953 144.500,330.183 144.495 L 327.583 144.491 327.167 143.923 C 326.626 143.186,326.555 143.172,323.409 143.169 L 320.736 143.167 320.576 142.625 L 320.417 142.083 316.792 142.038 C 313.167 141.994,313.167 141.993,313.164 141.622 C 313.158 140.783,313.052 140.754,309.840 140.698 C 308.018 140.666,306.833 140.581,306.833 140.482 C 306.833 140.392,306.649 140.134,306.424 139.909 L 306.015 139.500 301.424 139.500 L 296.833 139.500 296.833 139.104 C 296.833 138.290,296.624 138.254,291.559 138.199 L 286.835 138.148 286.730 137.728 C 286.561 137.056,286.090 137.000,280.584 137.000 C 275.493 137.000,275.353 136.991,275.249 136.665 C 274.964 135.764,274.852 135.754,264.792 135.702 C 255.785 135.655,255.500 135.644,255.500 135.336 C 255.500 134.466,256.324 134.500,235.224 134.500 C 214.827 134.500,214.954 134.495,214.668 135.247 L 214.508 135.667 206.212 135.669 C 197.229 135.672,197.131 135.681,197.031 136.546 L 196.978 137.000 191.606 137.000 C 185.919 137.000,185.833 137.012,185.833 137.783 L 185.833 138.167 181.739 138.167 C 177.286 138.167,177.000 138.217,177.000 139.006 L 177.000 139.500 173.438 139.500 C 169.242 139.500,168.884 139.550,168.519 140.191 L 168.250 140.665 165.964 140.666 C 163.462 140.667,162.690 140.867,162.355 141.602 C 162.182 141.982,162.117 141.992,159.631 142.037 L 157.083 142.083 157.031 142.625 L 156.979 143.167 154.711 143.167 C 152.199 143.167,151.276 143.411,151.091 144.125 C 150.997 144.487,150.926 144.500,149.038 144.501 C 146.983 144.501,146.000 144.797,146.000 145.414 C 146.000 145.592,145.840 145.661,145.458 145.647 C 145.160 145.637,145.045 145.594,145.203 145.553 C 145.371 145.509,145.533 145.245,145.595 144.915 C 145.685 144.433,145.776 144.345,146.225 144.301 C 146.683 144.257,146.757 144.181,146.802 143.708 C 146.847 143.242,146.918 143.167,147.311 143.167 C 147.893 143.167,148.167 142.889,148.167 142.300 C 148.167 141.878,148.222 141.833,148.750 141.833 C 149.306 141.833,149.333 141.806,149.333 141.250 C 149.333 140.722,149.378 140.667,149.800 140.667 C 150.392 140.667,150.667 140.392,150.667 139.800 C 150.667 139.378,150.722 139.333,151.250 139.333 C 151.806 139.333,151.833 139.306,151.833 138.750 C 151.833 138.222,151.878 138.167,152.300 138.167 C 152.889 138.167,153.167 137.893,153.167 137.311 C 153.167 136.918,153.242 136.847,153.708 136.802 C 154.179 136.757,154.257 136.682,154.301 136.230 C 154.342 135.806,154.450 135.682,154.884 135.558 C 155.313 135.435,155.447 135.285,155.571 134.786 C 155.674 134.375,155.821 134.167,156.009 134.167 C 156.457 134.167,156.681 133.762,156.783 132.770 C 156.878 131.854,156.881 131.851,157.481 131.800 C 158.018 131.755,158.089 131.694,158.133 131.241 C 158.173 130.829,158.286 130.701,158.716 130.574 C 159.179 130.438,159.257 130.333,159.302 129.792 C 159.342 129.305,159.424 129.167,159.673 129.167 C 160.109 129.167,160.525 128.479,160.625 127.590 C 160.702 126.906,160.746 126.848,161.229 126.801 C 161.701 126.755,161.755 126.691,161.802 126.117 C 161.842 125.633,161.946 125.449,162.243 125.336 C 162.697 125.163,163.167 124.311,163.167 123.659 C 163.167 123.301,163.265 123.178,163.623 123.088 C 164.237 122.934,164.328 122.747,164.331 121.625 C 164.333 120.722,164.357 120.667,164.738 120.667 C 165.412 120.667,165.667 120.253,165.667 119.155 C 165.667 118.292,165.707 118.167,165.986 118.167 C 166.736 118.167,166.833 118.014,166.833 116.834 L 166.833 115.704 167.398 115.598 C 168.045 115.476,168.161 115.216,168.164 113.875 C 168.167 113.057,168.193 113.000,168.577 113.000 C 169.140 113.000,169.333 112.557,169.333 111.269 C 169.333 110.344,169.393 110.122,169.733 109.782 C 170.642 108.873,170.667 108.927,170.667 111.839 L 170.667 114.500 170.270 114.500 C 169.581 114.500,169.510 114.791,169.462 117.846 C 169.418 120.686,169.409 120.751,169.054 120.802 C 168.333 120.904,168.253 121.225,168.195 124.241 C 168.142 126.980,168.125 127.106,167.781 127.258 C 166.920 127.639,166.612 132.946,167.401 133.816 C 167.943 134.414,169.167 134.099,169.167 133.362 C 169.167 133.219,170.081 133.167,172.572 133.167 C 176.416 133.167,176.833 133.085,176.833 132.337 L 176.833 131.833 180.396 131.833 C 184.591 131.833,184.950 131.783,185.314 131.142 L 185.583 130.669 189.113 130.668 C 192.943 130.667,193.167 130.615,193.167 129.738 C 193.167 129.427,193.255 129.333,193.550 129.333 C 194.278 129.333,194.333 129.102,194.333 126.050 C 194.333 123.172,194.334 123.167,194.708 123.164 C 195.532 123.159,195.580 123.013,195.637 120.333 L 195.691 117.820 196.262 117.249 L 196.833 116.678 196.833 114.172 C 196.833 111.788,196.849 111.667,197.163 111.667 C 197.884 111.667,198.079 110.959,198.140 108.133 C 198.192 105.707,198.220 105.500,198.503 105.500 C 199.245 105.500,199.333 105.144,199.333 102.166 L 199.333 99.355 199.788 99.303 C 200.534 99.216,200.661 98.710,200.664 95.816 L 200.667 93.215 201.208 93.060 L 201.750 92.905 201.833 89.911 L 201.917 86.917 202.416 86.860 C 203.025 86.791,203.161 86.598,203.164 85.800 C 203.167 85.181,203.733 84.333,204.144 84.333 C 204.249 84.333,204.333 84.074,204.333 83.750 C 204.333 83.222,204.378 83.167,204.800 83.167 C 205.392 83.167,205.667 82.892,205.667 82.300 C 205.667 81.950,205.747 81.833,205.988 81.833 C 206.577 81.833,206.833 81.378,206.833 80.331 L 206.833 79.353 207.458 79.302 C 208.029 79.255,208.088 79.203,208.136 78.708 C 208.174 78.311,208.270 78.167,208.497 78.167 C 209.123 78.167,209.333 77.974,209.333 77.399 C 209.333 77.027,209.413 76.833,209.565 76.833 C 210.123 76.833,210.515 76.257,210.615 75.292 C 210.713 74.335,210.714 74.333,211.273 74.333 C 211.799 74.333,211.833 74.298,211.833 73.769 C 211.833 73.256,211.887 73.194,212.410 73.096 C 212.907 73.002,213.002 72.906,213.096 72.408 C 213.158 72.076,213.445 71.588,213.769 71.264 C 214.224 70.809,214.333 70.570,214.333 70.027 C 214.333 69.369,214.348 69.352,214.958 69.302 C 215.523 69.255,215.588 69.200,215.634 68.730 C 215.675 68.306,215.783 68.182,216.217 68.058 C 216.700 67.920,216.755 67.838,216.803 67.170 C 216.855 66.438,217.264 65.857,217.898 65.613 C 218.074 65.546,218.167 65.310,218.167 64.932 C 218.167 64.402,218.211 64.350,218.708 64.302 C 219.182 64.257,219.256 64.183,219.301 63.719 C 219.344 63.283,219.441 63.169,219.853 63.079 C 220.440 62.950,220.667 62.483,220.667 61.406 C 220.667 60.672,220.671 60.667,221.250 60.667 C 221.819 60.667,221.833 60.651,221.833 60.000 C 221.833 59.353,221.850 59.333,222.399 59.333 C 222.996 59.333,223.167 59.127,223.167 58.403 C 223.167 58.115,223.259 58.000,223.491 58.000 C 223.979 58.000,224.333 57.358,224.333 56.473 L 224.333 55.687 224.958 55.635 C 225.547 55.586,225.586 55.548,225.634 54.968 C 225.681 54.411,225.736 54.348,226.218 54.302 C 226.699 54.255,226.755 54.191,226.801 53.641 C 226.842 53.149,226.933 53.011,227.270 52.927 C 227.741 52.808,228.167 51.980,228.167 51.183 C 228.167 50.746,228.231 50.682,228.708 50.636 C 229.201 50.588,229.255 50.528,229.301 49.968 C 229.347 49.411,229.402 49.348,229.884 49.302 C 230.348 49.257,230.437 49.167,230.574 48.614 C 230.660 48.265,230.979 47.716,231.282 47.394 C 231.685 46.967,231.833 46.656,231.833 46.238 C 231.833 45.723,231.880 45.667,232.300 45.667 C 232.892 45.667,233.167 45.392,233.167 44.800 C 233.167 44.424,233.241 44.333,233.550 44.333 C 234.098 44.333,234.333 44.025,234.333 43.308 C 234.333 42.649,234.937 41.833,235.424 41.833 C 235.590 41.833,235.667 41.649,235.667 41.250 L 235.667 40.667 253.167 40.667 L 270.667 40.667 270.667 41.899 C 270.667 43.102,270.656 43.133,270.210 43.245 C 269.527 43.417,269.505 43.519,269.503 46.625 C 269.500 49.494,269.499 49.500,269.125 49.503 C 268.286 49.508,268.254 49.621,268.198 52.728 L 268.146 55.636 267.699 55.748 C 267.028 55.916,267.005 56.026,267.003 59.125 C 267.000 61.994,266.999 62.000,266.625 62.003 C 265.786 62.008,265.754 62.121,265.698 65.228 L 265.646 68.136 265.199 68.248 C 264.528 68.416,264.505 68.526,264.503 71.625 C 264.500 74.494,264.499 74.500,264.125 74.503 C 263.286 74.508,263.254 74.621,263.198 77.728 L 263.146 80.636 262.699 80.748 C 262.028 80.916,262.005 81.026,262.003 84.125 C 262.000 86.994,261.999 87.000,261.625 87.003 C 260.786 87.008,260.754 87.121,260.698 90.228 L 260.646 93.136 260.199 93.248 C 259.528 93.416,259.505 93.526,259.503 96.625 C 259.500 99.494,259.499 99.500,259.125 99.503 C 258.286 99.508,258.254 99.622,258.198 102.723 L 258.146 105.624 257.615 105.777 L 257.083 105.929 257.038 108.964 L 256.992 112.000 256.492 112.000 C 255.770 112.000,255.667 112.436,255.667 115.487 L 255.667 118.118 255.125 118.274 L 254.583 118.429 254.538 121.464 L 254.492 124.500 253.992 124.500 C 253.352 124.500,253.167 124.950,253.167 126.499 C 253.167 128.242,252.954 128.167,257.849 128.167 L 262.008 128.167 262.168 128.586 C 262.437 129.295,262.841 129.333,270.098 129.333 L 277.008 129.333 277.181 129.788 C 277.411 130.392,277.605 130.494,278.531 130.497 C 280.305 130.503,280.667 129.963,280.667 127.308 C 280.667 125.629,280.690 125.500,280.991 125.500 C 281.696 125.500,281.833 124.940,281.833 122.063 L 281.833 119.366 282.322 119.196 C 283.004 118.958,283.165 118.239,283.166 115.429 L 283.167 113.108 283.708 112.656 L 284.250 112.204 284.303 109.435 C 284.352 106.873,284.380 106.653,284.687 106.489 C 285.495 106.057,285.665 105.416,285.666 102.813 L 285.667 100.375 286.250 99.738 L 286.833 99.102 286.833 96.134 L 286.833 93.167 287.327 93.167 C 288.082 93.167,288.167 92.815,288.167 89.688 L 288.167 86.854 288.708 86.802 L 289.250 86.750 289.295 83.708 C 289.339 80.805,289.356 80.667,289.670 80.667 C 290.540 80.667,290.667 80.220,290.667 77.167 L 290.667 74.333 291.063 74.333 C 291.753 74.333,291.823 74.043,291.871 70.988 C 291.916 68.148,291.925 68.082,292.280 68.032 C 292.998 67.929,293.080 67.605,293.139 64.641 C 293.184 62.357,293.239 61.833,293.431 61.833 C 294.199 61.833,294.333 61.313,294.333 58.333 C 294.333 55.690,294.354 55.500,294.641 55.500 C 295.431 55.500,295.580 54.983,295.641 52.015 C 295.696 49.361,295.716 49.224,296.055 49.074 C 296.710 48.784,296.828 48.236,296.831 45.470 C 296.833 42.996,296.851 42.850,297.169 42.749 C 297.541 42.631,298.167 41.539,298.167 41.008 C 298.167 40.670,298.223 40.669,310.625 40.626 L 323.083 40.583 323.134 39.968 C 323.181 39.411,323.236 39.348,323.718 39.302 L 324.250 39.250 324.299 38.034 C 324.346 36.867,324.375 36.792,325.007 36.159 C 325.523 35.644,325.667 35.373,325.667 34.920 C 325.667 34.436,325.738 34.322,326.095 34.232 C 326.603 34.105,326.833 33.589,326.833 32.583 C 326.833 31.860,326.839 31.853,327.458 31.802 C 328.020 31.755,328.088 31.698,328.133 31.241 C 328.173 30.829,328.286 30.701,328.716 30.574 C 329.147 30.447,329.260 30.318,329.300 29.907 C 329.340 29.496,329.453 29.367,329.883 29.241 C 330.296 29.119,330.436 28.970,330.501 28.585 C 330.569 28.188,330.688 28.069,331.085 28.001 C 331.465 27.937,331.619 27.795,331.735 27.402 C 331.845 27.031,332.031 26.845,332.402 26.735 C 332.788 26.621,332.930 26.472,332.968 26.136 C 333.009 25.785,333.135 25.664,333.552 25.573 C 334.150 25.444,334.327 25.249,334.331 24.719 C 334.333 24.430,334.446 24.344,334.875 24.302 C 335.322 24.259,335.444 24.157,335.574 23.716 C 335.701 23.286,335.829 23.173,336.241 23.133 C 336.697 23.089,336.755 23.019,336.801 22.468 C 336.849 21.890,336.890 21.849,337.468 21.801 C 338.028 21.755,338.088 21.701,338.136 21.208 C 338.186 20.688,338.216 20.667,338.916 20.667 C 339.983 20.667,340.451 20.438,340.579 19.853 C 340.669 19.441,340.783 19.344,341.219 19.301 L 341.750 19.250 341.750 18.167 L 341.750 17.083 281.208 17.041 L 220.667 17.000 220.667 17.573 C 220.667 18.097,220.621 18.150,220.125 18.198 C 219.630 18.245,219.579 18.304,219.532 18.875 C 219.484 19.445,219.436 19.500,218.986 19.500 C 218.388 19.500,218.167 19.953,218.167 21.178 L 218.167 22.000 217.583 22.000 C 217.030 22.000,217.000 22.030,217.000 22.570 C 217.000 23.070,216.938 23.154,216.490 23.252 C 215.895 23.383,215.667 23.844,215.667 24.917 C 215.667 25.617,215.646 25.648,215.125 25.698 C 214.630 25.745,214.579 25.804,214.532 26.375 C 214.488 26.903,214.420 27.000,214.094 27.000 C 213.529 27.000,213.314 27.364,213.212 28.494 L 213.120 29.500 212.570 29.500 C 212.055 29.500,212.017 29.539,211.968 30.125 C 211.927 30.620,211.841 30.761,211.554 30.802 C 211.015 30.878,210.822 31.208,210.717 32.230 C 210.626 33.113,210.602 33.151,210.103 33.199 C 209.634 33.245,209.578 33.311,209.532 33.875 C 209.500 34.258,209.394 34.500,209.258 34.500 C 208.712 34.500,208.318 35.082,208.220 36.033 C 208.125 36.949,208.104 36.984,207.603 37.033 C 207.134 37.078,207.078 37.144,207.032 37.708 C 206.993 38.178,206.906 38.333,206.682 38.333 C 206.197 38.333,205.830 38.898,205.722 39.810 C 205.642 40.482,205.556 40.667,205.324 40.667 C 204.690 40.667,204.500 40.859,204.500 41.500 C 204.500 42.033,204.436 42.147,204.084 42.235 C 203.622 42.351,203.167 43.231,203.167 44.010 C 203.167 44.417,203.095 44.486,202.625 44.531 C 202.119 44.580,202.080 44.629,202.033 45.276 C 201.991 45.850,201.913 45.986,201.577 46.070 C 201.330 46.132,201.131 46.334,201.068 46.586 C 201.011 46.814,200.897 47.000,200.815 47.000 C 200.734 47.000,200.667 47.247,200.667 47.549 C 200.667 48.024,200.594 48.119,200.125 48.257 C 199.636 48.401,199.578 48.486,199.532 49.133 C 199.490 49.715,199.404 49.878,199.073 50.004 C 198.850 50.089,198.667 50.265,198.667 50.395 C 198.667 50.525,198.554 50.674,198.417 50.727 C 198.261 50.787,198.167 51.041,198.167 51.401 C 198.167 51.931,198.122 51.983,197.625 52.031 L 197.083 52.083 197.000 53.250 L 196.917 54.417 196.333 54.500 C 195.827 54.572,195.743 54.650,195.700 55.093 C 195.660 55.504,195.547 55.633,195.117 55.759 C 194.593 55.914,194.582 55.937,194.534 57.025 L 194.486 58.133 193.826 58.196 L 193.167 58.259 193.167 57.310 C 193.167 56.055,193.073 55.862,192.401 55.736 L 191.833 55.630 191.833 53.554 C 191.833 51.292,191.706 50.833,191.077 50.833 L 190.667 50.833 190.667 49.008 C 190.667 47.650,190.609 47.149,190.441 47.050 C 190.317 46.977,190.127 46.748,190.018 46.542 C 189.910 46.335,189.714 46.167,189.583 46.167 C 189.391 46.167,189.334 45.765,189.297 44.125 L 189.250 42.083 188.708 42.031 L 188.167 41.979 188.150 40.114 C 188.129 37.791,188.048 37.481,187.375 37.167 L 186.841 36.917 186.837 35.120 C 186.834 33.564,186.794 33.308,186.542 33.211 C 185.839 32.942,185.678 32.487,185.670 30.750 C 185.660 28.567,185.598 28.367,184.898 28.236 L 184.333 28.130 184.333 26.102 C 184.333 23.932,184.151 23.333,183.491 23.333 C 183.191 23.333,183.166 23.205,183.164 21.625 C 183.161 19.694,183.112 19.552,182.416 19.473 C 181.918 19.417,181.917 19.414,181.868 18.207 L 181.819 16.998 167.534 17.041 L 153.250 17.083 153.253 18.520 C 153.257 20.050,153.413 20.440,154.054 20.532 C 154.393 20.580,154.422 20.694,154.500 22.298 C 154.586 24.068,154.696 24.325,155.375 24.331 C 155.628 24.333,155.669 24.517,155.683 25.708 C 155.706 27.561,155.808 27.867,156.464 28.037 L 157.000 28.176 157.000 29.805 C 157.000 31.537,157.114 31.833,157.783 31.833 C 158.153 31.833,158.167 31.883,158.167 33.239 C 158.167 34.992,158.322 35.434,158.990 35.581 L 159.500 35.693 159.500 37.313 C 159.500 39.028,159.616 39.333,160.268 39.333 C 160.621 39.333,160.639 39.406,160.693 41.090 C 160.753 42.950,160.846 43.159,161.619 43.164 C 161.975 43.167,161.991 43.235,162.036 44.958 L 162.083 46.750 162.625 46.802 L 163.167 46.854 163.167 48.499 C 163.167 50.289,163.327 50.667,164.090 50.667 C 164.483 50.667,164.489 50.693,164.536 52.458 L 164.583 54.250 165.125 54.302 L 165.667 54.354 165.667 55.999 C 165.667 57.789,165.827 58.167,166.590 58.167 C 166.983 58.167,166.989 58.193,167.036 59.958 L 167.083 61.750 167.625 61.802 L 168.167 61.854 168.167 63.561 C 168.167 65.418,168.269 65.667,169.033 65.667 L 169.500 65.667 169.500 67.500 L 169.500 69.333 170.083 69.333 L 170.667 69.333 170.667 70.986 C 170.667 72.645,170.749 73.167,171.009 73.167 C 171.643 73.167,172.000 73.970,172.000 75.394 C 172.000 76.357,172.063 76.833,172.189 76.833 C 172.788 76.833,173.167 77.671,173.167 78.997 C 173.167 79.941,173.237 80.380,173.417 80.560 C 173.554 80.697,173.667 80.878,173.667 80.961 C 173.667 81.045,173.849 81.196,174.071 81.298 C 174.673 81.571,174.809 84.501,174.220 84.500 C 173.771 84.500,173.333 84.917,173.333 85.345 C 173.333 85.559,173.218 85.667,172.989 85.667 C 172.055 85.667,172.000 85.819,172.000 88.423 L 172.000 90.833 171.604 90.833 C 170.963 90.833,170.792 91.230,170.704 92.920 C 170.658 93.789,170.553 94.500,170.470 94.500 C 169.844 94.500,169.500 95.325,169.500 96.826 C 169.500 98.302,169.492 98.333,169.104 98.333 C 168.511 98.333,168.327 98.680,168.216 100.005 C 168.116 101.196,167.702 102.000,167.189 102.000 C 167.065 102.000,167.000 102.428,167.000 103.250 L 167.000 104.500 166.434 104.500 C 165.757 104.500,165.667 104.678,165.667 106.003 L 165.667 106.979 165.125 107.031 L 164.583 107.083 164.535 108.282 L 164.486 109.481 163.868 109.532 C 163.270 109.582,163.248 109.606,163.199 110.292 C 163.164 110.777,163.071 111.000,162.905 111.000 C 162.553 111.000,162.001 111.992,162.001 112.625 C 162.000 113.087,161.941 113.167,161.595 113.167 C 161.013 113.167,160.667 113.595,160.667 114.316 C 160.667 114.944,160.148 115.667,159.698 115.667 C 159.578 115.667,159.500 115.930,159.500 116.333 C 159.500 116.980,159.483 117.000,158.934 117.000 C 158.337 117.000,158.167 117.207,158.167 117.930 C 158.167 118.240,158.078 118.333,157.783 118.333 C 157.250 118.333,157.000 118.638,157.000 119.287 C 157.000 119.725,156.912 119.875,156.583 120.000 C 156.354 120.087,156.167 120.265,156.167 120.395 C 156.167 120.525,156.054 120.674,155.917 120.727 C 155.760 120.787,155.667 121.042,155.667 121.411 C 155.667 121.973,155.640 122.000,155.083 122.000 C 154.528 122.000,154.500 122.028,154.500 122.583 C 154.500 123.111,154.456 123.167,154.033 123.167 C 153.444 123.167,153.167 123.441,153.167 124.023 C 153.167 124.416,153.091 124.486,152.625 124.531 C 152.149 124.577,152.077 124.649,152.031 125.125 C 151.988 125.569,151.908 125.667,151.585 125.667 C 151.080 125.667,150.667 126.080,150.667 126.585 C 150.667 126.908,150.569 126.988,150.125 127.031 C 149.649 127.077,149.577 127.149,149.531 127.625 C 149.486 128.091,149.416 128.167,149.023 128.167 C 148.444 128.167,148.167 128.444,148.167 129.023 C 148.167 129.416,148.091 129.486,147.625 129.531 C 147.149 129.577,147.077 129.649,147.031 130.125 C 146.986 130.591,146.916 130.667,146.523 130.667 C 145.941 130.667,145.667 130.944,145.667 131.533 C 145.667 131.956,145.611 132.000,145.083 132.000 C 144.532 132.000,144.500 132.031,144.500 132.560 L 144.500 133.119 143.458 133.227 C 142.392 133.337,142.000 133.595,142.000 134.188 C 142.000 134.394,141.843 134.494,141.458 134.531 C 141.011 134.574,140.889 134.677,140.759 135.117 C 140.633 135.547,140.504 135.660,140.093 135.700 C 139.635 135.745,139.578 135.813,139.532 136.375 L 139.480 137.000 138.440 137.000 C 137.320 137.000,137.000 137.174,137.000 137.783 C 137.000 138.111,136.914 138.167,136.411 138.167 C 136.024 138.167,135.788 138.258,135.720 138.435 C 135.457 139.119,134.887 139.500,134.124 139.500 C 133.346 139.500,133.167 139.658,133.167 140.347 C 133.167 140.626,133.042 140.667,132.179 140.667 C 131.084 140.667,130.667 140.921,130.667 141.588 C 130.667 141.962,130.602 141.988,129.542 142.034 C 128.431 142.083,128.415 142.090,128.257 142.625 C 128.101 143.154,128.076 143.167,127.144 143.167 C 126.082 143.167,125.667 143.428,125.667 144.095 C 125.667 144.488,125.629 144.500,124.417 144.500 C 123.729 144.500,123.167 144.566,123.167 144.647 C 123.167 144.728,123.011 144.835,122.821 144.885 C 122.631 144.935,122.435 145.131,122.385 145.321 C 122.305 145.628,122.168 145.667,121.161 145.667 C 119.668 145.667,119.500 145.744,119.500 146.434 L 119.500 147.000 117.708 147.000 L 115.917 147.000 115.451 147.583 L 114.986 148.167 113.063 148.167 L 111.141 148.167 110.504 148.830 L 109.866 149.493 106.642 149.538 L 103.417 149.583 103.257 150.125 L 103.098 150.667 93.719 150.667 L 84.340 150.667 84.232 150.238 C 84.068 149.586,83.586 149.500,80.072 149.500 L 76.833 149.500 76.833 149.104 C 76.833 148.389,76.453 148.263,74.072 148.193 L 71.852 148.129 71.801 147.606 L 71.750 147.083 69.970 147.036 L 68.191 146.989 68.080 146.484 C 67.935 145.824,67.487 145.667,65.750 145.667 L 64.354 145.667 64.302 145.125 L 64.250 144.583 63.042 144.534 C 61.923 144.489,61.833 144.458,61.831 144.118 C 61.826 143.459,61.584 143.302,60.438 143.210 C 59.830 143.161,59.333 143.053,59.333 142.970 C 59.333 142.499,58.490 142.000,57.695 142.000 C 56.921 142.000,56.870 141.973,56.777 141.510 C 56.671 140.978,55.975 140.669,54.875 140.668 C 54.421 140.667,54.333 140.605,54.333 140.283 C 54.333 139.673,54.013 139.500,52.883 139.500 L 51.833 139.500 51.833 138.934 C 51.833 138.341,51.626 138.167,50.921 138.167 C 50.654 138.167,50.505 138.044,50.436 137.767 C 50.323 137.317,49.615 137.000,48.725 137.000 C 48.225 137.000,48.167 136.952,48.167 136.533 C 48.167 135.941,47.892 135.667,47.300 135.667 C 46.950 135.667,46.833 135.586,46.833 135.345 C 46.833 134.853,46.372 134.500,45.730 134.500 C 45.145 134.500,44.351 133.858,44.339 133.375 C 44.335 133.250,44.105 133.167,43.761 133.167 C 43.236 133.167,43.183 133.121,43.136 132.625 C 43.088 132.130,43.029 132.079,42.458 132.032 C 41.871 131.983,41.833 131.946,41.833 131.424 C 41.833 130.862,41.620 130.667,41.004 130.667 C 40.815 130.667,40.660 130.497,40.588 130.210 C 40.456 129.683,40.236 129.506,39.708 129.503 C 39.425 129.501,39.333 129.403,39.333 129.104 C 39.333 128.643,39.092 128.405,38.467 128.248 C 38.181 128.176,38.001 128.005,37.968 127.776 C 37.938 127.565,37.699 127.313,37.389 127.167 C 37.041 127.002,36.830 126.760,36.768 126.455 C 36.697 126.106,36.550 125.968,36.170 125.892 C 35.817 125.822,35.667 125.695,35.667 125.468 C 35.667 124.874,35.346 124.500,34.838 124.500 C 34.414 124.500,34.348 124.433,34.302 123.958 C 34.259 123.510,34.157 123.389,33.708 123.257 C 33.370 123.158,33.167 122.990,33.167 122.812 C 33.167 122.214,32.967 122.000,32.409 122.000 C 31.887 122.000,31.850 121.962,31.802 121.375 C 31.755 120.804,31.703 120.745,31.208 120.698 C 30.712 120.650,30.667 120.597,30.667 120.073 C 30.667 119.705,30.587 119.500,30.443 119.500 C 30.321 119.500,30.135 119.313,30.030 119.083 C 29.926 118.854,29.730 118.667,29.596 118.667 C 29.423 118.667,29.337 118.437,29.301 117.875 C 29.252 117.116,29.228 117.081,28.708 117.031 C 28.242 116.986,28.167 116.916,28.167 116.523 C 28.167 115.941,27.889 115.667,27.300 115.667 C 26.854 115.667,26.833 115.631,26.833 114.870 C 26.833 113.982,26.482 113.333,26.001 113.333 C 25.758 113.333,25.675 113.191,25.635 112.708 C 25.586 112.119,25.548 112.080,24.965 112.032 L 24.348 111.981 24.299 110.782 L 24.250 109.583 23.708 109.531 C 23.222 109.484,23.167 109.425,23.166 108.948 C 23.164 107.858,22.854 107.162,22.324 107.056 C 21.872 106.966,21.833 106.902,21.833 106.240 C 21.833 105.244,21.601 104.728,21.095 104.601 C 20.708 104.504,20.667 104.415,20.667 103.674 C 20.667 102.451,20.445 102.000,19.845 102.000 L 19.348 102.000 19.299 100.792 L 19.250 99.583 18.708 99.531 L 18.167 99.479 18.164 98.031 C 18.161 96.088,18.088 95.865,17.404 95.737 L 16.844 95.632 16.797 93.857 L 16.750 92.083 16.208 92.031 L 15.667 91.979 15.667 89.812 C 15.667 87.379,15.554 87.000,14.827 87.000 L 14.333 87.000 14.333 83.450 C 14.333 79.694,14.295 79.500,13.550 79.500 L 13.167 79.500 13.167 70.623 L 13.167 61.746 13.539 61.581 C 14.233 61.274,14.328 60.778,14.331 57.450 L 14.333 54.316 14.830 54.143 C 15.484 53.915,15.665 53.244,15.666 51.045 C 15.667 49.352,15.670 49.339,16.095 49.232 C 16.683 49.085,16.833 48.579,16.833 46.747 C 16.833 45.113,17.053 44.604,17.900 44.279 C 18.109 44.199,18.167 43.926,18.167 43.005 C 18.167 42.075,18.218 41.833,18.417 41.833 C 19.077 41.833,19.333 41.228,19.333 39.667 L 19.333 38.167 19.899 38.167 C 20.577 38.167,20.667 37.990,20.667 36.653 C 20.667 35.792,20.707 35.667,20.986 35.667 C 21.738 35.667,21.833 35.515,21.833 34.316 C 21.833 33.168,21.834 33.167,22.300 33.167 C 22.995 33.167,23.167 32.882,23.167 31.727 L 23.167 30.688 23.708 30.636 C 24.199 30.588,24.255 30.527,24.301 29.977 C 24.344 29.459,24.421 29.357,24.833 29.275 C 25.353 29.171,25.664 28.467,25.666 27.386 C 25.667 26.908,25.722 26.849,26.208 26.802 C 26.703 26.755,26.755 26.696,26.802 26.125 C 26.841 25.656,26.927 25.500,27.151 25.500 C 27.635 25.500,28.004 24.936,28.111 24.032 C 28.206 23.230,28.239 23.182,28.730 23.134 C 29.198 23.088,29.255 23.022,29.301 22.468 C 29.347 21.911,29.402 21.848,29.884 21.802 C 30.346 21.757,30.437 21.667,30.571 21.125 C 30.656 20.781,30.813 20.500,30.920 20.500 C 31.317 20.500,31.717 19.818,31.795 19.011 C 31.873 18.198,31.884 18.184,32.479 18.134 C 33.046 18.086,33.086 18.045,33.135 17.458 C 33.184 16.867,33.218 16.833,33.760 16.833 C 34.304 16.833,34.333 16.804,34.333 16.250 C 34.333 15.722,34.378 15.667,34.800 15.667 C 35.392 15.667,35.667 15.392,35.667 14.800 C 35.667 14.378,35.722 14.333,36.250 14.333 C 36.804 14.333,36.833 14.304,36.833 13.760 C 36.833 13.218,36.867 13.184,37.458 13.135 C 38.049 13.086,38.086 13.049,38.135 12.458 C 38.184 11.867,38.218 11.833,38.760 11.833 C 39.302 11.833,39.333 11.802,39.333 11.260 C 39.333 10.718,39.367 10.684,39.958 10.635 C 40.549 10.586,40.586 10.549,40.635 9.958 C 40.684 9.370,40.720 9.333,41.248 9.333 C 41.661 9.333,41.974 9.179,42.430 8.748 C 42.771 8.426,43.283 8.104,43.567 8.032 C 43.953 7.934,44.123 7.766,44.243 7.367 C 44.379 6.912,44.480 6.833,44.933 6.833 C 45.472 6.833,45.667 6.612,45.667 5.997 C 45.667 5.770,45.811 5.674,46.208 5.636 C 46.687 5.589,46.760 5.516,46.833 5.000 L 46.917 4.417 47.911 4.366 C 49.030 4.308,49.333 4.137,49.333 3.563 C 49.333 3.255,49.423 3.167,49.736 3.167 C 50.460 3.167,50.667 2.996,50.667 2.399 C 50.667 1.866,50.699 1.833,51.239 1.833 C 52.453 1.833,52.993 1.436,52.997 0.542 L 53.000 0.000 50.750 0.000 C 48.667 0.000,48.500 0.023,48.500 0.310 M364.833 14.833 C 364.650 15.017,364.500 15.279,364.500 15.417 C 364.500 15.631,364.008 15.667,361.072 15.667 C 357.321 15.667,357.000 15.733,357.000 16.506 L 357.000 17.000 354.762 17.000 C 352.385 17.000,352.000 17.118,352.000 17.845 C 352.000 18.132,351.875 18.167,350.854 18.167 C 349.449 18.167,348.579 18.494,348.433 19.077 C 348.333 19.474,348.263 19.500,347.267 19.500 C 346.176 19.500,345.922 19.630,345.807 20.249 C 345.758 20.518,345.553 20.609,344.749 20.721 C 343.603 20.881,343.333 21.049,343.333 21.604 C 343.333 21.955,343.258 22.000,342.667 22.000 C 342.280 22.000,342.000 22.080,342.000 22.189 C 342.000 22.556,341.154 23.167,340.647 23.167 C 339.880 23.167,339.500 23.442,339.500 23.996 C 339.500 24.435,339.442 24.485,338.875 24.532 C 338.304 24.579,338.245 24.630,338.198 25.125 C 338.150 25.621,338.097 25.667,337.573 25.667 C 337.016 25.667,337.000 25.685,337.000 26.333 L 337.000 27.000 336.333 27.000 C 335.891 27.000,335.667 27.074,335.667 27.221 C 335.667 27.484,334.975 28.167,334.708 28.167 C 334.605 28.167,334.497 28.448,334.468 28.792 C 334.419 29.383,334.383 29.419,333.792 29.468 C 333.203 29.517,333.167 29.553,333.167 30.083 C 333.167 30.596,333.119 30.650,332.625 30.698 C 332.130 30.745,332.079 30.804,332.032 31.375 C 331.985 31.942,331.935 32.000,331.496 32.000 C 330.871 32.000,330.667 32.388,330.667 33.572 L 330.667 34.500 330.083 34.500 C 329.514 34.500,329.500 34.516,329.500 35.167 C 329.500 35.704,329.440 35.833,329.192 35.833 C 328.632 35.833,328.301 36.419,328.209 37.575 C 328.146 38.353,328.055 38.667,327.890 38.667 C 327.763 38.667,327.587 38.854,327.500 39.083 C 327.413 39.313,327.265 39.500,327.171 39.500 C 327.069 39.500,327.000 40.026,327.000 40.807 C 327.000 42.023,326.972 42.126,326.601 42.295 C 325.798 42.661,325.667 43.277,325.667 46.673 C 325.667 49.623,325.649 49.799,325.343 49.879 C 324.139 50.194,324.149 56.667,325.354 56.667 C 325.646 56.667,325.667 56.832,325.667 59.172 C 325.667 61.988,325.848 62.747,326.565 62.927 C 326.960 63.026,326.989 63.107,327.035 64.225 C 327.083 65.411,327.086 65.417,327.625 65.576 C 328.126 65.723,328.167 65.789,328.167 66.440 C 328.167 67.490,328.398 67.951,328.990 68.081 C 329.438 68.179,329.500 68.263,329.500 68.763 C 329.500 69.299,329.534 69.333,330.060 69.333 L 330.619 69.333 330.726 70.358 C 330.847 71.513,331.035 71.833,331.593 71.833 C 331.907 71.833,331.989 71.935,332.031 72.375 C 332.074 72.820,332.177 72.944,332.610 73.072 C 332.994 73.185,333.175 73.365,333.281 73.738 C 333.399 74.152,333.528 74.260,333.954 74.301 C 334.411 74.346,334.487 74.423,334.532 74.885 C 334.574 75.319,334.680 75.445,335.110 75.572 C 335.494 75.685,335.675 75.865,335.782 76.238 C 335.912 76.695,336.004 76.756,336.649 76.802 C 337.192 76.841,337.391 76.933,337.453 77.172 C 337.499 77.346,337.671 77.532,337.836 77.584 C 338.001 77.637,338.178 77.789,338.229 77.923 C 338.287 78.073,338.549 78.167,338.911 78.167 C 339.473 78.167,339.500 78.193,339.500 78.750 C 339.500 79.303,339.530 79.333,340.070 79.333 C 340.570 79.333,340.654 79.396,340.752 79.843 C 340.883 80.439,341.344 80.667,342.417 80.667 C 343.117 80.667,343.148 80.688,343.198 81.208 C 343.245 81.703,343.304 81.755,343.875 81.802 C 344.339 81.840,344.500 81.928,344.500 82.145 C 344.500 82.737,344.892 82.996,345.949 83.106 C 346.957 83.210,346.984 83.225,347.033 83.731 L 347.083 84.250 348.292 84.299 L 349.500 84.348 349.500 84.906 C 349.500 85.576,349.680 85.667,351.014 85.667 L 352.000 85.667 352.000 86.250 C 352.000 86.828,352.007 86.833,352.732 86.833 C 353.372 86.833,353.477 86.885,353.568 87.247 C 353.632 87.503,353.830 87.701,354.086 87.766 C 354.314 87.823,354.500 87.936,354.500 88.018 C 354.500 88.100,354.747 88.167,355.049 88.167 C 355.524 88.167,355.619 88.239,355.757 88.708 C 355.894 89.174,356.001 89.257,356.519 89.300 C 356.960 89.337,357.169 89.455,357.299 89.741 C 357.511 90.207,358.368 90.667,359.026 90.667 C 359.457 90.667,359.500 90.720,359.500 91.250 C 359.500 91.804,359.529 91.833,360.073 91.833 C 360.615 91.833,360.649 91.867,360.698 92.458 C 360.747 93.049,360.784 93.086,361.375 93.135 C 361.966 93.184,362.000 93.218,362.000 93.760 C 362.000 94.077,362.085 94.333,362.189 94.333 C 362.596 94.333,363.167 95.181,363.167 95.786 C 363.167 96.640,363.653 97.657,364.118 97.774 C 364.496 97.869,364.500 97.896,364.500 100.518 L 364.500 103.167 364.033 103.167 C 363.336 103.167,363.167 103.451,363.167 104.617 L 363.167 105.667 362.583 105.667 C 362.015 105.667,362.000 105.684,362.000 106.323 C 362.000 106.962,361.983 106.981,361.375 107.032 C 360.807 107.079,360.745 107.132,360.699 107.615 C 360.654 108.078,360.578 108.154,360.115 108.199 C 359.633 108.245,359.579 108.308,359.532 108.868 L 359.481 109.486 358.282 109.535 L 357.083 109.583 357.033 110.103 L 356.982 110.622 355.411 110.704 C 353.730 110.792,353.333 110.964,353.333 111.604 L 353.333 112.000 346.154 112.000 L 338.974 112.000 338.333 111.333 L 337.693 110.667 335.448 110.667 L 333.203 110.667 333.088 110.210 C 332.924 109.557,332.768 109.505,330.958 109.503 L 329.333 109.500 329.333 109.006 C 329.333 108.360,328.951 108.167,327.678 108.167 C 326.800 108.167,326.667 108.125,326.667 107.854 C 326.667 107.364,326.262 107.144,325.185 107.046 C 324.344 106.970,324.178 106.901,324.101 106.595 C 323.990 106.150,323.022 105.667,322.244 105.667 C 321.872 105.667,321.667 105.587,321.667 105.442 C 321.667 105.093,321.101 104.667,320.638 104.667 C 320.211 104.667,319.667 105.118,319.667 105.471 C 319.667 105.579,319.447 105.667,319.179 105.667 C 318.404 105.667,318.167 106.041,318.167 107.262 C 318.167 108.212,318.130 108.333,317.843 108.333 C 317.239 108.333,317.000 108.958,317.000 110.537 L 317.000 112.000 316.434 112.000 C 315.756 112.000,315.667 112.177,315.667 113.514 C 315.667 114.377,315.626 114.500,315.345 114.500 C 314.722 114.500,314.500 114.947,314.500 116.201 C 314.500 117.352,314.090 118.167,313.509 118.167 C 313.276 118.167,313.167 118.643,313.167 119.662 C 313.167 120.579,313.142 120.637,312.710 120.745 C 312.079 120.904,312.005 121.079,312.003 122.439 C 312.000 123.485,311.960 123.638,311.668 123.715 C 311.485 123.763,311.284 123.940,311.222 124.109 C 311.159 124.278,311.009 124.477,310.888 124.550 C 310.589 124.730,310.597 126.510,310.899 127.233 C 311.145 127.823,311.805 128.167,312.692 128.167 C 313.049 128.167,313.167 128.246,313.167 128.486 C 313.167 129.238,313.318 129.333,314.518 129.333 C 315.665 129.333,315.667 129.334,315.667 129.800 C 315.667 130.493,315.952 130.667,317.087 130.667 C 318.077 130.667,318.113 130.682,318.345 131.208 L 318.583 131.750 320.292 131.797 L 322.000 131.845 322.000 132.343 C 322.000 133.041,322.445 133.167,324.928 133.167 C 326.979 133.167,327.000 133.171,327.000 133.550 C 327.000 134.294,327.195 134.333,330.920 134.333 L 334.440 134.333 334.678 134.874 C 335.017 135.642,335.100 135.649,344.667 135.637 C 354.157 135.626,354.018 135.637,354.243 134.875 L 354.402 134.333 357.342 134.333 C 360.473 134.333,361.278 134.166,361.458 133.477 C 361.530 133.202,361.720 133.166,363.144 133.164 C 365.259 133.161,365.467 133.097,365.598 132.398 L 365.704 131.833 367.319 131.833 C 369.037 131.833,369.333 131.718,369.333 131.050 C 369.333 130.693,369.402 130.667,370.320 130.667 C 371.653 130.667,371.833 130.576,371.833 129.906 L 371.833 129.348 373.042 129.299 L 374.250 129.250 374.302 128.708 C 374.350 128.211,374.402 128.167,374.933 128.167 C 375.816 128.167,376.604 127.773,376.731 127.268 C 376.821 126.907,376.935 126.833,377.402 126.833 C 377.977 126.833,378.167 126.623,378.167 125.986 C 378.167 125.733,378.286 125.667,378.740 125.667 C 379.282 125.667,379.316 125.633,379.365 125.042 C 379.413 124.465,379.461 124.412,379.981 124.363 C 380.364 124.326,380.719 124.125,381.086 123.736 C 381.383 123.421,381.868 123.079,382.164 122.976 C 382.540 122.845,382.778 122.607,382.953 122.188 C 383.091 121.857,383.453 121.353,383.757 121.066 C 384.127 120.717,384.327 120.360,384.363 119.981 C 384.411 119.477,384.479 119.408,385.000 119.333 C 385.516 119.260,385.589 119.187,385.636 118.708 C 385.674 118.311,385.770 118.167,385.997 118.167 C 386.625 118.167,386.833 117.974,386.833 117.395 C 386.833 116.954,386.920 116.792,387.215 116.680 C 387.796 116.459,388.002 116.116,388.112 115.184 C 388.199 114.454,388.264 114.333,388.573 114.333 C 389.161 114.333,389.333 114.002,389.333 112.875 C 389.333 111.850,389.349 111.810,389.830 111.643 C 390.438 111.431,390.664 110.748,390.666 109.125 C 390.667 108.122,390.702 108.000,390.991 108.000 C 391.695 108.000,391.833 107.439,391.833 104.581 L 391.833 101.902 392.375 101.743 C 393.107 101.527,393.124 101.404,393.144 96.083 C 393.163 91.163,393.104 90.792,392.288 90.697 L 391.833 90.645 391.833 88.257 C 391.833 85.718,391.817 85.667,390.986 85.667 C 390.705 85.667,390.667 85.540,390.666 84.625 C 390.664 83.094,390.428 82.399,389.840 82.194 C 389.434 82.053,389.346 81.921,389.302 81.387 C 389.254 80.803,389.205 80.746,388.708 80.698 C 388.182 80.647,388.167 80.623,388.164 79.864 C 388.161 78.622,388.035 78.355,387.398 78.236 C 386.888 78.140,386.833 78.075,386.833 77.565 C 386.833 77.032,386.801 77.000,386.260 77.000 C 385.718 77.000,385.684 76.966,385.635 76.375 C 385.586 75.784,385.549 75.747,384.958 75.698 C 384.367 75.649,384.333 75.615,384.333 75.073 C 384.333 74.531,384.302 74.500,383.760 74.500 C 383.218 74.500,383.184 74.466,383.135 73.875 C 383.086 73.284,383.049 73.247,382.458 73.198 C 381.867 73.149,381.833 73.115,381.833 72.573 C 381.833 72.029,381.804 72.000,381.250 72.000 C 380.722 72.000,380.667 71.956,380.667 71.533 C 380.667 70.944,380.393 70.667,379.811 70.667 C 379.418 70.667,379.347 70.591,379.302 70.125 C 379.252 69.608,379.215 69.581,378.481 69.533 C 377.853 69.493,377.679 69.409,377.527 69.075 C 377.424 68.850,377.226 68.667,377.087 68.667 C 376.947 68.667,376.833 68.554,376.833 68.417 C 376.833 68.242,376.657 68.167,376.250 68.167 C 375.786 68.167,375.667 68.101,375.667 67.847 C 375.667 67.163,375.487 67.000,374.729 67.000 C 374.106 67.000,373.964 66.936,373.803 66.583 C 373.699 66.354,373.521 66.167,373.408 66.167 C 373.295 66.167,373.159 66.054,373.106 65.917 C 373.046 65.759,372.791 65.667,372.418 65.667 C 371.938 65.667,371.795 65.587,371.666 65.247 C 371.479 64.755,370.905 64.500,369.989 64.500 C 369.373 64.500,369.333 64.470,369.333 64.006 C 369.333 63.372,368.952 63.167,367.772 63.167 C 366.859 63.167,366.854 63.164,366.802 62.625 L 366.750 62.083 365.583 62.000 L 364.417 61.917 364.333 61.333 C 364.257 60.797,364.199 60.746,363.625 60.698 C 363.142 60.658,363.000 60.575,363.000 60.333 C 363.000 59.851,362.351 59.500,361.463 59.500 C 360.702 59.500,360.667 59.479,360.667 59.033 C 360.667 58.441,360.392 58.167,359.800 58.167 C 359.424 58.167,359.333 58.092,359.333 57.783 C 359.333 57.271,359.033 57.000,358.467 57.000 C 358.124 57.000,358.000 56.918,358.000 56.692 C 358.000 56.325,357.497 55.833,357.121 55.833 C 356.973 55.833,356.753 55.627,356.633 55.375 C 356.513 55.123,356.254 54.846,356.057 54.759 C 355.816 54.653,355.666 54.396,355.599 53.975 C 355.510 53.418,355.433 53.336,354.916 53.239 C 354.337 53.130,354.333 53.124,354.333 52.243 C 354.333 51.292,354.058 50.833,353.488 50.833 C 353.189 50.833,353.167 50.698,353.167 48.844 L 353.167 46.854 353.708 46.802 L 354.250 46.750 354.299 45.551 L 354.348 44.353 354.965 44.301 C 355.528 44.255,355.588 44.202,355.636 43.708 C 355.674 43.311,355.770 43.167,355.997 43.167 C 356.620 43.167,356.833 42.973,356.833 42.409 C 356.833 41.887,356.871 41.850,357.458 41.802 C 358.029 41.755,358.088 41.703,358.136 41.208 L 358.188 40.667 359.227 40.667 C 360.382 40.667,360.667 40.495,360.667 39.800 L 360.667 39.333 362.542 39.331 C 364.552 39.328,365.137 39.167,365.415 38.539 L 365.579 38.167 370.706 38.167 C 375.659 38.167,375.833 38.178,375.833 38.488 C 375.833 39.246,376.177 39.333,379.179 39.333 L 382.000 39.333 382.000 39.899 C 382.000 40.615,382.141 40.667,384.086 40.667 L 385.646 40.667 385.698 41.208 L 385.750 41.750 386.941 41.799 L 388.132 41.847 388.240 42.422 C 388.372 43.123,388.606 43.200,390.417 43.133 L 391.750 43.083 391.802 42.458 C 391.850 41.871,391.887 41.833,392.409 41.833 C 393.083 41.833,393.167 41.657,393.167 40.236 C 393.167 39.301,393.206 39.167,393.480 39.167 C 394.037 39.167,394.229 38.697,394.303 37.152 C 394.366 35.835,394.410 35.667,394.687 35.667 C 395.422 35.667,395.667 35.107,395.667 33.427 L 395.667 31.854 396.208 31.802 L 396.750 31.750 396.799 30.530 C 396.847 29.349,396.864 29.305,397.337 29.140 C 397.926 28.935,398.164 28.243,398.166 26.732 C 398.167 25.728,398.173 25.713,398.708 25.560 L 399.250 25.405 399.296 23.036 C 399.323 21.688,399.277 20.667,399.191 20.667 C 399.107 20.667,398.998 20.511,398.948 20.321 C 398.899 20.131,398.703 19.935,398.512 19.885 C 398.322 19.835,398.167 19.728,398.167 19.647 C 398.167 19.566,397.604 19.500,396.917 19.500 L 395.667 19.500 395.667 19.033 C 395.667 18.325,395.387 18.167,394.133 18.167 C 393.122 18.167,393.000 18.132,393.000 17.843 C 393.000 17.175,392.406 17.000,390.141 17.000 L 388.022 17.000 387.969 16.542 C 387.884 15.801,387.232 15.687,383.042 15.676 C 379.493 15.667,379.333 15.653,379.333 15.345 C 379.333 14.502,379.316 14.500,371.988 14.500 C 365.389 14.500,365.156 14.511,364.833 14.833 M55.333 18.312 C 55.092 18.376,54.811 18.647,54.667 18.953 C 54.425 19.464,54.377 19.484,53.250 19.533 L 52.083 19.583 52.033 20.103 C 51.983 20.609,51.957 20.624,50.985 20.712 C 49.864 20.814,49.500 21.030,49.500 21.594 C 49.500 21.920,49.403 21.988,48.875 22.032 C 48.307 22.079,48.245 22.132,48.199 22.615 C 48.154 23.078,48.078 23.154,47.615 23.199 C 47.134 23.245,47.079 23.308,47.032 23.866 C 46.984 24.444,46.944 24.484,46.366 24.532 C 45.805 24.579,45.745 24.632,45.698 25.125 C 45.659 25.523,45.563 25.667,45.336 25.667 C 44.714 25.667,44.500 25.860,44.500 26.423 C 44.500 26.903,44.439 26.985,44.046 27.031 C 43.471 27.097,43.172 27.665,43.169 28.698 C 43.167 29.457,43.151 29.480,42.625 29.531 L 42.083 29.583 42.034 30.792 C 41.989 31.911,41.958 32.000,41.618 32.003 C 40.802 32.008,40.753 32.158,40.696 34.837 C 40.653 36.861,40.594 37.371,40.397 37.447 C 39.127 37.935,39.131 43.167,40.402 43.167 C 40.592 43.167,40.648 43.669,40.694 45.792 C 40.755 48.574,40.891 49.103,41.577 49.201 C 41.875 49.244,41.927 49.403,42.000 50.500 L 42.083 51.750 42.603 51.801 C 43.104 51.849,43.125 51.884,43.220 52.801 C 43.318 53.757,43.713 54.333,44.268 54.333 C 44.421 54.333,44.500 54.527,44.500 54.899 C 44.500 55.477,44.710 55.667,45.347 55.667 C 45.551 55.667,45.667 55.782,45.667 55.986 C 45.667 56.624,45.857 56.833,46.434 56.833 C 46.966 56.833,47.000 56.867,47.000 57.399 C 47.000 57.970,47.210 58.167,47.823 58.167 C 48.014 58.167,48.173 58.359,48.273 58.708 C 48.414 59.202,48.493 59.255,49.163 59.303 C 49.896 59.355,50.477 59.764,50.720 60.398 C 50.788 60.575,51.025 60.667,51.416 60.667 C 51.896 60.667,52.039 60.746,52.168 61.086 C 52.381 61.646,52.943 61.833,54.409 61.833 L 55.630 61.833 55.736 62.398 C 55.882 63.177,55.742 63.162,62.833 63.163 C 69.762 63.165,70.287 63.107,70.444 62.324 C 70.541 61.835,70.546 61.833,71.753 61.833 C 73.020 61.833,73.167 61.745,73.167 60.986 C 73.167 60.707,73.292 60.667,74.155 60.667 C 75.253 60.667,75.667 60.412,75.667 59.738 C 75.667 59.387,75.743 59.333,76.250 59.333 C 76.574 59.333,76.833 59.249,76.833 59.144 C 76.833 58.811,77.585 58.244,78.316 58.025 C 78.836 57.869,79.067 57.693,79.184 57.365 C 79.273 57.115,79.581 56.806,79.878 56.667 C 80.283 56.477,80.447 56.263,80.559 55.779 C 80.709 55.127,81.305 54.333,81.644 54.333 C 81.748 54.333,81.833 54.079,81.833 53.769 C 81.833 53.259,81.888 53.193,82.398 53.098 C 83.036 52.978,83.161 52.712,83.164 51.458 C 83.166 50.790,83.216 50.667,83.486 50.667 C 84.255 50.667,84.333 50.527,84.333 49.160 C 84.333 48.019,84.373 47.843,84.655 47.754 C 85.629 47.445,85.686 47.006,85.633 40.245 C 85.579 33.532,85.551 33.333,84.648 33.333 C 84.388 33.333,84.341 33.157,84.299 32.042 L 84.250 30.750 83.708 30.698 L 83.167 30.646 83.167 29.606 C 83.167 28.451,82.995 28.167,82.300 28.167 C 81.897 28.167,81.833 28.101,81.833 27.688 C 81.833 26.687,81.637 26.182,81.169 25.974 C 80.852 25.834,80.665 25.588,80.563 25.177 C 80.438 24.669,80.340 24.576,79.885 24.532 C 79.422 24.487,79.346 24.412,79.301 23.949 C 79.259 23.506,79.152 23.385,78.667 23.229 C 78.320 23.117,78.061 22.914,78.028 22.729 C 77.937 22.221,77.492 22.000,76.562 22.000 L 75.687 22.000 75.635 21.375 C 75.586 20.784,75.549 20.747,74.958 20.698 C 74.615 20.670,74.333 20.573,74.333 20.482 C 74.333 19.859,73.514 19.500,72.091 19.500 L 70.667 19.500 70.667 19.033 C 70.667 18.777,70.577 18.477,70.467 18.367 C 70.248 18.148,56.134 18.097,55.333 18.312 M85.083 65.789 C 84.674 65.891,84.506 66.134,84.503 66.625 C 84.500 66.951,84.413 67.000,83.833 67.000 C 83.183 67.000,83.167 67.014,83.167 67.583 C 83.167 68.139,83.139 68.167,82.583 68.167 C 82.015 68.167,82.000 68.184,82.000 68.823 C 82.000 69.462,81.983 69.481,81.375 69.532 L 80.750 69.583 80.701 70.782 L 80.652 71.980 80.118 72.032 L 79.583 72.083 79.536 74.667 C 79.478 77.769,79.507 77.926,80.165 78.058 C 80.659 78.157,80.667 78.174,80.667 79.212 C 80.667 80.383,80.836 80.667,81.533 80.667 C 81.956 80.667,82.000 80.722,82.000 81.250 C 82.000 81.806,82.028 81.833,82.583 81.833 C 83.111 81.833,83.167 81.878,83.167 82.300 C 83.167 82.997,83.451 83.167,84.617 83.167 C 85.541 83.167,85.667 83.205,85.667 83.486 C 85.667 84.339,85.644 84.333,89.112 84.333 C 92.543 84.333,93.000 84.247,93.000 83.601 C 93.000 83.253,93.095 83.203,93.934 83.117 C 94.924 83.015,95.500 82.656,95.500 82.141 C 95.500 81.926,95.622 81.833,95.905 81.833 C 96.577 81.833,96.833 81.419,96.833 80.331 L 96.833 79.353 97.458 79.302 L 98.083 79.250 98.128 75.098 C 98.171 71.119,98.159 70.934,97.836 70.634 C 97.651 70.461,97.500 70.257,97.500 70.180 C 97.500 70.102,97.350 70.000,97.167 69.952 C 96.896 69.881,96.833 69.724,96.833 69.117 C 96.833 68.356,96.671 68.167,96.021 68.167 C 95.843 68.167,95.676 67.963,95.576 67.625 C 95.419 67.090,95.402 67.083,94.292 67.034 C 93.187 66.986,93.167 66.976,93.167 66.526 C 93.167 65.690,93.047 65.665,89.092 65.686 C 87.070 65.697,85.267 65.743,85.083 65.789 M52.251 73.281 C 51.361 73.360,50.833 73.698,50.833 74.188 C 50.833 74.465,50.623 74.495,48.375 74.537 L 45.917 74.583 45.757 75.125 C 45.601 75.654,45.576 75.667,44.646 75.667 C 43.346 75.667,43.167 75.760,43.167 76.434 L 43.167 77.000 42.018 77.000 C 40.822 77.000,40.667 77.096,40.667 77.836 C 40.667 78.063,40.523 78.159,40.125 78.198 C 39.630 78.245,39.579 78.304,39.532 78.875 C 39.481 79.483,39.462 79.500,38.823 79.500 C 38.184 79.500,38.167 79.515,38.167 80.083 C 38.167 80.639,38.139 80.667,37.583 80.667 C 37.015 80.667,37.000 80.684,37.000 81.323 C 37.000 81.962,36.983 81.981,36.375 82.032 C 35.804 82.079,35.745 82.130,35.698 82.625 C 35.659 83.023,35.563 83.167,35.336 83.167 C 34.659 83.167,34.500 83.349,34.500 84.124 C 34.500 84.887,34.119 85.457,33.435 85.720 C 33.224 85.801,33.167 86.072,33.167 86.995 C 33.167 88.039,33.132 88.167,32.847 88.167 C 32.016 88.167,32.000 88.217,32.000 90.763 L 32.000 93.157 31.467 93.295 C 30.729 93.486,30.617 94.041,30.700 97.083 C 30.774 99.763,30.906 100.262,31.588 100.433 C 31.999 100.536,32.000 100.541,32.000 102.648 C 32.000 104.889,32.176 105.500,32.824 105.500 C 33.085 105.500,33.139 105.672,33.196 106.676 C 33.266 107.915,33.418 108.159,34.125 108.164 C 34.439 108.166,34.500 108.258,34.500 108.725 C 34.500 109.615,34.817 110.323,35.267 110.436 C 35.518 110.499,35.667 110.657,35.667 110.862 C 35.667 111.464,35.986 111.833,36.506 111.833 C 36.957 111.833,37.000 111.883,37.000 112.399 C 37.000 112.977,37.210 113.167,37.847 113.167 C 38.051 113.167,38.167 113.282,38.167 113.486 C 38.167 114.124,38.357 114.333,38.934 114.333 C 39.419 114.333,39.500 114.390,39.500 114.730 C 39.500 115.305,39.859 115.519,40.994 115.622 L 42.000 115.713 42.000 116.273 C 42.000 116.830,42.005 116.833,42.792 116.839 C 43.609 116.844,44.308 117.260,44.547 117.882 C 44.637 118.116,44.881 118.167,45.911 118.167 C 47.028 118.167,47.167 118.201,47.167 118.480 C 47.167 119.230,47.349 119.250,54.061 119.250 L 60.404 119.250 60.555 118.723 L 60.706 118.197 62.359 118.140 C 64.112 118.080,64.326 117.979,64.331 117.208 C 64.333 116.862,64.409 116.833,65.321 116.833 C 66.378 116.833,66.833 116.579,66.833 115.988 C 66.833 115.747,66.950 115.667,67.300 115.667 C 67.892 115.667,68.167 115.392,68.167 114.800 C 68.167 114.378,68.222 114.333,68.750 114.333 C 69.304 114.333,69.333 114.304,69.333 113.760 C 69.333 113.218,69.367 113.184,69.958 113.135 C 70.549 113.086,70.586 113.049,70.635 112.458 C 70.684 111.867,70.718 111.833,71.260 111.833 C 71.804 111.833,71.833 111.804,71.833 111.250 C 71.833 110.722,71.878 110.667,72.300 110.667 C 72.892 110.667,73.167 110.392,73.167 109.800 C 73.167 109.450,73.247 109.333,73.488 109.333 C 74.079 109.333,74.333 108.878,74.333 107.821 C 74.333 106.909,74.362 106.833,74.708 106.831 C 75.479 106.826,75.580 106.612,75.640 104.859 L 75.697 103.206 76.223 103.055 L 76.750 102.904 76.790 96.827 C 76.833 90.364,76.804 90.091,76.039 89.752 C 75.703 89.604,75.667 89.470,75.667 88.372 C 75.667 87.379,75.614 87.136,75.382 87.047 C 74.760 86.808,74.344 86.109,74.339 85.292 C 74.333 84.505,74.330 84.500,73.773 84.500 C 73.214 84.500,73.213 84.499,73.115 83.542 C 73.016 82.582,72.623 82.000,72.075 82.000 C 71.948 82.000,71.832 81.771,71.802 81.458 C 71.760 81.016,71.655 80.889,71.235 80.765 C 70.864 80.655,70.678 80.469,70.569 80.098 C 70.445 79.681,70.316 79.574,69.885 79.532 C 69.422 79.487,69.346 79.412,69.301 78.949 C 69.257 78.486,69.167 78.396,68.614 78.260 C 68.265 78.173,67.716 77.855,67.394 77.551 C 66.972 77.153,66.654 77.000,66.251 77.000 C 65.764 77.000,65.679 76.935,65.581 76.490 C 65.448 75.884,64.989 75.667,63.846 75.667 C 63.161 75.667,62.958 75.583,62.428 75.083 L 61.810 74.500 59.321 74.500 L 56.833 74.500 56.833 74.104 C 56.833 73.321,55.162 73.021,52.251 73.281 M175.667 87.833 C 175.667 88.074,175.562 88.161,175.292 88.147 C 175.009 88.133,174.989 88.109,175.208 88.052 C 175.369 88.010,175.500 87.869,175.500 87.738 C 175.500 87.607,175.537 87.500,175.583 87.500 C 175.629 87.500,175.667 87.650,175.667 87.833 M107.375 88.339 C 107.103 88.448,107.000 88.626,107.000 88.990 L 107.000 89.491 104.542 89.537 L 102.083 89.583 102.031 90.125 L 101.979 90.667 101.003 90.667 C 99.678 90.667,99.500 90.757,99.500 91.434 L 99.500 92.000 98.512 92.000 C 97.455 92.000,97.000 92.254,97.000 92.845 C 97.000 93.086,96.883 93.167,96.533 93.167 C 95.941 93.167,95.667 93.441,95.667 94.033 C 95.667 94.456,95.611 94.500,95.083 94.500 C 94.528 94.500,94.500 94.528,94.500 95.083 C 94.500 95.611,94.456 95.667,94.033 95.667 C 93.444 95.667,93.167 95.941,93.167 96.523 C 93.167 96.916,93.091 96.986,92.625 97.031 C 92.108 97.081,92.081 97.118,92.033 97.858 C 91.994 98.471,91.913 98.651,91.646 98.720 C 91.460 98.769,91.268 98.964,91.218 99.154 C 91.168 99.344,91.024 99.500,90.897 99.500 C 90.739 99.500,90.667 99.710,90.667 100.167 C 90.667 100.716,90.610 100.833,90.343 100.833 C 89.739 100.833,89.500 101.458,89.500 103.037 L 89.500 104.500 88.996 104.500 C 88.202 104.500,88.167 104.802,88.167 111.499 C 88.167 118.181,88.165 118.167,89.095 118.167 C 89.496 118.167,89.500 118.182,89.500 119.800 C 89.500 121.523,89.616 121.833,90.260 121.833 C 90.577 121.833,90.632 121.953,90.726 122.858 C 90.848 124.018,91.035 124.333,91.604 124.333 C 91.943 124.333,92.000 124.415,92.000 124.899 C 92.000 125.474,92.210 125.667,92.836 125.667 C 93.063 125.667,93.159 125.811,93.198 126.208 C 93.245 126.703,93.304 126.755,93.875 126.802 C 94.483 126.852,94.500 126.872,94.500 127.510 C 94.500 128.147,94.517 128.167,95.073 128.167 C 95.597 128.167,95.650 128.212,95.698 128.708 C 95.745 129.203,95.804 129.255,96.375 129.302 C 96.962 129.350,97.000 129.387,97.000 129.909 C 97.000 130.487,97.211 130.667,97.894 130.667 C 98.144 130.667,98.317 130.818,98.439 131.141 C 98.626 131.637,99.137 131.833,100.236 131.833 C 100.688 131.833,100.787 131.911,100.924 132.375 C 101.112 133.014,101.439 133.117,103.375 133.147 C 104.520 133.164,104.667 133.202,104.667 133.480 C 104.667 134.214,104.914 134.247,110.790 134.300 C 116.711 134.353,116.833 134.338,116.833 133.563 C 116.833 133.172,116.857 133.167,118.488 133.167 C 120.289 133.167,120.667 133.007,120.667 132.246 C 120.667 131.871,120.731 131.846,121.792 131.799 C 122.902 131.751,122.919 131.743,123.076 131.208 C 123.214 130.739,123.309 130.667,123.784 130.667 C 124.150 130.667,124.333 130.587,124.333 130.428 C 124.333 130.297,124.479 130.143,124.658 130.086 C 124.837 130.029,125.029 129.837,125.086 129.658 C 125.161 129.421,125.340 129.333,125.749 129.333 C 126.372 129.333,126.833 128.976,126.833 128.493 C 126.833 128.277,127.002 128.132,127.367 128.038 C 127.779 127.931,127.931 127.778,128.040 127.360 C 128.130 127.013,128.327 126.764,128.593 126.663 C 129.077 126.479,129.333 125.902,129.333 124.999 C 129.333 124.373,129.353 124.352,129.958 124.302 C 130.549 124.253,130.586 124.216,130.635 123.625 C 130.665 123.264,130.775 123.000,130.895 123.000 C 131.536 123.000,131.743 122.552,131.830 120.974 L 131.917 119.417 132.416 119.360 C 133.132 119.279,133.161 119.169,133.164 116.542 C 133.166 114.665,133.214 114.167,133.391 114.167 C 134.316 114.167,134.728 110.910,133.989 109.431 C 133.779 109.011,133.508 108.667,133.387 108.667 C 133.214 108.667,133.167 108.145,133.167 106.264 C 133.167 103.461,133.145 103.376,132.408 103.237 L 131.847 103.132 131.799 101.941 L 131.750 100.750 131.208 100.698 L 130.667 100.646 130.667 99.668 C 130.667 98.581,130.410 98.167,129.738 98.167 C 129.387 98.167,129.333 98.090,129.333 97.583 C 129.333 97.028,129.306 97.000,128.750 97.000 C 128.193 97.000,128.167 96.973,128.167 96.411 C 128.167 96.049,128.073 95.787,127.923 95.729 C 127.789 95.678,127.634 95.493,127.578 95.318 C 127.523 95.143,127.368 95.000,127.234 95.000 C 127.099 95.000,126.946 94.888,126.894 94.750 C 126.835 94.597,126.582 94.500,126.242 94.500 C 125.721 94.500,125.684 94.462,125.635 93.875 C 125.586 93.286,125.548 93.247,124.968 93.199 C 124.411 93.153,124.348 93.098,124.302 92.616 C 124.254 92.120,124.202 92.080,123.558 92.033 C 122.983 91.991,122.848 91.913,122.763 91.577 C 122.701 91.330,122.500 91.131,122.247 91.068 C 122.020 91.011,121.833 90.897,121.833 90.815 C 121.833 90.734,121.462 90.667,121.009 90.667 C 120.182 90.667,119.333 90.172,119.333 89.689 C 119.333 89.559,118.719 89.500,117.351 89.500 C 115.408 89.500,115.368 89.492,115.271 89.107 C 115.064 88.282,108.987 87.691,107.375 88.339 M174.691 88.387 C 174.577 88.524,174.489 89.743,174.458 91.596 L 174.408 94.583 174.371 91.375 C 174.337 88.511,174.362 88.167,174.604 88.167 C 174.809 88.167,174.830 88.220,174.691 88.387 M172.000 104.504 L 172.000 107.174 171.592 107.360 C 171.368 107.462,171.072 107.817,170.934 108.148 L 170.684 108.750 170.675 107.644 C 170.668 106.702,170.713 106.527,170.977 106.458 C 171.571 106.303,171.833 105.413,171.833 103.558 C 171.833 102.609,171.871 101.833,171.917 101.833 C 171.963 101.833,172.000 103.035,172.000 104.504 " stroke="none" fill="#040404" fill-rule="evenodd"></path><path id="path1" d="" stroke="none" fill="#080404" fill-rule="evenodd"></path><path id="path2" d="" stroke="none" fill="#080404" fill-rule="evenodd"></path><path id="path3" d="" stroke="none" fill="#080404" fill-rule="evenodd"></path><path id="path4" d="" stroke="none" fill="#080404" fill-rule="evenodd"></path></g></svg>